<svg xmlns="http://www.w3.org/2000/svg" xmlns:xlink="http://www.w3.org/1999/xlink" width="auto" zoomAndPan="magnify" viewBox="0 0 125.25 149.999998" height="25" preserveAspectRatio="xMidYMid meet" version="1.0"><defs><clipPath id="79cbcd8622"><path d="M 0 0.445312 L 124.503906 0.445312 L 124.503906 149.550781 L 0 149.550781 Z M 0 0.445312 " clip-rule="nonzero"/></clipPath></defs><g clip-path="url(#79cbcd8622)"><path fill="#6b6b6b" d="M 111.738281 88.347656 L 111.738281 62.585938 C 111.738281 37.441406 92.804688 16.335938 68.285156 13.234375 L 68.285156 0.507812 L 55.871094 0.507812 L 55.871094 13.234375 C 31.347656 16.335938 12.414062 37.441406 12.414062 62.585938 L 12.414062 88.347656 C 5.277344 90.828125 0 97.660156 0 106.039062 L 0 124.660156 L 37.246094 124.660156 C 37.246094 138.320312 48.421875 149.492188 62.078125 149.492188 C 75.734375 149.492188 86.910156 138.320312 86.910156 124.660156 L 124.15625 124.660156 L 124.15625 106.039062 C 124.15625 97.96875 118.878906 91.140625 111.738281 88.347656 Z M 62.078125 137.078125 C 55.25 137.078125 49.660156 131.492188 49.660156 124.660156 L 74.492188 124.660156 C 74.492188 131.492188 68.90625 137.078125 62.078125 137.078125 Z M 111.738281 112.246094 L 12.414062 112.246094 L 12.414062 106.039062 C 12.414062 102.625 15.210938 99.832031 18.625 99.832031 L 24.832031 99.832031 L 24.832031 62.585938 C 24.832031 42.097656 41.59375 25.339844 62.078125 25.339844 C 82.5625 25.339844 99.324219 42.097656 99.324219 62.585938 L 99.324219 99.832031 L 105.53125 99.832031 C 108.945312 99.832031 111.738281 102.625 111.738281 106.039062 Z M 111.738281 112.246094 " fill-opacity="1" fill-rule="nonzero"/></g></svg>