<svg xmlns="http://www.w3.org/2000/svg" xmlns:xlink="http://www.w3.org/1999/xlink" width="170" zoomAndPan="magnify" viewBox="0 0 127.5 76.499998" height="102" preserveAspectRatio="xMidYMid meet" version="1.0"><defs><clipPath id="8776d9a469"><path d="M 0.164062 0 L 126.835938 0 L 126.835938 76.003906 L 0.164062 76.003906 Z M 0.164062 0 " clip-rule="nonzero"/></clipPath><clipPath id="ca23e87847"><path d="M 1 25 L 98 25 L 98 76.003906 L 1 76.003906 Z M 1 25 " clip-rule="nonzero"/></clipPath><clipPath id="343e3f036f"><path d="M 0.164062 0 L 126.835938 0 L 126.835938 76.003906 L 0.164062 76.003906 Z M 0.164062 0 " clip-rule="nonzero"/></clipPath><clipPath id="8fbc316040"><path d="M 44 22 L 126.835938 22 L 126.835938 75 L 44 75 Z M 44 22 " clip-rule="nonzero"/></clipPath><clipPath id="bd5b21e58f"><path d="M 0.164062 1 L 83 1 L 83 54 L 0.164062 54 Z M 0.164062 1 " clip-rule="nonzero"/></clipPath><clipPath id="1e99a0deb7"><path d="M 0.164062 0 L 126.835938 0 L 126.835938 76.003906 L 0.164062 76.003906 Z M 0.164062 0 " clip-rule="nonzero"/></clipPath></defs><g clip-path="url(#8776d9a469)"><path fill="#012169" d="M 0.167969 0 L 126.839844 0 L 126.839844 76.003906 L 0.167969 76.003906 Z M 0.167969 0 " fill-opacity="1" fill-rule="nonzero"/><path fill="#ffffff" d="M 126.839844 0 L 126.839844 10.882812 L 102.726562 25.214844 L 93.832031 30.5 L 81.214844 38 L 78.792969 39.441406 L 78.113281 39.847656 L 76.289062 40.929688 L 74.089844 42.234375 L 73.410156 42.640625 L 71.308594 43.890625 L 71.003906 44.070312 L 70.628906 44.292969 L 68.59375 45.503906 L 66.605469 46.683594 L 65.925781 47.089844 L 63.503906 48.527344 L 59.703125 50.789062 L 56.003906 52.988281 L 50.71875 56.128906 L 17.28125 76.003906 L 0.167969 76.003906 L 0.167969 65.121094 L 24.285156 50.789062 L 33.175781 45.503906 L 45.792969 38 L 48.21875 36.5625 L 48.898438 36.15625 L 50.71875 35.074219 L 52.917969 33.765625 L 53.597656 33.363281 L 55.699219 32.113281 L 56.003906 31.933594 L 56.378906 31.710938 L 58.414062 30.5 L 60.402344 29.320312 L 61.082031 28.914062 L 63.503906 27.476562 L 67.304688 25.214844 L 71.003906 23.015625 L 76.289062 19.875 L 109.726562 0 Z M 126.839844 0 " fill-opacity="1" fill-rule="nonzero"/></g><path fill="#c8102e" d="M 125.332031 0 L 82.914062 25.214844 L 74.019531 30.5 L 71.308594 32.113281 L 68.886719 33.554688 L 67.882812 34.152344 L 63.859375 36.539062 L 63.503906 36.75 L 61.402344 38 L 60.398438 38.597656 L 56.023438 41.199219 L 53.597656 42.640625 L 48.78125 45.503906 L 47.777344 46.097656 L 39.890625 50.789062 L 29.128906 50.789062 L 38.019531 45.503906 L 48.21875 39.441406 L 50.363281 38.167969 L 50.640625 38 L 51.644531 37.402344 L 55.660156 35.015625 L 56.019531 34.804688 L 58.125 33.554688 L 63.148438 30.566406 L 63.503906 30.355469 L 65.925781 28.914062 L 71.003906 25.898438 L 73.15625 24.617188 L 75.9375 22.964844 L 76.289062 22.753906 L 114.570312 0 Z M 125.332031 0 " fill-opacity="1" fill-rule="nonzero"/><g clip-path="url(#ca23e87847)"><path fill="#c8102e" d="M 97.878906 25.214844 L 88.988281 30.5 L 78.792969 36.5625 L 78.464844 36.753906 L 76.644531 37.835938 L 76.367188 38 L 71.363281 40.976562 L 71.34375 40.988281 L 70.988281 41.199219 L 68.886719 42.449219 L 63.503906 45.648438 L 61.082031 47.089844 L 56.003906 50.105469 L 50.71875 53.25 L 12.4375 76.003906 L 1.675781 76.003906 L 44.097656 50.789062 L 52.988281 45.503906 L 53.992188 44.90625 L 55.648438 43.921875 L 55.699219 43.890625 L 56.027344 43.695312 L 58.125 42.449219 L 59.292969 41.753906 L 63.503906 39.25 L 65.605469 38 L 70.640625 35.007812 L 70.65625 35 L 70.988281 34.804688 L 73.410156 33.363281 L 78.226562 30.5 L 87.117188 25.214844 Z M 97.878906 25.214844 " fill-opacity="1" fill-rule="nonzero"/></g><g clip-path="url(#343e3f036f)"><path fill="#ffffff" d="M 126.839844 65.121094 L 126.839844 76.003906 L 109.726562 76.003906 L 76.289062 56.128906 L 71.003906 52.988281 L 67.304688 50.789062 L 63.503906 48.527344 L 61.082031 47.089844 L 60.402344 46.683594 L 58.414062 45.503906 L 56.378906 44.292969 L 56.003906 44.070312 L 55.699219 43.890625 L 53.597656 42.640625 L 52.917969 42.238281 L 50.71875 40.929688 L 48.898438 39.847656 L 48.21875 39.441406 L 45.792969 38 L 33.175781 30.5 L 24.285156 25.214844 L 0.167969 10.882812 L 0.167969 0 L 17.28125 0 L 50.71875 19.875 L 56.003906 23.015625 L 59.703125 25.214844 L 63.503906 27.476562 L 65.925781 28.914062 L 66.605469 29.320312 L 68.59375 30.5 L 70.628906 31.710938 L 71.003906 31.933594 L 71.308594 32.113281 L 73.410156 33.363281 L 74.089844 33.765625 L 76.289062 35.074219 L 78.113281 36.15625 L 78.792969 36.5625 L 81.214844 38 L 93.832031 45.503906 L 102.726562 50.789062 Z M 126.839844 65.121094 " fill-opacity="1" fill-rule="nonzero"/></g><g clip-path="url(#8fbc316040)"><path fill="#c8102e" d="M 126.839844 68 L 126.839844 74.398438 L 87.117188 50.789062 L 78.226562 45.503906 L 73.734375 42.832031 L 73.410156 42.640625 L 70.988281 41.199219 L 66.609375 38.597656 L 65.605469 38 L 63.503906 36.75 L 63.148438 36.539062 L 58.125 33.554688 L 56.023438 32.304688 L 55.699219 32.113281 L 55.648438 32.082031 L 52.988281 30.5 L 45.101562 25.8125 L 44.097656 25.214844 L 50.71875 25.214844 L 50.71875 22.753906 L 56.003906 25.894531 L 61.082031 28.914062 L 62.746094 29.902344 L 63.503906 30.355469 L 63.859375 30.566406 L 68.886719 33.554688 L 70.988281 34.804688 L 71.363281 35.027344 L 76.367188 38 L 76.644531 38.167969 L 78.792969 39.441406 L 87.984375 44.90625 L 88.988281 45.503906 L 97.878906 50.789062 Z M 126.839844 68 " fill-opacity="1" fill-rule="nonzero"/></g><g clip-path="url(#bd5b21e58f)"><path fill="#c8102e" d="M 82.914062 50.789062 L 76.289062 50.789062 L 76.289062 53.25 L 75.9375 53.039062 L 71.003906 50.105469 L 66.253906 47.28125 L 65.925781 47.089844 L 63.503906 45.648438 L 63.148438 45.4375 L 59.277344 43.136719 L 59.128906 43.046875 L 58.125 42.449219 L 56.023438 41.199219 L 55.660156 40.984375 L 55.644531 40.976562 L 50.640625 38 L 48.21875 36.5625 L 38.019531 30.5 L 30.132812 25.8125 L 29.128906 25.214844 L 0.167969 8 L 0.167969 1.605469 L 39.894531 25.214844 L 47.777344 29.902344 L 48.785156 30.5 L 51.074219 31.863281 L 53.273438 33.171875 L 53.597656 33.363281 L 56.019531 34.804688 L 56.355469 35 L 56.375 35.015625 L 61.402344 38 L 63.503906 39.25 L 63.859375 39.460938 L 67.882812 41.851562 L 68.886719 42.449219 L 70.984375 43.695312 L 71.308594 43.890625 L 71.359375 43.921875 L 73.019531 44.90625 L 74.023438 45.503906 Z M 82.914062 50.789062 " fill-opacity="1" fill-rule="nonzero"/></g><g clip-path="url(#1e99a0deb7)"><path fill="#ffffff" d="M 126.839844 25.214844 L 126.839844 50.789062 L 76.289062 50.789062 L 76.289062 76.003906 L 50.71875 76.003906 L 50.71875 50.789062 L 0.167969 50.789062 L 0.167969 25.214844 L 50.71875 25.214844 L 50.71875 0 L 76.289062 0 L 76.289062 25.214844 Z M 126.839844 25.214844 " fill-opacity="1" fill-rule="nonzero"/><path fill="#c8102e" d="M 126.839844 30.5 L 71.003906 30.5 L 71.003906 0 L 56.003906 0 L 56.003906 30.5 L 0.167969 30.5 L 0.167969 45.503906 L 56.003906 45.503906 L 56.003906 76.003906 L 71.003906 76.003906 L 71.003906 45.503906 L 126.839844 45.503906 Z M 126.839844 30.5 " fill-opacity="1" fill-rule="nonzero"/></g></svg>