<svg xmlns="http://www.w3.org/2000/svg" xmlns:xlink="http://www.w3.org/1999/xlink" width="auto" zoomAndPan="magnify" viewBox="0 0 131.25 127.499994" height="25" preserveAspectRatio="xMidYMid meet" version="1.0"><defs><clipPath id="c160834d99"><path d="M 0 0.113281 L 130.503906 0.113281 L 130.503906 101 L 0 101 Z M 0 0.113281 " clip-rule="nonzero"/></clipPath><clipPath id="2d27389fd0"><path d="M 33 104 L 55 104 L 55 126.890625 L 33 126.890625 Z M 33 104 " clip-rule="nonzero"/></clipPath><clipPath id="0c0f4de01b"><path d="M 95 104 L 117 104 L 117 126.890625 L 95 126.890625 Z M 95 104 " clip-rule="nonzero"/></clipPath></defs><g clip-path="url(#c160834d99)"><path fill="#6b6b6b" d="M 129.066406 21.03125 C 128.03125 19.777344 126.492188 19.050781 124.863281 19.050781 L 31.855469 19.050781 L 27.378906 4.011719 C 26.691406 1.699219 24.566406 0.117188 22.152344 0.117188 L 5.511719 0.117188 C 2.503906 0.117188 0.0625 2.558594 0.0625 5.566406 C 0.0625 8.578125 2.503906 11.019531 5.511719 11.019531 L 18.085938 11.019531 L 38.460938 79.449219 C 36.253906 83.5 34.15625 89.296875 36.535156 94.152344 C 38.636719 98.453125 43.386719 100.632812 50.65625 100.632812 C 50.785156 100.632812 50.917969 100.628906 51.050781 100.613281 C 51.523438 100.570312 98.484375 96.265625 114.675781 97.183594 C 117.039062 97.308594 119.082031 95.5 119.21875 93.128906 C 119.351562 90.753906 117.535156 88.722656 115.160156 88.589844 C 98.722656 87.664062 54.328125 91.671875 50.464844 92.023438 C 46.480469 92 44.632812 91.121094 44.265625 90.371094 C 43.855469 89.535156 44.148438 87.957031 44.839844 86.171875 C 44.953125 86.164062 45.070312 86.164062 45.1875 86.148438 L 116.335938 77.542969 C 118.6875 77.257812 120.585938 75.484375 121.035156 73.160156 L 130.21875 25.535156 C 130.523438 23.9375 130.101562 22.285156 129.066406 21.03125 Z M 89.574219 47.476562 L 67.195312 47.476562 L 67.195312 29.953125 L 89.574219 29.953125 Z M 41.855469 52.640625 L 62.035156 52.640625 L 62.035156 73.128906 L 48.445312 74.773438 Z M 67.195312 52.640625 L 89.574219 52.640625 L 89.574219 69.796875 L 67.195312 72.503906 Z M 114.886719 47.476562 L 94.738281 47.476562 L 94.738281 29.953125 L 118.261719 29.953125 Z M 62.035156 29.953125 L 62.035156 47.476562 L 40.316406 47.476562 L 35.101562 29.953125 Z M 94.738281 69.171875 L 94.738281 52.640625 L 113.890625 52.640625 L 111.082031 67.191406 Z M 94.738281 69.171875 " fill-opacity="1" fill-rule="nonzero"/></g><g clip-path="url(#2d27389fd0)"><path fill="#6b6b6b" d="M 54.859375 115.726562 C 54.859375 116.441406 54.789062 117.148438 54.652344 117.851562 C 54.511719 118.550781 54.304688 119.234375 54.03125 119.894531 C 53.757812 120.554688 53.421875 121.183594 53.023438 121.777344 C 52.628906 122.371094 52.175781 122.921875 51.671875 123.429688 C 51.164062 123.933594 50.613281 124.386719 50.019531 124.78125 C 49.425781 125.179688 48.796875 125.515625 48.136719 125.789062 C 47.476562 126.0625 46.792969 126.269531 46.09375 126.410156 C 45.390625 126.546875 44.683594 126.617188 43.96875 126.617188 C 43.253906 126.617188 42.542969 126.546875 41.84375 126.410156 C 41.140625 126.269531 40.460938 126.0625 39.800781 125.789062 C 39.140625 125.515625 38.511719 125.179688 37.917969 124.78125 C 37.324219 124.386719 36.773438 123.933594 36.265625 123.429688 C 35.761719 122.921875 35.308594 122.371094 34.910156 121.777344 C 34.515625 121.183594 34.179688 120.554688 33.90625 119.894531 C 33.632812 119.234375 33.425781 118.550781 33.285156 117.851562 C 33.144531 117.148438 33.078125 116.441406 33.078125 115.726562 C 33.078125 115.011719 33.144531 114.300781 33.285156 113.601562 C 33.425781 112.898438 33.632812 112.21875 33.90625 111.558594 C 34.179688 110.898438 34.515625 110.269531 34.910156 109.675781 C 35.308594 109.082031 35.761719 108.53125 36.265625 108.023438 C 36.773438 107.519531 37.324219 107.066406 37.917969 106.667969 C 38.511719 106.273438 39.140625 105.9375 39.800781 105.664062 C 40.460938 105.390625 41.140625 105.183594 41.84375 105.042969 C 42.542969 104.902344 43.253906 104.835938 43.96875 104.835938 C 44.683594 104.835938 45.390625 104.902344 46.09375 105.042969 C 46.792969 105.183594 47.476562 105.390625 48.136719 105.664062 C 48.796875 105.9375 49.425781 106.273438 50.019531 106.667969 C 50.613281 107.066406 51.164062 107.519531 51.671875 108.023438 C 52.175781 108.53125 52.628906 109.082031 53.023438 109.675781 C 53.421875 110.269531 53.757812 110.898438 54.03125 111.558594 C 54.304688 112.21875 54.511719 112.898438 54.652344 113.601562 C 54.789062 114.300781 54.859375 115.011719 54.859375 115.726562 Z M 54.859375 115.726562 " fill-opacity="1" fill-rule="nonzero"/></g><g clip-path="url(#0c0f4de01b)"><path fill="#6b6b6b" d="M 116.828125 115.726562 C 116.828125 116.441406 116.761719 117.148438 116.621094 117.851562 C 116.480469 118.550781 116.273438 119.234375 116 119.894531 C 115.726562 120.554688 115.390625 121.183594 114.996094 121.777344 C 114.597656 122.371094 114.144531 122.921875 113.640625 123.429688 C 113.132812 123.933594 112.582031 124.386719 111.988281 124.78125 C 111.394531 125.179688 110.765625 125.515625 110.105469 125.789062 C 109.445312 126.0625 108.765625 126.269531 108.0625 126.410156 C 107.363281 126.546875 106.652344 126.617188 105.9375 126.617188 C 105.222656 126.617188 104.515625 126.546875 103.8125 126.410156 C 103.113281 126.269531 102.429688 126.0625 101.769531 125.789062 C 101.109375 125.515625 100.480469 125.179688 99.886719 124.78125 C 99.292969 124.386719 98.742188 123.933594 98.234375 123.429688 C 97.730469 122.921875 97.277344 122.371094 96.882812 121.777344 C 96.484375 121.183594 96.148438 120.554688 95.875 119.894531 C 95.601562 119.234375 95.394531 118.550781 95.253906 117.851562 C 95.117188 117.148438 95.046875 116.441406 95.046875 115.726562 C 95.046875 115.011719 95.117188 114.300781 95.253906 113.601562 C 95.394531 112.898438 95.601562 112.21875 95.875 111.558594 C 96.148438 110.898438 96.484375 110.269531 96.882812 109.675781 C 97.277344 109.082031 97.730469 108.53125 98.234375 108.023438 C 98.742188 107.519531 99.292969 107.066406 99.886719 106.667969 C 100.480469 106.273438 101.109375 105.9375 101.769531 105.664062 C 102.429688 105.390625 103.113281 105.183594 103.8125 105.042969 C 104.515625 104.902344 105.222656 104.835938 105.9375 104.835938 C 106.652344 104.835938 107.363281 104.902344 108.0625 105.042969 C 108.765625 105.183594 109.445312 105.390625 110.105469 105.664062 C 110.765625 105.9375 111.394531 106.273438 111.988281 106.667969 C 112.582031 107.066406 113.132812 107.519531 113.640625 108.023438 C 114.144531 108.53125 114.597656 109.082031 114.996094 109.675781 C 115.390625 110.269531 115.726562 110.898438 116 111.558594 C 116.273438 112.21875 116.480469 112.898438 116.621094 113.601562 C 116.761719 114.300781 116.828125 115.011719 116.828125 115.726562 Z M 116.828125 115.726562 " fill-opacity="1" fill-rule="nonzero"/></g></svg>