<svg xmlns="http://www.w3.org/2000/svg" xmlns:xlink="http://www.w3.org/1999/xlink" width="2000" zoomAndPan="magnify" viewBox="0 0 1500 1499.999933" height="2000" preserveAspectRatio="xMidYMid meet" version="1.0"><defs><clipPath id="39d5afab12"><rect x="0" width="1494" y="0" height="1496"/></clipPath></defs><g transform="matrix(1, 0, 0, 1, 0, 0.000000000000112861)"><g clip-path="url(#39d5afab12)"><path fill="#2c2c2c" d="M 576.144531 0 C 894.355469 0 1152.320312 257.960938 1152.320312 576.144531 C 1152.320312 706.648438 1108.90625 827 1035.757812 923.585938 L 1064.71875 952.546875 C 1093.113281 934.542969 1131.148438 937.886719 1155.929688 962.640625 L 1471.308594 1278.074219 C 1500 1306.765625 1500 1353.285156 1471.308594 1381.976562 L 1381.945312 1471.335938 C 1353.253906 1500.03125 1306.738281 1500.03125 1278.046875 1471.335938 L 962.640625 1155.929688 C 937.859375 1131.148438 934.542969 1093.144531 952.546875 1064.71875 L 923.585938 1035.757812 C 827 1108.90625 706.648438 1152.320312 576.144531 1152.320312 C 257.933594 1152.320312 0 894.355469 0 576.175781 C 0 257.992188 257.960938 0 576.144531 0 Z M 232.074219 920.210938 C 323.976562 1012.113281 446.179688 1062.71875 576.144531 1062.71875 C 706.109375 1062.71875 828.3125 1012.113281 920.210938 920.210938 C 1012.113281 828.3125 1062.71875 706.109375 1062.71875 576.144531 C 1062.71875 446.179688 1012.113281 323.976562 920.210938 232.074219 C 828.3125 140.175781 706.109375 89.570312 576.144531 89.570312 C 446.179688 89.570312 323.976562 140.175781 232.074219 232.074219 C 140.175781 323.976562 89.570312 446.179688 89.570312 576.144531 C 89.570312 706.109375 140.175781 828.3125 232.074219 920.210938 Z M 232.074219 920.210938 " fill-opacity="1" fill-rule="nonzero"/><path fill="#2c2c2c" d="M 512.339844 202.21875 C 512.339844 203.78125 512.417969 205.339844 512.570312 206.894531 C 512.722656 208.445312 512.953125 209.988281 513.257812 211.519531 C 513.5625 213.054688 513.941406 214.566406 514.394531 216.058594 C 514.847656 217.554688 515.371094 219.023438 515.96875 220.464844 C 516.566406 221.910156 517.234375 223.320312 517.972656 224.695312 C 518.707031 226.074219 519.507812 227.410156 520.375 228.710938 C 521.242188 230.007812 522.171875 231.261719 523.164062 232.46875 C 524.15625 233.675781 525.203125 234.832031 526.304688 235.933594 C 527.410156 237.039062 528.566406 238.085938 529.773438 239.078125 C 530.980469 240.066406 532.234375 240.996094 533.53125 241.863281 C 534.832031 242.730469 536.167969 243.535156 537.546875 244.269531 C 538.921875 245.007812 540.332031 245.671875 541.773438 246.269531 C 543.21875 246.867188 544.6875 247.394531 546.179688 247.847656 C 547.675781 248.300781 549.1875 248.679688 550.71875 248.984375 C 552.25 249.289062 553.792969 249.519531 555.347656 249.671875 C 556.902344 249.824219 558.460938 249.902344 560.023438 249.902344 C 561.582031 249.902344 563.140625 249.824219 564.695312 249.671875 C 566.25 249.519531 567.792969 249.289062 569.324219 248.984375 C 570.855469 248.679688 572.367188 248.300781 573.863281 247.847656 C 575.355469 247.394531 576.824219 246.867188 578.269531 246.269531 C 579.710938 245.671875 581.121094 245.007812 582.5 244.269531 C 583.875 243.535156 585.214844 242.730469 586.511719 241.863281 C 587.8125 240.996094 589.0625 240.066406 590.269531 239.078125 C 591.476562 238.085938 592.632812 237.039062 593.738281 235.933594 C 594.839844 234.832031 595.890625 233.675781 596.878906 232.46875 C 597.871094 231.261719 598.800781 230.007812 599.667969 228.710938 C 600.535156 227.410156 601.335938 226.074219 602.074219 224.695312 C 602.808594 223.320312 603.476562 221.910156 604.074219 220.464844 C 604.671875 219.023438 605.195312 217.554688 605.648438 216.058594 C 606.101562 214.566406 606.480469 213.054688 606.785156 211.519531 C 607.089844 209.988281 607.320312 208.445312 607.472656 206.894531 C 607.625 205.339844 607.703125 203.78125 607.703125 202.21875 C 607.703125 200.65625 607.625 199.101562 607.472656 197.546875 C 607.320312 195.992188 607.089844 194.449219 606.785156 192.917969 C 606.480469 191.386719 606.101562 189.871094 605.648438 188.378906 C 605.195312 186.882812 604.671875 185.414062 604.074219 183.972656 C 603.476562 182.53125 602.808594 181.121094 602.074219 179.742188 C 601.335938 178.367188 600.535156 177.027344 599.667969 175.730469 C 598.800781 174.429688 597.871094 173.179688 596.878906 171.972656 C 595.890625 170.761719 594.839844 169.609375 593.738281 168.503906 C 592.632812 167.398438 591.476562 166.351562 590.269531 165.359375 C 589.0625 164.371094 587.8125 163.441406 586.511719 162.574219 C 585.214844 161.707031 583.875 160.90625 582.5 160.167969 C 581.121094 159.433594 579.710938 158.765625 578.269531 158.167969 C 576.824219 157.570312 575.355469 157.042969 573.863281 156.589844 C 572.367188 156.136719 570.855469 155.757812 569.324219 155.453125 C 567.792969 155.148438 566.25 154.921875 564.695312 154.769531 C 563.140625 154.613281 561.582031 154.539062 560.023438 154.539062 C 558.460938 154.539062 556.902344 154.613281 555.347656 154.769531 C 553.792969 154.921875 552.25 155.148438 550.71875 155.453125 C 549.1875 155.757812 547.675781 156.136719 546.179688 156.589844 C 544.6875 157.042969 543.21875 157.570312 541.773438 158.167969 C 540.332031 158.765625 538.921875 159.433594 537.546875 160.167969 C 536.167969 160.90625 534.832031 161.707031 533.53125 162.574219 C 532.234375 163.441406 530.980469 164.371094 529.773438 165.359375 C 528.566406 166.351562 527.410156 167.398438 526.304688 168.503906 C 525.203125 169.609375 524.15625 170.761719 523.164062 171.972656 C 522.171875 173.179688 521.242188 174.429688 520.375 175.730469 C 519.507812 177.027344 518.707031 178.367188 517.972656 179.742188 C 517.234375 181.121094 516.566406 182.53125 515.96875 183.972656 C 515.371094 185.414062 514.847656 186.882812 514.394531 188.378906 C 513.941406 189.871094 513.5625 191.386719 513.257812 192.917969 C 512.953125 194.449219 512.722656 195.992188 512.570312 197.546875 C 512.417969 199.101562 512.339844 200.65625 512.339844 202.21875 Z M 512.339844 202.21875 " fill-opacity="1" fill-rule="nonzero"/><path fill="#2c2c2c" d="M 684.164062 175.617188 C 689.570312 176.722656 817.894531 204.339844 910.03125 321.019531 C 926.902344 342.367188 923.257812 373.359375 901.878906 390.195312 C 892.835938 397.332031 882.085938 400.796875 871.398438 400.796875 C 856.828125 400.796875 842.40625 394.378906 832.703125 382.046875 C 763.851562 294.835938 666.011719 272.472656 664.074219 272.023438 C 637.558594 266.441406 620.511719 240.4375 625.976562 213.863281 C 631.46875 187.230469 657.535156 170.0625 684.164062 175.585938 Z M 684.164062 175.617188 " fill-opacity="1" fill-rule="nonzero"/></g></g></svg>