<svg xmlns="http://www.w3.org/2000/svg" xmlns:xlink="http://www.w3.org/1999/xlink" width="200" zoomAndPan="magnify" viewBox="0 0 150 149.999998" height="200" preserveAspectRatio="xMidYMid meet" version="1.0"><defs><clipPath id="27e5bc3abb"><path d="M 0 0 L 72.226562 0 L 72.226562 73.636719 L 0 73.636719 Z M 0 0 " clip-rule="nonzero"/></clipPath><clipPath id="612a27b19f"><path d="M 6.75 0 L 65.476562 0 C 69.207031 0 72.226562 3.023438 72.226562 6.75 L 72.226562 66.691406 C 72.226562 70.417969 69.207031 73.441406 65.476562 73.441406 L 6.75 73.441406 C 3.023438 73.441406 0 70.417969 0 66.691406 L 0 6.75 C 0 3.023438 3.023438 0 6.75 0 Z M 6.75 0 " clip-rule="nonzero"/></clipPath><clipPath id="2272253fb4"><path d="M 0 0 L 72.226562 0 L 72.226562 73.636719 L 0 73.636719 Z M 0 0 " clip-rule="nonzero"/></clipPath><clipPath id="72595923de"><path d="M 6.75 0 L 65.476562 0 C 69.207031 0 72.226562 3.023438 72.226562 6.75 L 72.226562 66.691406 C 72.226562 70.417969 69.207031 73.441406 65.476562 73.441406 L 6.75 73.441406 C 3.023438 73.441406 0 70.417969 0 66.691406 L 0 6.75 C 0 3.023438 3.023438 0 6.75 0 Z M 6.75 0 " clip-rule="nonzero"/></clipPath><clipPath id="098ef4d4bd"><rect x="0" width="73" y="0" height="74"/></clipPath><clipPath id="2a576fb860"><path d="M 0.00390625 0 L 72 0 L 72 73.5 L 0.00390625 73.5 Z M 0.00390625 0 " clip-rule="nonzero"/></clipPath><clipPath id="2fe6db49f3"><path d="M 6.75 0 L 65.472656 0 C 69.199219 0 72.21875 3.023438 72.21875 6.75 L 72.21875 66.679688 C 72.21875 70.40625 69.199219 73.429688 65.472656 73.429688 L 6.75 73.429688 C 3.023438 73.429688 0.00390625 70.40625 0.00390625 66.679688 L 0.00390625 6.75 C 0.00390625 3.023438 3.023438 0 6.75 0 Z M 6.75 0 " clip-rule="nonzero"/></clipPath><clipPath id="c8db5d1360"><path d="M 77.773438 76.558594 L 150 76.558594 L 150 150 L 77.773438 150 Z M 77.773438 76.558594 " clip-rule="nonzero"/></clipPath><clipPath id="d8a23bac4f"><path d="M 84.523438 76.558594 L 143.25 76.558594 C 146.976562 76.558594 150 79.582031 150 83.308594 L 150 143.25 C 150 146.976562 146.976562 150 143.25 150 L 84.523438 150 C 80.792969 150 77.773438 146.976562 77.773438 143.25 L 77.773438 83.308594 C 77.773438 79.582031 80.792969 76.558594 84.523438 76.558594 Z M 84.523438 76.558594 " clip-rule="nonzero"/></clipPath><clipPath id="1653bf4554"><path d="M 0.773438 0.558594 L 73 0.558594 L 73 74 L 0.773438 74 Z M 0.773438 0.558594 " clip-rule="nonzero"/></clipPath><clipPath id="10deef64d4"><path d="M 7.523438 0.558594 L 66.25 0.558594 C 69.976562 0.558594 73 3.582031 73 7.308594 L 73 67.25 C 73 70.976562 69.976562 74 66.25 74 L 7.523438 74 C 3.792969 74 0.773438 70.976562 0.773438 67.25 L 0.773438 7.308594 C 0.773438 3.582031 3.792969 0.558594 7.523438 0.558594 Z M 7.523438 0.558594 " clip-rule="nonzero"/></clipPath><clipPath id="8622dc05d3"><rect x="0" width="73" y="0" height="74"/></clipPath><clipPath id="6a8a274798"><path d="M 77.773438 76.558594 L 149.773438 76.558594 L 149.773438 150 L 77.773438 150 Z M 77.773438 76.558594 " clip-rule="nonzero"/></clipPath><clipPath id="0bc52f5611"><path d="M 84.523438 76.558594 L 143.242188 76.558594 C 146.96875 76.558594 149.992188 79.582031 149.992188 83.308594 L 149.992188 143.242188 C 149.992188 146.96875 146.96875 149.988281 143.242188 149.988281 L 84.523438 149.988281 C 80.796875 149.988281 77.773438 146.96875 77.773438 143.242188 L 77.773438 83.308594 C 77.773438 79.582031 80.796875 76.558594 84.523438 76.558594 Z M 84.523438 76.558594 " clip-rule="nonzero"/></clipPath><clipPath id="49628bebd0"><path d="M 77.773438 0 L 150 0 L 150 72.226562 L 77.773438 72.226562 Z M 77.773438 0 " clip-rule="nonzero"/></clipPath><clipPath id="f3a0e626ee"><path d="M 113.886719 0 C 93.941406 0 77.773438 16.167969 77.773438 36.113281 C 77.773438 56.058594 93.941406 72.226562 113.886719 72.226562 C 133.832031 72.226562 150 56.058594 150 36.113281 C 150 16.167969 133.832031 0 113.886719 0 Z M 113.886719 0 " clip-rule="nonzero"/></clipPath><clipPath id="65ecbfb7b2"><path d="M 0.773438 0 L 73 0 L 73 72.226562 L 0.773438 72.226562 Z M 0.773438 0 " clip-rule="nonzero"/></clipPath><clipPath id="550c5341b6"><path d="M 36.886719 0 C 16.941406 0 0.773438 16.167969 0.773438 36.113281 C 0.773438 56.058594 16.941406 72.226562 36.886719 72.226562 C 56.832031 72.226562 73 56.058594 73 36.113281 C 73 16.167969 56.832031 0 36.886719 0 Z M 36.886719 0 " clip-rule="nonzero"/></clipPath><clipPath id="0fc569d388"><rect x="0" width="73" y="0" height="73"/></clipPath><clipPath id="0fead7550e"><path d="M 77.773438 0 L 149.773438 0 L 149.773438 72 L 77.773438 72 Z M 77.773438 0 " clip-rule="nonzero"/></clipPath><clipPath id="8ec645e895"><path d="M 113.882812 0 C 93.941406 0 77.773438 16.167969 77.773438 36.109375 C 77.773438 56.054688 93.941406 72.222656 113.882812 72.222656 C 133.828125 72.222656 149.996094 56.054688 149.996094 36.109375 C 149.996094 16.167969 133.828125 0 113.882812 0 Z M 113.882812 0 " clip-rule="nonzero"/></clipPath><clipPath id="317b95d9f2"><path d="M 0 76.558594 L 72.226562 76.558594 L 72.226562 150 L 0 150 Z M 0 76.558594 " clip-rule="nonzero"/></clipPath><clipPath id="17bee85f96"><path d="M 6.75 76.558594 L 65.476562 76.558594 C 69.207031 76.558594 72.226562 79.582031 72.226562 83.308594 L 72.226562 143.25 C 72.226562 146.976562 69.207031 150 65.476562 150 L 6.75 150 C 3.023438 150 0 146.976562 0 143.25 L 0 83.308594 C 0 79.582031 3.023438 76.558594 6.75 76.558594 Z M 6.75 76.558594 " clip-rule="nonzero"/></clipPath><clipPath id="1ad31e1450"><path d="M 0 0.558594 L 72.226562 0.558594 L 72.226562 74 L 0 74 Z M 0 0.558594 " clip-rule="nonzero"/></clipPath><clipPath id="4ede570a5d"><path d="M 6.75 0.558594 L 65.476562 0.558594 C 69.207031 0.558594 72.226562 3.582031 72.226562 7.308594 L 72.226562 67.25 C 72.226562 70.976562 69.207031 74 65.476562 74 L 6.75 74 C 3.023438 74 0 70.976562 0 67.25 L 0 7.308594 C 0 3.582031 3.023438 0.558594 6.75 0.558594 Z M 6.75 0.558594 " clip-rule="nonzero"/></clipPath><clipPath id="3fbb48707b"><rect x="0" width="73" y="0" height="74"/></clipPath><clipPath id="b9b72e4ce3"><path d="M 0.00390625 76.558594 L 72 76.558594 L 72 150 L 0.00390625 150 Z M 0.00390625 76.558594 " clip-rule="nonzero"/></clipPath><clipPath id="9f4d9578d0"><path d="M 6.75 76.558594 L 65.472656 76.558594 C 69.199219 76.558594 72.21875 79.582031 72.21875 83.308594 L 72.21875 143.242188 C 72.21875 146.96875 69.199219 149.988281 65.472656 149.988281 L 6.75 149.988281 C 3.023438 149.988281 0.00390625 146.96875 0.00390625 143.242188 L 0.00390625 83.308594 C 0.00390625 79.582031 3.023438 76.558594 6.75 76.558594 Z M 6.75 76.558594 " clip-rule="nonzero"/></clipPath></defs><g clip-path="url(#27e5bc3abb)"><g clip-path="url(#612a27b19f)"><g transform="matrix(1, 0, 0, 1, 0, -0.000000000000007527)"><g clip-path="url(#098ef4d4bd)"><g clip-path="url(#2272253fb4)"><g clip-path="url(#72595923de)"><path fill="#ffffff" d="M 0 0 L 72.226562 0 L 72.226562 73.355469 L 0 73.355469 Z M 0 0 " fill-opacity="1" fill-rule="nonzero"/></g></g></g></g></g></g><g clip-path="url(#2a576fb860)"><g clip-path="url(#2fe6db49f3)"><path stroke-linecap="butt" transform="matrix(0.75, 0, 0, 0.75, 0.00000125022, 0.000002)" fill="none" stroke-linejoin="miter" d="M 8.999999 -0.00000266667 L 87.296878 -0.00000266667 C 92.265629 -0.00000266667 96.291671 4.031248 96.291671 8.999998 L 96.291671 88.906253 C 96.291671 93.875003 92.265629 97.906253 87.296878 97.906253 L 8.999999 97.906253 C 4.031249 97.906253 0.00520667 93.875003 0.00520667 88.906253 L 0.00520667 8.999998 C 0.00520667 4.031248 4.031249 -0.00000266667 8.999999 -0.00000266667 Z M 8.999999 -0.00000266667 " stroke="#6b6b6b" stroke-width="30" stroke-opacity="1" stroke-miterlimit="4"/></g></g><g clip-path="url(#c8db5d1360)"><g clip-path="url(#d8a23bac4f)"><g transform="matrix(1, 0, 0, 1, 77, 76)"><g clip-path="url(#8622dc05d3)"><g clip-path="url(#1653bf4554)"><g clip-path="url(#10deef64d4)"><path fill="#ffffff" d="M 0.773438 0.558594 L 73 0.558594 L 73 73.917969 L 0.773438 73.917969 Z M 0.773438 0.558594 " fill-opacity="1" fill-rule="nonzero"/></g></g></g></g></g></g><g clip-path="url(#6a8a274798)"><g clip-path="url(#0bc52f5611)"><path stroke-linecap="butt" transform="matrix(0.75, 0, 0, 0.75, 77.772098, 76.559602)" fill="none" stroke-linejoin="miter" d="M 9.001787 -0.00134371 L 87.293458 -0.00134371 C 92.262209 -0.00134371 96.293459 4.029907 96.293459 8.998657 L 96.293459 88.91012 C 96.293459 93.87887 92.262209 97.904912 87.293458 97.904912 L 9.001787 97.904912 C 4.033037 97.904912 0.00178665 93.87887 0.00178665 88.91012 L 0.00178665 8.998657 C 0.00178665 4.029907 4.033037 -0.00134371 9.001787 -0.00134371 Z M 9.001787 -0.00134371 " stroke="#6b6b6b" stroke-width="30" stroke-opacity="1" stroke-miterlimit="4"/></g></g><g clip-path="url(#49628bebd0)"><g clip-path="url(#f3a0e626ee)"><g transform="matrix(1, 0, 0, 1, 77, -0.000000000000007527)"><g clip-path="url(#0fc569d388)"><g clip-path="url(#65ecbfb7b2)"><g clip-path="url(#550c5341b6)"><path fill="#ffffff" d="M 0.773438 0 L 73 0 L 73 72.226562 L 0.773438 72.226562 Z M 0.773438 0 " fill-opacity="1" fill-rule="nonzero"/></g></g></g></g></g></g><g clip-path="url(#0fead7550e)"><g clip-path="url(#8ec645e895)"><path stroke-linecap="butt" transform="matrix(0.75, 0, 0, 0.75, 77.772098, 0.000002)" fill="none" stroke-linejoin="miter" d="M 48.147623 -0.00000266667 C 21.55908 -0.00000266667 0.00178665 21.55729 0.00178665 48.151042 C 0.00178665 74.739585 21.55908 96.296878 48.147623 96.296878 C 74.741374 96.296878 96.298667 74.739585 96.298667 48.151042 C 96.298667 21.55729 74.741374 -0.00000266667 48.147623 -0.00000266667 Z M 48.147623 -0.00000266667 " stroke="#6b6b6b" stroke-width="30" stroke-opacity="1" stroke-miterlimit="4"/></g></g><g clip-path="url(#317b95d9f2)"><g clip-path="url(#17bee85f96)"><g transform="matrix(1, 0, 0, 1, 0, 76)"><g clip-path="url(#3fbb48707b)"><g clip-path="url(#1ad31e1450)"><g clip-path="url(#4ede570a5d)"><path fill="#ffffff" d="M 0 0.558594 L 72.226562 0.558594 L 72.226562 73.917969 L 0 73.917969 Z M 0 0.558594 " fill-opacity="1" fill-rule="nonzero"/></g></g></g></g></g></g><g clip-path="url(#b9b72e4ce3)"><g clip-path="url(#9f4d9578d0)"><path stroke-linecap="butt" transform="matrix(0.75, 0, 0, 0.75, 0.00000125022, 76.559602)" fill="none" stroke-linejoin="miter" d="M 8.999999 -0.00134371 L 87.296878 -0.00134371 C 92.265629 -0.00134371 96.291671 4.029907 96.291671 8.998657 L 96.291671 88.91012 C 96.291671 93.87887 92.265629 97.904912 87.296878 97.904912 L 8.999999 97.904912 C 4.031249 97.904912 0.00520667 93.87887 0.00520667 88.91012 L 0.00520667 8.998657 C 0.00520667 4.029907 4.031249 -0.00134371 8.999999 -0.00134371 Z M 8.999999 -0.00134371 " stroke="#6b6b6b" stroke-width="30" stroke-opacity="1" stroke-miterlimit="4"/></g></g></svg>