<svg xmlns="http://www.w3.org/2000/svg" xmlns:xlink="http://www.w3.org/1999/xlink" width="auto" zoomAndPan="magnify" viewBox="0 0 127.5 127.499994" height="25" preserveAspectRatio="xMidYMid meet" version="1.0"><path fill="#6b6b6b" d="M 63.5 12.472656 C 49.410156 12.472656 37.988281 23.894531 37.988281 37.988281 C 37.988281 52.078125 49.410156 63.5 63.5 63.5 C 77.59375 63.5 89.015625 52.078125 89.015625 37.988281 C 89.015625 23.894531 77.59375 12.472656 63.5 12.472656 Z M 26.648438 37.988281 C 26.648438 17.632812 43.148438 1.132812 63.5 1.132812 C 83.855469 1.132812 100.355469 17.632812 100.355469 37.988281 C 100.355469 58.339844 83.855469 74.839844 63.5 74.839844 C 43.148438 74.839844 26.648438 58.339844 26.648438 37.988281 Z M 26.648438 37.988281 " fill-opacity="1" fill-rule="evenodd"/><path fill="#6b6b6b" d="M 63.503906 74.839844 C 38.753906 74.839844 18.664062 90.390625 13.683594 110.339844 C 13.429688 111.351562 13.683594 112.230469 14.40625 113.007812 C 15.195312 113.863281 16.542969 114.527344 18.144531 114.527344 L 108.859375 114.527344 C 110.464844 114.527344 111.808594 113.863281 112.597656 113.007812 C 113.320312 112.230469 113.574219 111.351562 113.320312 110.339844 C 108.34375 90.390625 88.25 74.839844 63.503906 74.839844 Z M 2.679688 107.59375 C 9.070312 81.988281 34.199219 63.5 63.503906 63.5 C 92.804688 63.5 117.933594 81.988281 124.324219 107.59375 C 126.972656 118.21875 117.746094 125.867188 108.859375 125.867188 L 18.144531 125.867188 C 9.257812 125.867188 0.03125 118.21875 2.679688 107.59375 Z M 2.679688 107.59375 " fill-opacity="1" fill-rule="evenodd"/></svg>