<svg xmlns="http://www.w3.org/2000/svg" xmlns:xlink="http://www.w3.org/1999/xlink" width="40" zoomAndPan="magnify" viewBox="0 0 30 34.499999" height="46" preserveAspectRatio="xMidYMid meet" version="1.0"><defs><clipPath id="36a6eb9f85"><path d="M 0.214844 0 L 29.785156 0 L 29.785156 34 L 0.214844 34 Z M 0.214844 0 " clip-rule="nonzero"/></clipPath></defs><g clip-path="url(#36a6eb9f85)"><path fill="#6b6b6b" d="M 29.082031 25.171875 L 26.667969 22.15625 C 26.367188 21.855469 26.265625 21.453125 26.265625 21.050781 L 26.265625 12.199219 C 26.265625 9.683594 25.058594 7.371094 22.945312 5.660156 C 21.4375 4.453125 19.527344 3.648438 17.515625 3.246094 C 17.515625 3.144531 17.515625 3.042969 17.515625 2.945312 C 17.515625 1.535156 16.40625 0.429688 15 0.429688 C 13.59375 0.429688 12.484375 1.535156 12.484375 2.945312 C 12.484375 3.042969 12.484375 3.144531 12.484375 3.246094 C 7.457031 4.25 3.734375 8.074219 3.734375 12.5 L 3.734375 21.148438 C 3.734375 21.550781 3.632812 21.953125 3.332031 22.257812 L 0.917969 25.273438 C 0.316406 25.976562 0.214844 26.984375 0.617188 27.789062 C 1.121094 28.792969 2.226562 29.496094 3.535156 29.496094 L 10.976562 29.496094 C 11.078125 31.609375 12.886719 33.21875 15 33.21875 C 17.113281 33.21875 18.820312 31.609375 19.023438 29.496094 L 26.367188 29.496094 C 27.671875 29.496094 28.78125 28.792969 29.28125 27.789062 C 29.785156 26.78125 29.683594 25.878906 29.082031 25.171875 Z M 29.082031 25.171875 " fill-opacity="1" fill-rule="nonzero"/></g></svg>