<svg xmlns="http://www.w3.org/2000/svg" xmlns:xlink="http://www.w3.org/1999/xlink" width="75" zoomAndPan="magnify" viewBox="0 0 56.25 30.75" height="41" preserveAspectRatio="xMidYMid meet" version="1.0"><defs><clipPath id="fbd1a0bbfe"><path d="M 0 0.078125 L 55.339844 0.078125 L 55.339844 30.425781 L 0 30.425781 Z M 0 0.078125 " clip-rule="nonzero"/></clipPath></defs><g clip-path="url(#fbd1a0bbfe)"><path fill="#6b6b6b" d="M 55.46875 3.433594 L 55.46875 2.773438 C 55.46875 2.417969 55.402344 2.074219 55.265625 1.746094 C 55.128906 1.414062 54.933594 1.125 54.679688 0.875 C 54.429688 0.621094 54.136719 0.425781 53.808594 0.289062 C 53.480469 0.152344 53.136719 0.0859375 52.78125 0.0820312 L 12.738281 0.0820312 L 12.738281 0.683594 C 12.738281 0.816406 12.714844 0.941406 12.664062 1.066406 C 12.613281 1.1875 12.539062 1.296875 12.445312 1.390625 C 12.351562 1.484375 12.242188 1.558594 12.121094 1.609375 C 11.996094 1.660156 11.871094 1.683594 11.738281 1.683594 C 11.605469 1.683594 11.476562 1.660156 11.355469 1.609375 C 11.230469 1.558594 11.121094 1.484375 11.027344 1.390625 C 10.933594 1.296875 10.863281 1.1875 10.8125 1.066406 C 10.761719 0.941406 10.734375 0.816406 10.734375 0.683594 L 10.734375 0.0820312 L 2.550781 0.0820312 C 2.195312 0.0859375 1.851562 0.152344 1.523438 0.289062 C 1.195312 0.425781 0.902344 0.621094 0.652344 0.875 C 0.398438 1.125 0.203125 1.414062 0.0703125 1.746094 C -0.0664062 2.074219 -0.136719 2.417969 -0.136719 2.773438 L -0.136719 27.742188 C -0.136719 28.097656 -0.0664062 28.441406 0.0703125 28.769531 C 0.203125 29.101562 0.398438 29.390625 0.652344 29.644531 C 0.902344 29.894531 1.195312 30.089844 1.523438 30.226562 C 1.851562 30.363281 2.195312 30.429688 2.550781 30.433594 L 10.734375 30.433594 L 10.734375 29.832031 C 10.734375 29.699219 10.761719 29.574219 10.8125 29.449219 C 10.863281 29.328125 10.933594 29.21875 11.027344 29.125 C 11.121094 29.03125 11.230469 28.957031 11.355469 28.90625 C 11.476562 28.855469 11.605469 28.832031 11.738281 28.832031 C 11.871094 28.832031 11.996094 28.855469 12.121094 28.90625 C 12.242188 28.957031 12.351562 29.03125 12.445312 29.125 C 12.539062 29.21875 12.613281 29.328125 12.664062 29.449219 C 12.714844 29.574219 12.738281 29.699219 12.738281 29.832031 L 12.738281 30.433594 L 52.78125 30.433594 C 53.136719 30.429688 53.480469 30.363281 53.808594 30.226562 C 54.136719 30.089844 54.429688 29.894531 54.679688 29.644531 C 54.933594 29.390625 55.128906 29.101562 55.265625 28.769531 C 55.402344 28.441406 55.46875 28.097656 55.46875 27.742188 L 55.46875 27.082031 C 55.039062 26.988281 54.632812 26.835938 54.246094 26.625 C 53.859375 26.414062 53.511719 26.152344 53.199219 25.84375 C 52.886719 25.535156 52.625 25.1875 52.410156 24.804688 C 52.195312 24.421875 52.042969 24.015625 51.941406 23.585938 C 51.84375 23.15625 51.808594 22.722656 51.832031 22.285156 C 51.855469 21.847656 51.941406 21.421875 52.089844 21.003906 C 52.234375 20.589844 52.433594 20.203125 52.691406 19.847656 C 52.945312 19.488281 53.246094 19.175781 53.589844 18.902344 C 53.316406 18.683594 53.066406 18.441406 52.847656 18.167969 C 52.628906 17.894531 52.441406 17.597656 52.289062 17.28125 C 52.136719 16.96875 52.019531 16.636719 51.941406 16.296875 C 51.863281 15.953125 51.824219 15.609375 51.824219 15.257812 C 51.824219 14.90625 51.863281 14.5625 51.941406 14.21875 C 52.019531 13.878906 52.136719 13.546875 52.289062 13.234375 C 52.441406 12.917969 52.628906 12.621094 52.847656 12.347656 C 53.066406 12.074219 53.316406 11.832031 53.589844 11.613281 C 53.246094 11.339844 52.945312 11.027344 52.691406 10.667969 C 52.433594 10.3125 52.234375 9.925781 52.089844 9.511719 C 51.941406 9.09375 51.855469 8.667969 51.832031 8.230469 C 51.808594 7.792969 51.84375 7.359375 51.941406 6.929688 C 52.042969 6.5 52.195312 6.09375 52.410156 5.710938 C 52.625 5.328125 52.886719 4.980469 53.199219 4.671875 C 53.511719 4.363281 53.859375 4.101562 54.246094 3.890625 C 54.632812 3.679688 55.039062 3.527344 55.46875 3.433594 Z M 12.738281 25.285156 C 12.738281 25.417969 12.714844 25.542969 12.664062 25.667969 C 12.613281 25.789062 12.539062 25.898438 12.445312 25.992188 C 12.351562 26.085938 12.242188 26.15625 12.121094 26.207031 C 11.996094 26.261719 11.871094 26.285156 11.738281 26.285156 C 11.605469 26.285156 11.476562 26.261719 11.355469 26.207031 C 11.230469 26.15625 11.121094 26.085938 11.027344 25.992188 C 10.933594 25.898438 10.863281 25.789062 10.8125 25.667969 C 10.761719 25.542969 10.734375 25.417969 10.734375 25.285156 L 10.734375 23.683594 C 10.734375 23.550781 10.761719 23.421875 10.8125 23.300781 C 10.863281 23.175781 10.933594 23.066406 11.027344 22.972656 C 11.121094 22.878906 11.230469 22.808594 11.355469 22.757812 C 11.476562 22.707031 11.605469 22.679688 11.738281 22.679688 C 11.871094 22.679688 11.996094 22.707031 12.121094 22.757812 C 12.242188 22.808594 12.351562 22.878906 12.445312 22.972656 C 12.539062 23.066406 12.613281 23.175781 12.664062 23.300781 C 12.714844 23.421875 12.738281 23.550781 12.738281 23.683594 Z M 12.738281 19.132812 C 12.738281 19.265625 12.714844 19.394531 12.664062 19.515625 C 12.613281 19.640625 12.539062 19.746094 12.445312 19.839844 C 12.351562 19.933594 12.242188 20.007812 12.121094 20.058594 C 11.996094 20.109375 11.871094 20.132812 11.738281 20.132812 C 11.605469 20.132812 11.476562 20.109375 11.355469 20.058594 C 11.230469 20.007812 11.121094 19.933594 11.027344 19.839844 C 10.933594 19.746094 10.863281 19.640625 10.8125 19.515625 C 10.761719 19.394531 10.734375 19.265625 10.734375 19.132812 L 10.734375 17.535156 C 10.734375 17.402344 10.761719 17.273438 10.8125 17.148438 C 10.863281 17.027344 10.933594 16.917969 11.027344 16.824219 C 11.121094 16.730469 11.230469 16.660156 11.355469 16.609375 C 11.476562 16.558594 11.605469 16.53125 11.738281 16.53125 C 11.871094 16.53125 11.996094 16.558594 12.121094 16.609375 C 12.242188 16.660156 12.351562 16.730469 12.445312 16.824219 C 12.539062 16.917969 12.613281 17.027344 12.664062 17.148438 C 12.714844 17.273438 12.738281 17.402344 12.738281 17.535156 Z M 12.738281 12.980469 C 12.738281 13.113281 12.714844 13.242188 12.664062 13.367188 C 12.613281 13.488281 12.539062 13.597656 12.445312 13.691406 C 12.351562 13.785156 12.242188 13.855469 12.121094 13.90625 C 11.996094 13.957031 11.871094 13.984375 11.738281 13.984375 C 11.605469 13.984375 11.476562 13.957031 11.355469 13.90625 C 11.230469 13.855469 11.121094 13.785156 11.027344 13.691406 C 10.933594 13.597656 10.863281 13.488281 10.8125 13.367188 C 10.761719 13.242188 10.734375 13.113281 10.734375 12.980469 L 10.734375 11.382812 C 10.734375 11.25 10.761719 11.121094 10.8125 11 C 10.863281 10.875 10.933594 10.769531 11.027344 10.675781 C 11.121094 10.582031 11.230469 10.507812 11.355469 10.457031 C 11.476562 10.40625 11.605469 10.382812 11.738281 10.382812 C 11.871094 10.382812 11.996094 10.40625 12.121094 10.457031 C 12.242188 10.507812 12.351562 10.582031 12.445312 10.675781 C 12.539062 10.769531 12.613281 10.875 12.664062 11 C 12.714844 11.121094 12.738281 11.25 12.738281 11.382812 Z M 12.738281 6.832031 C 12.738281 6.964844 12.714844 7.09375 12.664062 7.214844 C 12.613281 7.339844 12.539062 7.449219 12.445312 7.542969 C 12.351562 7.636719 12.242188 7.707031 12.121094 7.757812 C 11.996094 7.808594 11.871094 7.835938 11.738281 7.835938 C 11.605469 7.835938 11.476562 7.808594 11.355469 7.757812 C 11.230469 7.707031 11.121094 7.636719 11.027344 7.542969 C 10.933594 7.449219 10.863281 7.339844 10.8125 7.214844 C 10.761719 7.09375 10.734375 6.964844 10.734375 6.832031 L 10.734375 5.238281 C 10.734375 5.105469 10.761719 4.976562 10.8125 4.855469 C 10.863281 4.734375 10.933594 4.625 11.027344 4.53125 C 11.121094 4.4375 11.230469 4.363281 11.355469 4.3125 C 11.476562 4.261719 11.605469 4.238281 11.738281 4.238281 C 11.871094 4.238281 11.996094 4.261719 12.121094 4.3125 C 12.242188 4.363281 12.351562 4.4375 12.445312 4.53125 C 12.539062 4.625 12.613281 4.734375 12.664062 4.855469 C 12.714844 4.976562 12.738281 5.105469 12.738281 5.238281 Z M 24.542969 7.519531 C 24.761719 7.300781 25 7.109375 25.261719 6.949219 C 25.519531 6.785156 25.796875 6.65625 26.089844 6.554688 C 26.378906 6.457031 26.679688 6.390625 26.984375 6.363281 C 27.289062 6.332031 27.59375 6.335938 27.898438 6.375 C 28.203125 6.417969 28.5 6.492188 28.789062 6.597656 C 29.078125 6.707031 29.347656 6.847656 29.605469 7.019531 C 29.859375 7.1875 30.09375 7.386719 30.300781 7.609375 C 30.511719 7.835938 30.695312 8.078125 30.847656 8.347656 C 31.003906 8.613281 31.125 8.894531 31.214844 9.1875 C 31.300781 9.480469 31.355469 9.78125 31.378906 10.089844 C 31.398438 10.394531 31.382812 10.699219 31.332031 11.003906 C 31.28125 11.308594 31.199219 11.601562 31.082031 11.882812 C 30.960938 12.167969 30.8125 12.433594 30.636719 12.683594 C 30.457031 12.933594 30.25 13.160156 30.019531 13.363281 C 29.789062 13.566406 29.539062 13.742188 29.265625 13.886719 C 28.996094 14.03125 28.710938 14.140625 28.414062 14.222656 C 28.117188 14.300781 27.816406 14.347656 27.507812 14.355469 C 27.199219 14.367188 26.894531 14.339844 26.59375 14.28125 C 26.292969 14.21875 26.003906 14.128906 25.722656 14 C 25.441406 13.871094 25.179688 13.714844 24.9375 13.527344 C 24.691406 13.339844 24.472656 13.128906 24.277344 12.890625 C 24.082031 12.652344 23.917969 12.394531 23.78125 12.121094 C 23.648438 11.84375 23.542969 11.558594 23.472656 11.257812 C 23.40625 10.957031 23.371094 10.65625 23.371094 10.347656 C 23.367188 9.242188 23.757812 8.296875 24.542969 7.519531 Z M 40.023438 22.996094 C 39.804688 23.214844 39.566406 23.40625 39.304688 23.566406 C 39.042969 23.730469 38.769531 23.863281 38.476562 23.960938 C 38.1875 24.058594 37.886719 24.125 37.582031 24.15625 C 37.277344 24.1875 36.972656 24.183594 36.664062 24.140625 C 36.359375 24.101562 36.066406 24.027344 35.777344 23.921875 C 35.488281 23.8125 35.21875 23.671875 34.960938 23.503906 C 34.707031 23.332031 34.472656 23.132812 34.261719 22.910156 C 34.050781 22.6875 33.871094 22.441406 33.714844 22.175781 C 33.5625 21.910156 33.441406 21.628906 33.351562 21.335938 C 33.261719 21.039062 33.207031 20.738281 33.183594 20.433594 C 33.164062 20.125 33.179688 19.820312 33.230469 19.519531 C 33.28125 19.214844 33.363281 18.921875 33.480469 18.636719 C 33.597656 18.351562 33.746094 18.085938 33.925781 17.835938 C 34.105469 17.585938 34.308594 17.359375 34.539062 17.15625 C 34.769531 16.953125 35.023438 16.78125 35.292969 16.632812 C 35.566406 16.488281 35.847656 16.375 36.144531 16.296875 C 36.441406 16.21875 36.746094 16.171875 37.050781 16.164062 C 37.359375 16.152344 37.664062 16.175781 37.964844 16.238281 C 38.265625 16.296875 38.558594 16.390625 38.835938 16.515625 C 39.117188 16.644531 39.378906 16.800781 39.625 16.988281 C 39.867188 17.175781 40.085938 17.386719 40.28125 17.625 C 40.476562 17.863281 40.644531 18.121094 40.777344 18.394531 C 40.914062 18.671875 41.015625 18.957031 41.085938 19.257812 C 41.15625 19.558594 41.191406 19.859375 41.191406 20.167969 C 41.195312 21.273438 40.804688 22.21875 40.023438 22.996094 Z M 41.410156 7.546875 L 24.574219 24.382812 C 24.480469 24.480469 24.371094 24.558594 24.25 24.613281 C 24.125 24.667969 23.996094 24.695312 23.859375 24.695312 C 23.726562 24.699219 23.59375 24.671875 23.46875 24.621094 C 23.34375 24.570312 23.234375 24.496094 23.140625 24.402344 C 23.042969 24.308594 22.96875 24.195312 22.917969 24.070312 C 22.867188 23.945312 22.84375 23.816406 22.847656 23.679688 C 22.847656 23.546875 22.875 23.417969 22.929688 23.292969 C 22.984375 23.167969 23.058594 23.0625 23.15625 22.96875 L 39.992188 6.132812 C 40.085938 6.035156 40.195312 5.957031 40.316406 5.902344 C 40.441406 5.851562 40.570312 5.820312 40.707031 5.820312 C 40.839844 5.816406 40.972656 5.84375 41.097656 5.894531 C 41.222656 5.945312 41.332031 6.019531 41.425781 6.113281 C 41.523438 6.207031 41.597656 6.320312 41.648438 6.445312 C 41.699219 6.570312 41.722656 6.699219 41.71875 6.835938 C 41.71875 6.96875 41.691406 7.097656 41.636719 7.222656 C 41.582031 7.347656 41.507812 7.457031 41.410156 7.546875 Z M 41.410156 7.546875 " fill-opacity="1" fill-rule="nonzero"/></g><path fill="#6b6b6b" d="M 29.371094 10.347656 C 29.371094 10.5 29.351562 10.652344 29.316406 10.800781 C 29.28125 10.953125 29.230469 11.097656 29.164062 11.234375 C 29.097656 11.371094 29.011719 11.5 28.917969 11.621094 C 28.820312 11.738281 28.710938 11.84375 28.585938 11.9375 C 28.464844 12.03125 28.335938 12.113281 28.195312 12.175781 C 28.054688 12.238281 27.910156 12.285156 27.757812 12.316406 C 27.609375 12.347656 27.457031 12.359375 27.300781 12.355469 C 27.148438 12.347656 26.996094 12.328125 26.847656 12.285156 C 26.699219 12.246094 26.558594 12.191406 26.421875 12.117188 C 26.285156 12.046875 26.160156 11.960938 26.046875 11.859375 C 25.929688 11.757812 25.828125 11.644531 25.738281 11.519531 C 25.648438 11.394531 25.574219 11.261719 25.515625 11.117188 C 25.457031 10.976562 25.414062 10.828125 25.386719 10.675781 C 25.363281 10.527344 25.355469 10.371094 25.367188 10.21875 C 25.375 10.066406 25.402344 9.914062 25.449219 9.769531 C 25.492188 9.621094 25.554688 9.480469 25.628906 9.347656 C 25.707031 9.214844 25.796875 9.09375 25.902344 8.980469 C 26.007812 8.867188 26.125 8.769531 26.253906 8.683594 C 26.382812 8.597656 26.515625 8.527344 26.660156 8.476562 C 26.804688 8.421875 26.953125 8.382812 27.105469 8.363281 C 27.257812 8.34375 27.410156 8.339844 27.5625 8.355469 C 27.71875 8.371094 27.867188 8.40625 28.011719 8.453125 C 28.15625 8.503906 28.296875 8.570312 28.425781 8.652344 C 28.554688 8.730469 28.675781 8.828125 28.785156 8.9375 C 29.175781 9.324219 29.371094 9.796875 29.371094 10.347656 Z M 29.371094 10.347656 " fill-opacity="1" fill-rule="nonzero"/><path fill="#6b6b6b" d="M 39.1875 20.167969 C 39.1875 20.320312 39.171875 20.472656 39.136719 20.621094 C 39.101562 20.769531 39.050781 20.914062 38.980469 21.050781 C 38.914062 21.1875 38.832031 21.316406 38.734375 21.433594 C 38.636719 21.554688 38.527344 21.660156 38.40625 21.75 C 38.285156 21.84375 38.15625 21.921875 38.015625 21.984375 C 37.875 22.050781 37.730469 22.097656 37.582031 22.125 C 37.429688 22.15625 37.277344 22.167969 37.125 22.164062 C 36.972656 22.15625 36.824219 22.136719 36.675781 22.097656 C 36.527344 22.054688 36.386719 22 36.25 21.929688 C 36.117188 21.855469 35.992188 21.769531 35.875 21.667969 C 35.761719 21.566406 35.65625 21.453125 35.570312 21.328125 C 35.480469 21.207031 35.40625 21.074219 35.347656 20.929688 C 35.289062 20.789062 35.246094 20.644531 35.222656 20.492188 C 35.195312 20.339844 35.191406 20.191406 35.199219 20.035156 C 35.210938 19.882812 35.238281 19.734375 35.28125 19.589844 C 35.324219 19.441406 35.386719 19.300781 35.464844 19.167969 C 35.539062 19.035156 35.628906 18.914062 35.734375 18.804688 C 35.839844 18.691406 35.957031 18.59375 36.082031 18.507812 C 36.210938 18.421875 36.34375 18.351562 36.488281 18.300781 C 36.632812 18.246094 36.78125 18.207031 36.929688 18.1875 C 37.082031 18.167969 37.234375 18.164062 37.386719 18.179688 C 37.539062 18.195312 37.6875 18.226562 37.832031 18.277344 C 37.976562 18.328125 38.117188 18.390625 38.246094 18.472656 C 38.375 18.554688 38.496094 18.648438 38.601562 18.753906 C 38.996094 19.144531 39.191406 19.617188 39.1875 20.167969 Z M 39.1875 20.167969 " fill-opacity="1" fill-rule="nonzero"/></svg>