<svg xmlns="http://www.w3.org/2000/svg" xmlns:xlink="http://www.w3.org/1999/xlink" width="40" zoomAndPan="magnify" viewBox="0 0 30 30.000001" height="40" preserveAspectRatio="xMidYMid meet" version="1.0"><defs><clipPath id="5a560fefdf"><path d="M 0.839844 0.355469 L 29.515625 0.355469 L 29.515625 29.03125 L 0.839844 29.03125 Z M 0.839844 0.355469 " clip-rule="nonzero"/></clipPath></defs><g clip-path="url(#5a560fefdf)"><path fill="#6b6b6b" d="M 29.507812 14.6875 C 29.507812 15.628906 29.414062 16.5625 29.230469 17.484375 C 29.046875 18.410156 28.777344 19.304688 28.417969 20.175781 C 28.054688 21.042969 27.613281 21.871094 27.089844 22.652344 C 26.570312 23.433594 25.972656 24.160156 25.308594 24.824219 C 24.644531 25.492188 23.917969 26.085938 23.136719 26.609375 C 22.355469 27.128906 21.527344 27.570312 20.660156 27.933594 C 19.789062 28.292969 18.890625 28.5625 17.96875 28.746094 C 17.046875 28.929688 16.113281 29.023438 15.171875 29.023438 C 14.230469 29.023438 13.300781 28.929688 12.375 28.746094 C 11.453125 28.5625 10.554688 28.292969 9.6875 27.933594 C 8.816406 27.570312 7.992188 27.128906 7.207031 26.609375 C 6.425781 26.085938 5.703125 25.492188 5.035156 24.824219 C 4.371094 24.160156 3.777344 23.433594 3.253906 22.652344 C 2.730469 21.871094 2.289062 21.042969 1.929688 20.175781 C 1.570312 19.304688 1.296875 18.410156 1.113281 17.484375 C 0.929688 16.5625 0.839844 15.628906 0.839844 14.6875 C 0.839844 13.746094 0.929688 12.816406 1.113281 11.890625 C 1.296875 10.96875 1.570312 10.074219 1.929688 9.203125 C 2.289062 8.332031 2.730469 7.507812 3.253906 6.726562 C 3.777344 5.941406 4.371094 5.21875 5.035156 4.550781 C 5.703125 3.886719 6.425781 3.292969 7.207031 2.769531 C 7.992188 2.246094 8.816406 1.804688 9.6875 1.445312 C 10.554688 1.085938 11.453125 0.8125 12.375 0.628906 C 13.300781 0.445312 14.230469 0.355469 15.171875 0.355469 C 16.113281 0.355469 17.046875 0.445312 17.96875 0.628906 C 18.890625 0.8125 19.789062 1.085938 20.660156 1.445312 C 21.527344 1.804688 22.355469 2.246094 23.136719 2.769531 C 23.917969 3.292969 24.644531 3.886719 25.308594 4.550781 C 25.972656 5.21875 26.570312 5.941406 27.089844 6.726562 C 27.613281 7.507812 28.054688 8.332031 28.417969 9.203125 C 28.777344 10.074219 29.046875 10.96875 29.230469 11.890625 C 29.414062 12.816406 29.507812 13.746094 29.507812 14.6875 Z M 29.507812 14.6875 " fill-opacity="1" fill-rule="nonzero"/></g><path fill="#ffffff" d="M 18.804688 18.167969 C 18.679688 18.167969 18.578125 18.0625 18.578125 17.9375 L 18.578125 10.550781 C 18.578125 10.425781 18.679688 10.320312 18.804688 10.320312 L 22.054688 10.320312 C 22.144531 10.320312 22.226562 10.375 22.261719 10.460938 L 24.246094 15.007812 C 24.257812 15.035156 24.265625 15.066406 24.265625 15.097656 L 24.265625 16.621094 C 24.265625 16.746094 24.160156 16.847656 24.035156 16.847656 C 23.910156 16.847656 23.804688 16.746094 23.804688 16.621094 L 23.804688 15.144531 L 21.902344 10.78125 L 19.035156 10.78125 L 19.035156 17.9375 C 19.035156 18.0625 18.933594 18.167969 18.804688 18.167969 Z M 18.804688 18.167969 " fill-opacity="1" fill-rule="nonzero"/><path fill="#ffffff" d="M 8.742188 18.835938 L 7.417969 18.835938 C 7.292969 18.835938 7.191406 18.730469 7.191406 18.605469 C 7.191406 18.480469 7.292969 18.375 7.417969 18.375 L 8.742188 18.375 C 8.867188 18.375 8.972656 18.480469 8.972656 18.605469 C 8.972656 18.730469 8.867188 18.835938 8.742188 18.835938 Z M 8.742188 18.835938 " fill-opacity="1" fill-rule="nonzero"/><path fill="#ffffff" d="M 7.417969 18.835938 L 6.640625 18.835938 C 5.945312 18.835938 5.378906 18.269531 5.378906 17.574219 C 5.378906 17.234375 5.507812 16.917969 5.746094 16.679688 C 5.984375 16.441406 6.300781 16.308594 6.640625 16.308594 L 7.378906 16.308594 C 7.503906 16.308594 7.605469 16.410156 7.605469 16.535156 L 7.648438 18.601562 C 7.648438 18.664062 7.625 18.722656 7.582031 18.765625 C 7.539062 18.808594 7.480469 18.835938 7.417969 18.835938 Z M 6.640625 16.769531 C 6.425781 16.769531 6.222656 16.851562 6.070312 17.003906 C 5.917969 17.15625 5.835938 17.359375 5.835938 17.574219 C 5.835938 18.015625 6.195312 18.375 6.640625 18.375 L 7.1875 18.375 L 7.152344 16.769531 Z M 6.640625 16.769531 " fill-opacity="1" fill-rule="nonzero"/><path fill="#ffffff" d="M 22.726562 18.835938 L 21.53125 18.835938 C 21.40625 18.835938 21.304688 18.730469 21.304688 18.605469 C 21.304688 18.480469 21.40625 18.375 21.53125 18.375 L 22.726562 18.375 C 22.855469 18.375 22.957031 18.480469 22.957031 18.605469 C 22.957031 18.730469 22.855469 18.835938 22.726562 18.835938 Z M 22.726562 18.835938 " fill-opacity="1" fill-rule="nonzero"/><path fill="#ffffff" d="M 23.632812 18.835938 L 22.726562 18.835938 C 22.601562 18.835938 22.5 18.730469 22.5 18.605469 L 22.5 16.539062 C 22.5 16.414062 22.601562 16.308594 22.726562 16.308594 L 23.632812 16.308594 C 23.804688 16.308594 23.96875 16.34375 24.125 16.410156 C 24.59375 16.605469 24.898438 17.0625 24.898438 17.574219 C 24.898438 17.910156 24.765625 18.226562 24.527344 18.464844 C 24.289062 18.703125 23.972656 18.835938 23.632812 18.835938 Z M 22.957031 18.375 L 23.632812 18.375 C 23.847656 18.375 24.050781 18.292969 24.203125 18.140625 C 24.355469 17.988281 24.4375 17.789062 24.4375 17.574219 C 24.4375 17.25 24.246094 16.957031 23.945312 16.832031 C 23.847656 16.789062 23.742188 16.769531 23.632812 16.769531 L 22.957031 16.769531 Z M 22.957031 18.375 " fill-opacity="1" fill-rule="nonzero"/><path fill="#ffffff" d="M 18.332031 18.835938 L 11.871094 18.835938 C 11.742188 18.835938 11.640625 18.730469 11.640625 18.605469 C 11.640625 18.480469 11.742188 18.375 11.871094 18.375 L 18.332031 18.375 C 18.457031 18.375 18.558594 18.480469 18.558594 18.605469 C 18.558594 18.730469 18.457031 18.835938 18.332031 18.835938 Z M 18.332031 18.835938 " fill-opacity="1" fill-rule="nonzero"/><path fill="#ffffff" d="M 17.921875 15.929688 L 6.113281 15.929688 C 5.984375 15.929688 5.882812 15.828125 5.882812 15.703125 L 5.882812 9.917969 C 5.882812 9.792969 5.984375 9.6875 6.113281 9.6875 L 17.921875 9.6875 C 18.046875 9.6875 18.148438 9.792969 18.148438 9.917969 L 18.148438 15.703125 C 18.148438 15.828125 18.046875 15.929688 17.921875 15.929688 Z M 6.34375 15.472656 L 17.691406 15.472656 L 17.691406 10.148438 L 6.34375 10.148438 Z M 6.34375 15.472656 " fill-opacity="1" fill-rule="nonzero"/><path fill="#ffffff" d="M 6.113281 16.914062 C 5.984375 16.914062 5.882812 16.8125 5.882812 16.683594 L 5.882812 15.703125 C 5.882812 15.574219 5.984375 15.472656 6.113281 15.472656 C 6.238281 15.472656 6.339844 15.574219 6.339844 15.703125 L 6.339844 16.683594 C 6.339844 16.8125 6.238281 16.914062 6.113281 16.914062 Z M 6.113281 16.914062 " fill-opacity="1" fill-rule="nonzero"/><path fill="#ffffff" d="M 10.304688 20.957031 C 9.277344 20.957031 8.441406 20.121094 8.441406 19.089844 C 8.441406 18.0625 9.277344 17.222656 10.304688 17.222656 C 11.335938 17.222656 12.171875 18.0625 12.171875 19.089844 C 12.171875 20.121094 11.335938 20.957031 10.304688 20.957031 Z M 10.304688 17.683594 C 9.53125 17.683594 8.898438 18.3125 8.898438 19.089844 C 8.898438 19.867188 9.53125 20.496094 10.304688 20.496094 C 11.082031 20.496094 11.714844 19.867188 11.714844 19.089844 C 11.714844 18.3125 11.082031 17.683594 10.304688 17.683594 Z M 10.304688 17.683594 " fill-opacity="1" fill-rule="nonzero"/><path fill="#ffffff" d="M 19.96875 20.957031 C 18.9375 20.957031 18.101562 20.121094 18.101562 19.089844 C 18.101562 18.0625 18.9375 17.222656 19.96875 17.222656 C 20.996094 17.222656 21.835938 18.0625 21.835938 19.089844 C 21.835938 20.121094 20.996094 20.957031 19.96875 20.957031 Z M 19.96875 17.683594 C 19.191406 17.683594 18.558594 18.3125 18.558594 19.089844 C 18.558594 19.867188 19.191406 20.496094 19.96875 20.496094 C 20.742188 20.496094 21.375 19.867188 21.375 19.089844 C 21.375 18.3125 20.742188 17.683594 19.96875 17.683594 Z M 19.96875 17.683594 " fill-opacity="1" fill-rule="nonzero"/><path fill="#ffffff" d="M 10.304688 20 C 9.804688 20 9.398438 19.589844 9.398438 19.089844 C 9.398438 18.589844 9.804688 18.179688 10.304688 18.179688 C 10.808594 18.179688 11.214844 18.589844 11.214844 19.089844 C 11.214844 19.589844 10.808594 20 10.304688 20 Z M 10.304688 18.640625 C 10.058594 18.640625 9.855469 18.84375 9.855469 19.089844 C 9.855469 19.339844 10.058594 19.539062 10.304688 19.539062 C 10.554688 19.539062 10.757812 19.339844 10.757812 19.089844 C 10.757812 18.84375 10.554688 18.640625 10.304688 18.640625 Z M 10.304688 18.640625 " fill-opacity="1" fill-rule="nonzero"/><path fill="#ffffff" d="M 19.96875 20 C 19.464844 20 19.058594 19.589844 19.058594 19.089844 C 19.058594 18.589844 19.464844 18.179688 19.96875 18.179688 C 20.46875 18.179688 20.875 18.589844 20.875 19.089844 C 20.875 19.589844 20.46875 20 19.96875 20 Z M 19.96875 18.640625 C 19.71875 18.640625 19.519531 18.84375 19.519531 19.089844 C 19.519531 19.339844 19.71875 19.539062 19.96875 19.539062 C 20.214844 19.539062 20.417969 19.339844 20.417969 19.089844 C 20.417969 18.84375 20.214844 18.640625 19.96875 18.640625 Z M 19.96875 18.640625 " fill-opacity="1" fill-rule="nonzero"/><path fill="#ffffff" d="M 18.804688 11.578125 L 17.921875 11.578125 C 17.792969 11.578125 17.691406 11.472656 17.691406 11.347656 C 17.691406 11.21875 17.792969 11.117188 17.921875 11.117188 L 18.804688 11.117188 C 18.933594 11.117188 19.035156 11.21875 19.035156 11.347656 C 19.035156 11.472656 18.933594 11.578125 18.804688 11.578125 Z M 18.804688 11.578125 " fill-opacity="1" fill-rule="nonzero"/><path fill="#ffffff" d="M 18.804688 13.039062 L 17.921875 13.039062 C 17.792969 13.039062 17.691406 12.9375 17.691406 12.808594 C 17.691406 12.683594 17.792969 12.582031 17.921875 12.582031 L 18.804688 12.582031 C 18.933594 12.582031 19.035156 12.683594 19.035156 12.808594 C 19.035156 12.9375 18.933594 13.039062 18.804688 13.039062 Z M 18.804688 13.039062 " fill-opacity="1" fill-rule="nonzero"/><path fill="#ffffff" d="M 18.804688 14.503906 L 17.921875 14.503906 C 17.792969 14.503906 17.691406 14.402344 17.691406 14.273438 C 17.691406 14.148438 17.792969 14.042969 17.921875 14.042969 L 18.804688 14.042969 C 18.933594 14.042969 19.035156 14.148438 19.035156 14.273438 C 19.035156 14.402344 18.933594 14.503906 18.804688 14.503906 Z M 18.804688 14.503906 " fill-opacity="1" fill-rule="nonzero"/><path fill="#ffffff" d="M 11.335938 14.1875 C 11.273438 14.1875 11.214844 14.164062 11.171875 14.121094 L 10.238281 13.1875 C 10.148438 13.097656 10.148438 12.949219 10.238281 12.863281 C 10.324219 12.773438 10.472656 12.773438 10.5625 12.863281 L 11.335938 13.636719 L 13.472656 11.5 C 13.5625 11.410156 13.707031 11.410156 13.796875 11.5 C 13.886719 11.589844 13.886719 11.734375 13.796875 11.824219 L 11.496094 14.121094 C 11.453125 14.164062 11.394531 14.1875 11.335938 14.1875 Z M 11.335938 14.1875 " fill-opacity="1" fill-rule="nonzero"/><path fill="#ffffff" d="M 24.027344 15.308594 L 19.96875 15.308594 C 19.839844 15.308594 19.738281 15.207031 19.738281 15.082031 L 19.738281 11.660156 C 19.738281 11.535156 19.839844 11.429688 19.96875 11.429688 C 20.09375 11.429688 20.199219 11.535156 20.199219 11.660156 L 20.199219 14.851562 L 24.027344 14.851562 C 24.152344 14.851562 24.257812 14.953125 24.257812 15.082031 C 24.257812 15.207031 24.152344 15.308594 24.027344 15.308594 Z M 24.027344 15.308594 " fill-opacity="1" fill-rule="nonzero"/><path fill="#ffffff" d="M 18.804688 16.769531 L 7.378906 16.769531 C 7.25 16.769531 7.148438 16.664062 7.148438 16.539062 C 7.148438 16.414062 7.25 16.308594 7.378906 16.308594 L 18.804688 16.308594 C 18.933594 16.308594 19.035156 16.414062 19.035156 16.539062 C 19.035156 16.664062 18.933594 16.769531 18.804688 16.769531 Z M 18.804688 16.769531 " fill-opacity="1" fill-rule="nonzero"/><path fill="#ffffff" d="M 11.871094 11.273438 L 6.113281 11.273438 C 5.984375 11.273438 5.882812 11.171875 5.882812 11.046875 C 5.882812 10.917969 5.984375 10.816406 6.113281 10.816406 L 11.871094 10.816406 C 11.996094 10.816406 12.097656 10.917969 12.097656 11.046875 C 12.097656 11.171875 11.996094 11.273438 11.871094 11.273438 Z M 11.871094 11.273438 " fill-opacity="1" fill-rule="nonzero"/><path fill="#ffffff" d="M 17.921875 10.148438 L 6.113281 10.148438 C 5.984375 10.148438 5.882812 10.046875 5.882812 9.917969 L 5.882812 8.625 C 5.882812 8.5 5.984375 8.398438 6.113281 8.398438 L 17.921875 8.398438 C 18.046875 8.398438 18.148438 8.5 18.148438 8.625 L 18.148438 9.917969 C 18.148438 10.046875 18.046875 10.148438 17.921875 10.148438 Z M 6.339844 9.6875 L 17.691406 9.6875 L 17.691406 8.855469 L 6.339844 8.855469 Z M 6.339844 9.6875 " fill-opacity="1" fill-rule="nonzero"/></svg>