<svg xmlns="http://www.w3.org/2000/svg" xmlns:xlink="http://www.w3.org/1999/xlink" width="40" zoomAndPan="magnify" viewBox="0 0 30 30.750001" height="41" preserveAspectRatio="xMidYMid meet" version="1.0"><defs><clipPath id="5b582048fb"><path d="M 0.121094 0 L 29.878906 0 L 29.878906 30.503906 L 0.121094 30.503906 Z M 0.121094 0 " clip-rule="nonzero"/></clipPath></defs><path fill="#6b6b6b" d="M 15.03125 7.191406 C 10.589844 7.191406 6.976562 10.804688 6.976562 15.246094 C 6.976562 19.691406 10.589844 23.304688 15.03125 23.304688 C 19.472656 23.304688 23.089844 19.691406 23.089844 15.246094 C 23.089844 10.804688 19.472656 7.191406 15.03125 7.191406 Z M 19.246094 13.195312 L 14.769531 17.671875 C 14.421875 18.019531 13.851562 18.019531 13.503906 17.671875 L 10.816406 14.984375 C 10.46875 14.636719 10.46875 14.070312 10.816406 13.71875 C 11.167969 13.371094 11.734375 13.371094 12.085938 13.71875 L 14.136719 15.773438 L 17.980469 11.929688 C 18.328125 11.578125 18.894531 11.578125 19.246094 11.929688 C 19.59375 12.277344 19.59375 12.847656 19.246094 13.195312 Z M 19.246094 13.195312 " fill-opacity="1" fill-rule="nonzero"/><g clip-path="url(#5b582048fb)"><path fill="#6b6b6b" d="M 29.132812 15.246094 L 29.867188 12.277344 C 29.9375 12 29.871094 11.707031 29.6875 11.488281 L 27.738281 9.128906 L 27.105469 6.132812 C 27.046875 5.855469 26.863281 5.621094 26.605469 5.503906 L 23.824219 4.222656 L 21.957031 1.796875 C 21.789062 1.574219 21.527344 1.445312 21.25 1.445312 C 21.097656 1.445312 22.042969 1.429688 18.171875 1.5 L 15.433594 0.125 C 15.179688 0 14.882812 0 14.628906 0.125 L 11.894531 1.5 L 8.832031 1.445312 C 8.53125 1.441406 8.269531 1.582031 8.105469 1.796875 L 6.242188 4.222656 L 3.460938 5.503906 C 3.203125 5.621094 3.015625 5.855469 2.957031 6.132812 L 2.324219 9.128906 L 0.375 11.492188 C 0.195312 11.707031 0.128906 12 0.195312 12.277344 L 0.933594 15.246094 L 0.195312 18.21875 C 0.128906 18.496094 0.195312 18.789062 0.375 19.003906 L 2.324219 21.367188 L 2.957031 24.363281 C 3.015625 24.640625 3.203125 24.875 3.460938 24.992188 L 6.242188 26.273438 L 8.105469 28.699219 C 8.273438 28.921875 8.539062 29.050781 8.816406 29.050781 C 8.96875 29.050781 8.019531 29.066406 11.894531 28.996094 L 14.628906 30.371094 C 14.882812 30.5 15.183594 30.496094 15.433594 30.371094 L 18.171875 28.996094 L 21.230469 29.050781 C 21.53125 29.054688 21.792969 28.914062 21.957031 28.699219 L 23.824219 26.273438 L 26.605469 24.992188 C 26.863281 24.875 27.046875 24.640625 27.105469 24.363281 L 27.738281 21.367188 L 29.6875 19.003906 C 29.871094 18.789062 29.9375 18.496094 29.867188 18.21875 Z M 15.03125 25.09375 C 9.601562 25.09375 5.183594 20.675781 5.183594 15.246094 C 5.183594 9.816406 9.601562 5.402344 15.03125 5.402344 C 20.460938 5.402344 24.878906 9.816406 24.878906 15.246094 C 24.878906 20.675781 20.460938 25.09375 15.03125 25.09375 Z M 15.03125 25.09375 " fill-opacity="1" fill-rule="nonzero"/></g></svg>