<svg xmlns="http://www.w3.org/2000/svg" xmlns:xlink="http://www.w3.org/1999/xlink" width="40" zoomAndPan="magnify" viewBox="0 0 30 40.499999" height="54" preserveAspectRatio="xMidYMid meet" version="1.0"><defs><clipPath id="eaebe27300"><path d="M 0.183594 0 L 29.816406 0 L 29.816406 40 L 0.183594 40 Z M 0.183594 0 " clip-rule="nonzero"/></clipPath></defs><g clip-path="url(#eaebe27300)"><path fill="#a6a6a6" d="M 6.503906 15.390625 C 6.503906 9.140625 10.308594 4.054688 14.984375 4.054688 C 19.660156 4.054688 23.460938 9.140625 23.460938 15.390625 Z M 11.863281 32.101562 L 12.226562 30.347656 L 13.007812 26.550781 C 12.957031 26.492188 12.910156 26.429688 12.863281 26.367188 C 12.570312 25.945312 12.398438 25.433594 12.398438 24.882812 C 12.398438 23.453125 13.554688 22.296875 14.984375 22.296875 C 16.410156 22.296875 17.570312 23.453125 17.570312 24.882812 C 17.570312 25.433594 17.394531 25.945312 17.101562 26.367188 C 17.054688 26.429688 17.007812 26.492188 16.957031 26.550781 L 17.738281 30.347656 L 18.101562 32.101562 Z M 27.527344 15.390625 L 26.789062 15.390625 C 26.789062 6.910156 21.492188 0.0078125 14.984375 0.0078125 C 8.472656 0.0078125 3.175781 6.910156 3.175781 15.390625 L 2.441406 15.390625 C 1.195312 15.390625 0.183594 16.398438 0.183594 17.644531 L 0.183594 37.742188 C 0.183594 38.988281 1.195312 40 2.441406 40 L 27.527344 40 C 28.769531 40 29.78125 38.988281 29.78125 37.742188 L 29.78125 17.644531 C 29.78125 16.398438 28.769531 15.390625 27.527344 15.390625 " fill-opacity="1" fill-rule="nonzero"/></g></svg>