<svg xmlns="http://www.w3.org/2000/svg" xmlns:xlink="http://www.w3.org/1999/xlink" width="46" zoomAndPan="magnify" viewBox="0 0 34.5 30.000001" height="40" preserveAspectRatio="xMidYMid meet" version="1.0"><defs><clipPath id="15514c5816"><path d="M 5.253906 18.210938 L 7.375 18.210938 L 7.375 29.03125 L 5.253906 29.03125 Z M 5.253906 18.210938 " clip-rule="nonzero"/></clipPath><clipPath id="831a822689"><path d="M 12.238281 16.445312 L 14.359375 16.445312 L 14.359375 29.03125 L 12.238281 29.03125 Z M 12.238281 16.445312 " clip-rule="nonzero"/></clipPath><clipPath id="5c375343c4"><path d="M 19.222656 13.613281 L 21.34375 13.613281 L 21.34375 29.03125 L 19.222656 29.03125 Z M 19.222656 13.613281 " clip-rule="nonzero"/></clipPath><clipPath id="1f54605b71"><path d="M 26.207031 9.902344 L 28.328125 9.902344 L 28.328125 29.03125 L 26.207031 29.03125 Z M 26.207031 9.902344 " clip-rule="nonzero"/></clipPath><clipPath id="50d95e89ba"><path d="M 0.316406 0 L 33.703125 0 L 33.703125 18 L 0.316406 18 Z M 0.316406 0 " clip-rule="nonzero"/></clipPath><clipPath id="c80eaf921c"><path d="M 23.464844 0 L 33.488281 0 L 33.488281 9.988281 L 23.464844 9.988281 Z M 23.464844 0 " clip-rule="nonzero"/></clipPath></defs><g clip-path="url(#15514c5816)"><path fill="#ffffff" d="M 7.332031 19.253906 L 7.332031 28.015625 C 7.332031 28.578125 6.878906 29.03125 6.316406 29.03125 C 5.753906 29.03125 5.296875 28.578125 5.296875 28.015625 L 5.296875 19.253906 C 5.296875 18.691406 5.753906 18.234375 6.316406 18.234375 C 6.878906 18.234375 7.332031 18.691406 7.332031 19.253906 " fill-opacity="1" fill-rule="evenodd"/></g><g clip-path="url(#831a822689)"><path fill="#ffffff" d="M 14.332031 17.492188 L 14.332031 28.015625 C 14.332031 28.578125 13.875 29.03125 13.3125 29.03125 C 12.75 29.03125 12.292969 28.578125 12.292969 28.015625 L 12.292969 17.492188 C 12.292969 16.929688 12.75 16.472656 13.3125 16.472656 C 13.875 16.472656 14.332031 16.929688 14.332031 17.492188 " fill-opacity="1" fill-rule="evenodd"/></g><g clip-path="url(#5c375343c4)"><path fill="#ffffff" d="M 21.328125 14.667969 L 21.328125 28.015625 C 21.328125 28.578125 20.871094 29.03125 20.3125 29.03125 C 19.75 29.03125 19.292969 28.578125 19.292969 28.015625 L 19.292969 14.667969 C 19.292969 14.105469 19.75 13.648438 20.3125 13.648438 C 20.871094 13.648438 21.328125 14.105469 21.328125 14.667969 " fill-opacity="1" fill-rule="evenodd"/></g><g clip-path="url(#1f54605b71)"><path fill="#ffffff" d="M 28.328125 10.984375 L 28.328125 28.015625 C 28.328125 28.578125 27.871094 29.03125 27.308594 29.03125 C 26.746094 29.03125 26.289062 28.578125 26.289062 28.015625 L 26.289062 10.984375 C 26.289062 10.421875 26.746094 9.964844 27.308594 9.964844 C 27.871094 9.964844 28.328125 10.421875 28.328125 10.984375 " fill-opacity="1" fill-rule="evenodd"/></g><g clip-path="url(#50d95e89ba)"><path fill="#ffffff" d="M 1.363281 17.121094 C 0.804688 17.097656 0.367188 16.621094 0.390625 16.0625 C 0.417969 15.503906 0.890625 15.066406 1.453125 15.089844 C 2.375 15.128906 3.351562 15.074219 4.265625 14.996094 C 6.695312 14.785156 9.128906 14.308594 11.464844 13.625 C 19.339844 11.328125 26.117188 6.746094 31.441406 0.527344 C 31.804688 0.101562 32.453125 0.0507812 32.875 0.414062 C 33.300781 0.777344 33.351562 1.425781 32.988281 1.847656 C 27.40625 8.371094 20.292969 13.164062 12.039062 15.570312 C 9.570312 16.289062 7 16.796875 4.433594 17.019531 C 3.695312 17.082031 2.953125 17.125 2.210938 17.132812 C 1.929688 17.136719 1.644531 17.136719 1.363281 17.121094 " fill-opacity="1" fill-rule="evenodd"/></g><g clip-path="url(#c80eaf921c)"><path fill="#ffffff" d="M 24.023438 0 C 23.742188 0 23.515625 0.230469 23.515625 0.507812 C 23.515625 0.859375 32.921875 9.972656 32.980469 9.972656 C 33.257812 9.972656 33.488281 9.746094 33.488281 9.464844 L 33.488281 0.554688 C 33.488281 0.539062 33.488281 0.523438 33.488281 0.507812 C 33.488281 0.226562 33.261719 0 32.980469 0 L 24.023438 0 " fill-opacity="1" fill-rule="nonzero"/></g></svg>