<svg xmlns="http://www.w3.org/2000/svg" xmlns:xlink="http://www.w3.org/1999/xlink" width="518" zoomAndPan="magnify" viewBox="0 0 388.5 388.499997" height="518" preserveAspectRatio="xMidYMid meet" version="1.0"><path fill="#f10505" d="M 388 194 C 388 197.175781 387.921875 200.347656 387.765625 203.519531 C 387.609375 206.691406 387.378906 209.855469 387.066406 213.015625 C 386.753906 216.175781 386.367188 219.324219 385.902344 222.464844 C 385.433594 225.605469 384.890625 228.734375 384.273438 231.847656 C 383.652344 234.960938 382.957031 238.058594 382.1875 241.136719 C 381.414062 244.21875 380.570312 247.277344 379.648438 250.316406 C 378.726562 253.355469 377.730469 256.367188 376.660156 259.355469 C 375.589844 262.347656 374.449219 265.308594 373.234375 268.242188 C 372.019531 271.175781 370.730469 274.074219 369.375 276.945312 C 368.015625 279.816406 366.589844 282.652344 365.09375 285.453125 C 363.597656 288.25 362.03125 291.011719 360.398438 293.738281 C 358.769531 296.460938 357.070312 299.140625 355.304688 301.78125 C 353.542969 304.421875 351.714844 307.015625 349.824219 309.566406 C 347.929688 312.117188 345.980469 314.617188 343.964844 317.074219 C 341.949219 319.527344 339.878906 321.929688 337.746094 324.28125 C 335.613281 326.636719 333.425781 328.933594 331.179688 331.179688 C 328.933594 333.425781 326.636719 335.613281 324.28125 337.746094 C 321.929688 339.878906 319.527344 341.949219 317.074219 343.964844 C 314.617188 345.980469 312.117188 347.929688 309.566406 349.824219 C 307.015625 351.714844 304.421875 353.542969 301.78125 355.304688 C 299.140625 357.070312 296.460938 358.769531 293.738281 360.398438 C 291.011719 362.03125 288.25 363.597656 285.453125 365.09375 C 282.652344 366.589844 279.816406 368.015625 276.945312 369.375 C 274.074219 370.730469 271.175781 372.019531 268.242188 373.234375 C 265.308594 374.449219 262.347656 375.589844 259.355469 376.660156 C 256.367188 377.730469 253.355469 378.726562 250.316406 379.648438 C 247.277344 380.570312 244.21875 381.414062 241.136719 382.1875 C 238.058594 382.957031 234.960938 383.652344 231.847656 384.273438 C 228.734375 384.890625 225.605469 385.433594 222.464844 385.902344 C 219.324219 386.367188 216.175781 386.753906 213.015625 387.066406 C 209.855469 387.378906 206.691406 387.609375 203.519531 387.765625 C 200.347656 387.921875 197.175781 388 194 388 C 190.824219 388 187.652344 387.921875 184.480469 387.765625 C 181.308594 387.609375 178.144531 387.378906 174.984375 387.066406 C 171.824219 386.753906 168.675781 386.367188 165.535156 385.902344 C 162.394531 385.433594 159.265625 384.890625 156.152344 384.273438 C 153.039062 383.652344 149.941406 382.957031 146.863281 382.1875 C 143.78125 381.414062 140.722656 380.570312 137.683594 379.648438 C 134.648438 378.726562 131.632812 377.730469 128.644531 376.660156 C 125.652344 375.589844 122.691406 374.449219 119.757812 373.234375 C 116.828125 372.019531 113.925781 370.730469 111.054688 369.375 C 108.183594 368.015625 105.347656 366.589844 102.550781 365.09375 C 99.75 363.597656 96.988281 362.03125 94.265625 360.398438 C 91.539062 358.769531 88.859375 357.070312 86.21875 355.304688 C 83.578125 353.542969 80.984375 351.714844 78.433594 349.824219 C 75.882812 347.929688 73.382812 345.980469 70.929688 343.964844 C 68.472656 341.949219 66.070312 339.878906 63.71875 337.746094 C 61.363281 335.613281 59.066406 333.425781 56.820312 331.179688 C 54.578125 328.933594 52.386719 326.636719 50.253906 324.28125 C 48.125 321.929688 46.050781 319.527344 44.035156 317.074219 C 42.023438 314.617188 40.070312 312.117188 38.179688 309.566406 C 36.285156 307.015625 34.457031 304.421875 32.695312 301.78125 C 30.929688 299.140625 29.234375 296.460938 27.601562 293.738281 C 25.96875 291.011719 24.402344 288.25 22.90625 285.453125 C 21.410156 282.652344 19.984375 279.816406 18.625 276.945312 C 17.269531 274.074219 15.980469 271.175781 14.765625 268.242188 C 13.550781 265.308594 12.410156 262.347656 11.339844 259.355469 C 10.269531 256.367188 9.273438 253.355469 8.355469 250.316406 C 7.433594 247.277344 6.585938 244.21875 5.8125 241.136719 C 5.042969 238.058594 4.347656 234.960938 3.726562 231.847656 C 3.109375 228.734375 2.566406 225.605469 2.101562 222.464844 C 1.632812 219.324219 1.246094 216.175781 0.933594 213.015625 C 0.621094 209.855469 0.390625 206.691406 0.234375 203.519531 C 0.078125 200.347656 0 197.175781 0 194 C 0 190.824219 0.078125 187.652344 0.234375 184.480469 C 0.390625 181.308594 0.621094 178.144531 0.933594 174.984375 C 1.246094 171.824219 1.632812 168.675781 2.101562 165.535156 C 2.566406 162.394531 3.109375 159.265625 3.726562 156.152344 C 4.347656 153.039062 5.042969 149.941406 5.8125 146.863281 C 6.585938 143.78125 7.433594 140.722656 8.355469 137.683594 C 9.273438 134.648438 10.269531 131.632812 11.339844 128.644531 C 12.410156 125.652344 13.550781 122.691406 14.765625 119.757812 C 15.980469 116.828125 17.269531 113.925781 18.625 111.054688 C 19.984375 108.183594 21.410156 105.347656 22.90625 102.550781 C 24.402344 99.75 25.96875 96.988281 27.601562 94.265625 C 29.234375 91.539062 30.929688 88.859375 32.695312 86.21875 C 34.457031 83.578125 36.285156 80.984375 38.179688 78.433594 C 40.070312 75.882812 42.023438 73.382812 44.035156 70.929688 C 46.050781 68.472656 48.125 66.070312 50.253906 63.71875 C 52.386719 61.363281 54.578125 59.066406 56.820312 56.820312 C 59.066406 54.578125 61.363281 52.386719 63.71875 50.253906 C 66.070312 48.125 68.472656 46.050781 70.929688 44.035156 C 73.382812 42.023438 75.882812 40.070312 78.433594 38.179688 C 80.984375 36.285156 83.578125 34.457031 86.21875 32.695312 C 88.859375 30.929688 91.539062 29.234375 94.265625 27.601562 C 96.988281 25.96875 99.75 24.402344 102.550781 22.90625 C 105.347656 21.410156 108.183594 19.984375 111.054688 18.625 C 113.925781 17.269531 116.828125 15.980469 119.757812 14.765625 C 122.691406 13.550781 125.652344 12.410156 128.644531 11.339844 C 131.632812 10.269531 134.648438 9.273438 137.683594 8.355469 C 140.722656 7.433594 143.78125 6.585938 146.863281 5.8125 C 149.941406 5.042969 153.039062 4.347656 156.152344 3.726562 C 159.265625 3.109375 162.394531 2.566406 165.535156 2.101562 C 168.675781 1.632812 171.824219 1.246094 174.984375 0.933594 C 178.144531 0.621094 181.308594 0.390625 184.480469 0.234375 C 187.652344 0.078125 190.824219 0 194 0 C 197.175781 0 200.347656 0.078125 203.519531 0.234375 C 206.691406 0.390625 209.855469 0.621094 213.015625 0.933594 C 216.175781 1.246094 219.324219 1.632812 222.464844 2.101562 C 225.605469 2.566406 228.734375 3.109375 231.847656 3.726562 C 234.960938 4.347656 238.058594 5.042969 241.136719 5.8125 C 244.21875 6.585938 247.277344 7.433594 250.316406 8.355469 C 253.355469 9.273438 256.367188 10.269531 259.355469 11.339844 C 262.347656 12.410156 265.308594 13.550781 268.242188 14.765625 C 271.175781 15.980469 274.074219 17.269531 276.945312 18.625 C 279.816406 19.984375 282.652344 21.410156 285.453125 22.90625 C 288.25 24.402344 291.011719 25.96875 293.738281 27.601562 C 296.460938 29.234375 299.140625 30.929688 301.78125 32.695312 C 304.421875 34.457031 307.015625 36.285156 309.566406 38.179688 C 312.117188 40.070312 314.617188 42.023438 317.074219 44.035156 C 319.527344 46.050781 321.929688 48.125 324.28125 50.253906 C 326.636719 52.386719 328.933594 54.578125 331.179688 56.820312 C 333.425781 59.066406 335.613281 61.363281 337.746094 63.71875 C 339.878906 66.070312 341.949219 68.472656 343.964844 70.929688 C 345.980469 73.382812 347.929688 75.882812 349.824219 78.433594 C 351.714844 80.984375 353.542969 83.578125 355.304688 86.21875 C 357.070312 88.859375 358.769531 91.539062 360.398438 94.265625 C 362.03125 96.988281 363.597656 99.75 365.09375 102.550781 C 366.589844 105.347656 368.015625 108.183594 369.375 111.054688 C 370.730469 113.925781 372.019531 116.828125 373.234375 119.757812 C 374.449219 122.691406 375.589844 125.652344 376.660156 128.644531 C 377.730469 131.632812 378.726562 134.648438 379.648438 137.683594 C 380.570312 140.722656 381.414062 143.78125 382.1875 146.863281 C 382.957031 149.941406 383.652344 153.039062 384.273438 156.152344 C 384.890625 159.265625 385.433594 162.394531 385.902344 165.535156 C 386.367188 168.675781 386.753906 171.824219 387.066406 174.984375 C 387.378906 178.144531 387.609375 181.308594 387.765625 184.480469 C 387.921875 187.652344 388 190.824219 388 194 Z M 388 194 " fill-opacity="1" fill-rule="nonzero"/><path fill="#ffffff" d="M 112.601562 87.460938 L 112.601562 89.5625 L 121.25 89.5625 C 127.472656 89.5625 132.648438 94.65625 132.648438 100.960938 C 132.648438 107.265625 127.554688 112.359375 121.25 112.359375 L 112.601562 112.359375 L 112.601562 136.042969 L 121.25 136.042969 C 127.472656 136.042969 132.648438 141.136719 132.648438 147.441406 C 132.648438 147.601562 132.648438 147.84375 132.648438 148.007812 C 132.648438 148.167969 132.648438 148.410156 132.566406 148.570312 C 132.566406 148.734375 132.484375 148.894531 132.484375 149.058594 C 132.484375 149.21875 132.40625 149.300781 132.40625 149.460938 C 132.40625 149.542969 132.324219 149.621094 132.324219 149.785156 C 132.242188 149.945312 132.242188 150.109375 132.242188 150.351562 C 132.164062 150.511719 132.164062 150.671875 132.082031 150.917969 C 132 151.078125 132 151.238281 131.921875 151.402344 C 131.757812 151.804688 131.597656 152.128906 131.433594 152.53125 C 131.355469 152.695312 131.273438 152.855469 131.191406 153.019531 C 131.03125 153.339844 130.871094 153.582031 130.625 153.90625 C 130.546875 154.070312 130.464844 154.230469 130.304688 154.3125 C 130.0625 154.632812 129.820312 154.957031 129.496094 155.199219 C 129.332031 155.363281 129.171875 155.523438 129.011719 155.683594 C 128.847656 155.847656 128.6875 156.007812 128.605469 156.089844 C 128.523438 156.171875 128.523438 156.171875 128.523438 156.171875 C 128.363281 156.332031 128.203125 156.492188 128.039062 156.574219 C 127.878906 156.734375 127.636719 156.898438 127.472656 156.980469 C 127.152344 157.140625 126.828125 157.382812 126.585938 157.542969 C 125.9375 157.867188 125.292969 158.191406 124.5625 158.433594 C 123.511719 158.757812 122.382812 159 121.167969 159 L 112.4375 159 L 112.4375 182.683594 L 121.25 182.683594 C 127.472656 182.683594 132.648438 187.777344 132.648438 194.082031 C 132.648438 200.304688 127.554688 205.480469 121.25 205.480469 L 112.601562 205.480469 L 112.601562 229.164062 L 121.25 229.164062 C 127.472656 229.164062 132.648438 234.253906 132.648438 240.558594 C 132.648438 246.785156 127.554688 251.957031 121.25 251.957031 L 112.601562 251.957031 L 112.601562 275.640625 L 121.25 275.640625 C 127.472656 275.640625 132.648438 280.734375 132.648438 287.039062 C 132.648438 293.265625 127.554688 298.4375 121.25 298.4375 L 112.601562 298.4375 L 112.601562 300.539062 C 112.601562 306.035156 117.046875 310.402344 122.460938 310.402344 L 149.542969 310.402344 L 149.542969 77.601562 L 122.460938 77.601562 C 117.046875 77.601562 112.601562 82.046875 112.601562 87.460938 Z M 112.601562 87.460938 " fill-opacity="1" fill-rule="nonzero"/><path fill="#ffffff" d="M 284.695312 77.601562 L 156.007812 77.601562 L 156.007812 310.402344 L 284.695312 310.402344 C 290.191406 310.402344 294.558594 305.953125 294.558594 300.539062 L 294.558594 87.460938 C 294.636719 82.046875 290.191406 77.601562 284.695312 77.601562 Z M 180.824219 97 C 180.824219 95.222656 182.199219 93.765625 184.058594 93.765625 L 266.667969 93.765625 C 268.449219 93.765625 269.902344 95.140625 269.902344 97 L 269.902344 171.042969 C 269.902344 172.820312 268.527344 174.277344 266.667969 174.277344 L 183.976562 174.277344 C 182.199219 174.277344 180.742188 172.902344 180.742188 171.042969 Z M 279.683594 294.234375 L 170.882812 294.234375 C 169.105469 294.234375 167.648438 292.859375 167.648438 291 C 167.648438 289.222656 169.023438 287.765625 170.882812 287.765625 L 279.683594 287.765625 C 281.460938 287.765625 282.917969 289.140625 282.917969 291 C 282.917969 292.777344 281.460938 294.234375 279.683594 294.234375 Z M 279.683594 270.066406 L 170.882812 270.066406 C 169.105469 270.066406 167.648438 268.691406 167.648438 266.832031 C 167.648438 265.054688 169.023438 263.597656 170.882812 263.597656 L 279.683594 263.597656 C 281.460938 263.597656 282.917969 264.972656 282.917969 266.832031 C 282.917969 268.691406 281.460938 270.066406 279.683594 270.066406 Z M 279.683594 246.058594 L 170.882812 246.058594 C 169.105469 246.058594 167.648438 244.683594 167.648438 242.824219 C 167.648438 241.046875 169.023438 239.589844 170.882812 239.589844 L 279.683594 239.589844 C 281.460938 239.589844 282.917969 240.964844 282.917969 242.824219 C 282.917969 244.601562 281.460938 246.058594 279.683594 246.058594 Z M 279.683594 221.96875 L 170.882812 221.96875 C 169.105469 221.96875 167.648438 220.59375 167.648438 218.734375 C 167.648438 216.957031 169.023438 215.503906 170.882812 215.503906 L 279.683594 215.503906 C 281.460938 215.503906 282.917969 216.875 282.917969 218.734375 C 282.917969 220.515625 281.460938 221.96875 279.683594 221.96875 Z M 279.683594 197.878906 L 170.882812 197.878906 C 169.105469 197.878906 167.648438 196.507812 167.648438 194.648438 C 167.648438 192.867188 169.023438 191.414062 170.882812 191.414062 L 279.683594 191.414062 C 281.460938 191.414062 282.917969 192.789062 282.917969 194.648438 C 282.917969 196.425781 281.460938 197.878906 279.683594 197.878906 Z M 279.683594 197.878906 " fill-opacity="1" fill-rule="nonzero"/><path fill="#ffffff" d="M 98.375 106.054688 L 121.25 106.054688 C 124 106.054688 126.261719 103.789062 126.261719 101.042969 C 126.261719 98.292969 124 96.03125 121.25 96.03125 L 98.375 96.03125 C 95.625 96.03125 93.363281 98.292969 93.363281 101.042969 C 93.363281 103.789062 95.625 106.054688 98.375 106.054688 Z M 98.375 106.054688 " fill-opacity="1" fill-rule="nonzero"/><path fill="#ffffff" d="M 98.375 152.53125 L 121.25 152.53125 C 124 152.53125 126.261719 150.269531 126.261719 147.519531 C 126.261719 144.773438 124 142.507812 121.25 142.507812 L 98.375 142.507812 C 95.625 142.507812 93.363281 144.773438 93.363281 147.519531 C 93.363281 150.269531 95.625 152.53125 98.375 152.53125 Z M 98.375 152.53125 " fill-opacity="1" fill-rule="nonzero"/><path fill="#ffffff" d="M 98.375 199.011719 L 121.25 199.011719 C 124 199.011719 126.261719 196.75 126.261719 194 C 126.261719 191.253906 124 188.988281 121.25 188.988281 L 98.375 188.988281 C 95.625 188.988281 93.363281 191.253906 93.363281 194 C 93.363281 196.75 95.625 199.011719 98.375 199.011719 Z M 98.375 199.011719 " fill-opacity="1" fill-rule="nonzero"/><path fill="#ffffff" d="M 98.375 245.492188 L 121.25 245.492188 C 124 245.492188 126.261719 243.226562 126.261719 240.480469 C 126.261719 237.730469 124 235.46875 121.25 235.46875 L 98.375 235.46875 C 95.625 235.46875 93.363281 237.730469 93.363281 240.480469 C 93.363281 243.226562 95.625 245.492188 98.375 245.492188 Z M 98.375 245.492188 " fill-opacity="1" fill-rule="nonzero"/><path fill="#ffffff" d="M 126.261719 286.957031 C 126.261719 284.210938 124 281.945312 121.25 281.945312 L 98.375 281.945312 C 95.625 281.945312 93.363281 284.210938 93.363281 286.957031 C 93.363281 289.707031 95.625 291.96875 98.375 291.96875 L 121.25 291.96875 C 124 291.96875 126.261719 289.707031 126.261719 286.957031 Z M 126.261719 286.957031 " fill-opacity="1" fill-rule="nonzero"/><path fill="#ffffff" d="M 263.4375 100.152344 L 243.308594 100.152344 L 243.308594 127.636719 C 243.308594 129.414062 241.933594 130.871094 240.074219 130.871094 L 210.570312 130.871094 C 208.792969 130.871094 207.335938 129.496094 207.335938 127.636719 L 207.335938 100.152344 L 187.128906 100.152344 L 187.128906 148.570312 L 263.355469 148.570312 L 263.355469 100.152344 Z M 263.4375 100.152344 " fill-opacity="1" fill-rule="nonzero"/><path fill="#ffffff" d="M 187.210938 154.957031 L 263.4375 154.957031 L 263.4375 167.890625 L 187.210938 167.890625 Z M 187.210938 154.957031 " fill-opacity="1" fill-rule="nonzero"/><path fill="#ffffff" d="M 213.722656 100.152344 L 236.921875 100.152344 L 236.921875 124.484375 L 213.722656 124.484375 Z M 213.722656 100.152344 " fill-opacity="1" fill-rule="nonzero"/></svg>