<svg xmlns="http://www.w3.org/2000/svg" xmlns:xlink="http://www.w3.org/1999/xlink" width="44" zoomAndPan="magnify" viewBox="0 0 33 30.000001" height="40" preserveAspectRatio="xMidYMid meet" version="1.0"><defs><clipPath id="a4dfc2f89a"><path d="M 0.53125 0 L 32.464844 0 L 32.464844 29.03125 L 0.53125 29.03125 Z M 0.53125 0 " clip-rule="nonzero"/></clipPath></defs><g clip-path="url(#a4dfc2f89a)"><path fill="#ffffff" d="M 30 23.027344 C 28.03125 24.953125 25.859375 26.472656 23.539062 27.503906 C 16.375 30.785156 8.324219 28.550781 2.863281 23.027344 C 2.800781 22.960938 2.765625 22.886719 2.765625 22.796875 C 2.765625 22.707031 2.796875 22.628906 2.859375 22.566406 C 2.921875 22.503906 3 22.46875 3.085938 22.46875 C 3.175781 22.46875 3.253906 22.5 3.316406 22.5625 C 5.226562 24.433594 7.335938 25.910156 9.585938 26.90625 C 16.511719 30.078125 24.269531 27.898438 29.546875 22.5625 C 29.839844 22.273438 30.308594 22.71875 30 23.027344 Z M 3.316406 6.46875 C 8.597656 1.132812 16.355469 -1.050781 23.277344 2.125 C 25.527344 3.121094 27.636719 4.59375 29.546875 6.46875 C 29.609375 6.53125 29.6875 6.5625 29.777344 6.5625 C 29.867188 6.5625 29.941406 6.527344 30.003906 6.464844 C 30.066406 6.398438 30.097656 6.324219 30.097656 6.234375 C 30.097656 6.144531 30.066406 6.066406 30 6.003906 C 24.539062 0.480469 16.488281 -1.753906 9.324219 1.527344 C 7.003906 2.558594 4.832031 4.078125 2.863281 6.003906 C 2.554688 6.3125 3.023438 6.757812 3.316406 6.46875 Z M 0.53125 14.515625 C 8.433594 0.761719 24.421875 0.753906 32.332031 14.515625 C 24.429688 28.265625 8.441406 28.277344 0.53125 14.515625 Z M 11.15625 13.871094 L 13.097656 15.78125 L 12.652344 18.464844 C 12.5 19.203125 13.359375 19.828125 14.015625 19.457031 L 16.433594 18.203125 L 18.847656 19.457031 C 19.191406 19.636719 19.523438 19.613281 19.835938 19.382812 C 20.152344 19.15625 20.277344 18.851562 20.214844 18.464844 L 19.769531 15.78125 L 21.707031 13.871094 C 21.984375 13.597656 22.0625 13.277344 21.941406 12.90625 C 21.820312 12.535156 21.570312 12.320312 21.183594 12.265625 L 18.492188 11.855469 L 17.273438 9.425781 C 17.101562 9.074219 16.820312 8.902344 16.433594 8.902344 C 16.042969 8.902344 15.761719 9.074219 15.589844 9.425781 L 14.371094 11.855469 L 11.679688 12.265625 C 11.292969 12.320312 11.042969 12.535156 10.921875 12.90625 C 10.800781 13.277344 10.878906 13.597656 11.15625 13.871094 Z M 10.5 20.449219 C 13.625 23.703125 19.238281 23.699219 22.367188 20.449219 C 28.554688 14.058594 22.164062 3.773438 13.640625 6.601562 C 12.738281 6.921875 11.914062 7.382812 11.167969 7.984375 C 11.097656 8.039062 11.058594 8.113281 11.046875 8.203125 C 11.039062 8.289062 11.0625 8.371094 11.117188 8.441406 C 11.171875 8.511719 11.246094 8.550781 11.335938 8.558594 C 11.425781 8.570312 11.503906 8.546875 11.574219 8.488281 C 14.539062 5.996094 19.292969 6.304688 21.902344 9.042969 C 26.730469 13.871094 23.347656 22.230469 16.433594 22.253906 C 12.15625 22.253906 8.691406 18.789062 8.691406 14.515625 C 8.691406 13.132812 9.039062 11.839844 9.730469 10.644531 C 9.765625 10.566406 9.773438 10.488281 9.75 10.40625 C 9.722656 10.324219 9.675781 10.261719 9.597656 10.21875 C 9.523438 10.175781 9.445312 10.164062 9.363281 10.183594 C 9.28125 10.203125 9.214844 10.25 9.167969 10.320312 C 7.242188 13.484375 7.894531 17.972656 10.5 20.449219 Z M 13.664062 15.429688 C 13.75 15.507812 13.78125 15.605469 13.765625 15.71875 L 13.292969 18.570312 C 13.28125 18.625 13.285156 18.679688 13.304688 18.730469 C 13.371094 18.882812 13.570312 18.96875 13.714844 18.878906 L 16.28125 17.550781 C 16.382812 17.496094 16.480469 17.496094 16.578125 17.550781 L 19.144531 18.878906 C 19.253906 18.941406 19.359375 18.933594 19.457031 18.855469 C 19.550781 18.785156 19.589844 18.6875 19.570312 18.570312 L 19.097656 15.71875 C 19.082031 15.609375 19.113281 15.515625 19.191406 15.4375 L 21.25 13.40625 C 21.335938 13.320312 21.363281 13.222656 21.324219 13.105469 C 21.285156 12.992188 21.207031 12.925781 21.089844 12.90625 L 18.230469 12.472656 C 18.121094 12.457031 18.039062 12.398438 17.988281 12.300781 L 16.695312 9.714844 C 16.601562 9.5 16.261719 9.5 16.167969 9.714844 L 14.886719 12.273438 C 14.839844 12.390625 14.757812 12.457031 14.632812 12.476562 L 11.777344 12.90625 C 11.652344 12.921875 11.574219 12.988281 11.539062 13.105469 C 11.5 13.222656 11.523438 13.320312 11.613281 13.40625 Z M 13.664062 15.429688 " fill-opacity="1" fill-rule="evenodd"/></g></svg>