<svg xmlns="http://www.w3.org/2000/svg" xmlns:xlink="http://www.w3.org/1999/xlink" width="434" zoomAndPan="magnify" viewBox="0 0 325.5 388.499997" height="518" preserveAspectRatio="xMidYMid meet" version="1.0"><defs><clipPath id="7749fbd257"><path d="M 0 0.046875 L 325 0.046875 L 325 241 L 0 241 Z M 0 0.046875 " clip-rule="nonzero"/></clipPath><clipPath id="2a186078e2"><path d="M 172 260 L 300 260 L 300 387.203125 L 172 387.203125 Z M 172 260 " clip-rule="nonzero"/></clipPath><clipPath id="d8697470b9"><path d="M 25 263 L 153 263 L 153 387.203125 L 25 387.203125 Z M 25 263 " clip-rule="nonzero"/></clipPath></defs><g clip-path="url(#7749fbd257)"><path fill="#ffffff" d="M 127.921875 113.671875 L 104.910156 102.109375 C 80.34375 86.816406 44.855469 48.335938 68.378906 19.546875 C 88.617188 -5.230469 124.558594 16.347656 140.132812 36.460938 C 149.707031 48.824219 153.910156 62.976562 160.871094 76.546875 C 161.9375 78.628906 161.933594 85.429688 166.625 80.484375 C 167.582031 79.46875 171.800781 59.566406 174.457031 53.710938 C 178.316406 45.183594 183.066406 36.738281 188.847656 29.375 C 248.539062 -46.710938 308.152344 43.191406 228.40625 96.597656 L 197.078125 113.675781 L 314.640625 113.675781 C 315.421875 113.675781 322.183594 117.96875 322.9375 119.210938 C 325.140625 122.851562 325.480469 172.285156 323.765625 178.125 C 320.242188 190.144531 299.425781 184.238281 299.425781 185.597656 L 299.425781 240.921875 L 172.183594 240.921875 L 172.183594 121.976562 L 152.820312 121.976562 L 152.820312 240.921875 L 25.574219 240.921875 L 25.574219 185.597656 C 25.574219 184.238281 4.757812 190.144531 1.234375 178.125 C -0.476562 172.285156 -0.136719 122.851562 2.0625 119.210938 C 2.816406 117.96875 9.578125 113.675781 10.359375 113.675781 L 127.921875 113.675781 Z M 177.730469 102.597656 C 208.238281 96.632812 249.960938 71.863281 252.453125 37.566406 C 254.4375 10.195312 234.03125 8.5 215.074219 22.402344 C 191.632812 39.59375 176.496094 73.742188 177.730469 102.597656 Z M 152.808594 102.59375 C 155.308594 76.496094 109.613281 1.75 80.652344 26.308594 C 51.773438 50.796875 124.507812 110.449219 152.808594 102.59375 Z M 152.808594 102.59375 " fill-opacity="1" fill-rule="nonzero"/></g><g clip-path="url(#2a186078e2)"><path fill="#ffffff" d="M 176.332031 260.28125 L 295.277344 260.28125 C 295.570312 260.28125 299.425781 264.136719 299.425781 264.429688 L 299.425781 375.078125 C 299.425781 376.523438 290.882812 387.527344 289.746094 387.527344 L 176.332031 387.527344 C 176.039062 387.527344 172.179688 383.671875 172.179688 383.378906 L 172.179688 264.429688 C 172.179688 263.675781 175.417969 261.6875 176.332031 260.28125 Z M 176.332031 260.28125 " fill-opacity="1" fill-rule="nonzero"/></g><g clip-path="url(#d8697470b9)"><path fill="#ffffff" d="M 152.820312 263.046875 L 152.820312 383.378906 C 152.820312 383.671875 148.964844 387.527344 148.667969 387.527344 L 35.257812 387.527344 C 32.378906 387.527344 25.574219 380.722656 25.574219 377.84375 L 25.574219 263.046875 Z M 152.820312 263.046875 " fill-opacity="1" fill-rule="nonzero"/></g></svg>