<svg xmlns="http://www.w3.org/2000/svg" xmlns:xlink="http://www.w3.org/1999/xlink" width="30" zoomAndPan="magnify" viewBox="0 0 388.5 388.499997" height="auto" preserveAspectRatio="xMidYMid meet" version="1.0"><defs><clipPath id="90cf3688ea"><path d="M 0 0 L 388 0 L 388 388 L 0 388 Z M 0 0 " clip-rule="nonzero"/></clipPath></defs><g clip-path="url(#90cf3688ea)"><path fill="#f10505" d="M 84.101562 353.9375 C 79.988281 351.09375 78.949219 345.449219 81.789062 341.332031 C 84.632812 337.214844 90.277344 336.175781 94.414062 339.019531 C 108.824219 348.964844 124.78125 356.796875 141.847656 362.097656 C 158.316406 367.214844 175.875 369.964844 194.128906 369.964844 C 242.691406 369.964844 286.648438 350.273438 318.46875 318.453125 C 350.292969 286.628906 369.984375 242.671875 369.984375 194.109375 C 369.984375 145.546875 350.292969 101.589844 318.46875 69.765625 C 286.648438 37.945312 242.691406 18.253906 194.128906 18.253906 C 145.5625 18.253906 101.609375 37.945312 69.785156 69.765625 C 37.960938 101.589844 18.269531 145.546875 18.269531 194.109375 C 18.269531 204.417969 19.144531 214.492188 20.820312 224.21875 C 22.53125 234.183594 25.101562 243.894531 28.453125 253.257812 C 30.148438 257.992188 27.671875 263.183594 22.953125 264.878906 C 18.234375 266.574219 13.023438 264.09375 11.332031 259.378906 C 7.652344 249.085938 4.828125 238.355469 2.914062 227.28125 C 1.054688 216.460938 0.0742188 205.386719 0.0742188 194.128906 C 0.0742188 140.554688 21.785156 92.046875 56.90625 56.925781 C 92.027344 21.804688 140.535156 0.0898438 194.109375 0.0898438 C 247.683594 0.0898438 296.191406 21.804688 331.3125 56.925781 C 366.433594 92.046875 388.144531 140.554688 388.144531 194.128906 C 388.144531 247.699219 366.433594 296.210938 331.3125 331.332031 C 296.191406 366.449219 247.683594 388.164062 194.109375 388.164062 C 174.109375 388.164062 154.746094 385.105469 136.492188 379.4375 C 117.621094 373.574219 99.988281 364.921875 84.085938 353.9375 Z M 279.523438 170.554688 L 183.179688 266.882812 C 179.628906 270.433594 173.871094 270.433594 170.320312 266.882812 L 135.308594 231.890625 L 28.488281 338.707031 C 24.9375 342.261719 19.179688 342.261719 15.628906 338.707031 C 12.078125 335.15625 12.078125 329.398438 15.628906 325.847656 L 128.878906 212.597656 C 132.429688 209.046875 138.1875 209.046875 141.738281 212.597656 L 176.75 247.589844 L 266.644531 157.695312 L 214.21875 157.695312 C 209.191406 157.695312 205.128906 153.617188 205.128906 148.585938 C 205.128906 143.558594 209.191406 139.5 214.21875 139.5 L 288.597656 139.5 C 293.625 139.5 297.6875 143.578125 297.6875 148.585938 L 297.6875 222.964844 C 297.6875 227.992188 293.605469 232.070312 288.597656 232.070312 C 283.570312 232.070312 279.507812 227.992188 279.507812 222.964844 L 279.507812 170.539062 Z M 194.109375 341.039062 C 275.242188 341.039062 341.039062 275.261719 341.039062 194.109375 C 341.039062 112.976562 275.261719 47.179688 194.109375 47.179688 C 112.976562 47.179688 47.179688 112.957031 47.179688 194.109375 C 47.179688 275.242188 112.957031 341.039062 194.109375 341.039062 Z M 194.109375 341.039062 " fill-opacity="1" fill-rule="evenodd"/></g></svg>