<svg xmlns="http://www.w3.org/2000/svg" xmlns:xlink="http://www.w3.org/1999/xlink" width="15" zoomAndPan="magnify" viewBox="0 0 30 30.000001" height="auto" preserveAspectRatio="xMidYMid meet" version="1.0"><defs><clipPath id="a05fc96c6b"><path d="M 0.484375 0 L 29.515625 0 L 29.515625 29.03125 L 0.484375 29.03125 Z M 0.484375 0 " clip-rule="nonzero"/></clipPath></defs><g clip-path="url(#a05fc96c6b)"><path fill="#000000" d="M 29.515625 14.515625 C 29.515625 15.46875 29.421875 16.414062 29.234375 17.347656 C 29.050781 18.28125 28.773438 19.191406 28.410156 20.070312 C 28.046875 20.949219 27.597656 21.789062 27.070312 22.582031 C 26.539062 23.371094 25.9375 24.105469 25.261719 24.78125 C 24.589844 25.453125 23.855469 26.054688 23.0625 26.585938 C 22.273438 27.113281 21.433594 27.5625 20.554688 27.925781 C 19.675781 28.292969 18.765625 28.566406 17.832031 28.753906 C 16.898438 28.9375 15.953125 29.03125 15 29.03125 C 14.046875 29.03125 13.101562 28.9375 12.167969 28.753906 C 11.234375 28.566406 10.324219 28.292969 9.445312 27.925781 C 8.5625 27.5625 7.726562 27.113281 6.933594 26.585938 C 6.140625 26.054688 5.410156 25.453125 4.734375 24.78125 C 4.0625 24.105469 3.460938 23.371094 2.929688 22.582031 C 2.402344 21.789062 1.953125 20.949219 1.589844 20.070312 C 1.222656 19.191406 0.949219 18.28125 0.761719 17.347656 C 0.578125 16.414062 0.484375 15.46875 0.484375 14.515625 C 0.484375 13.5625 0.578125 12.617188 0.761719 11.683594 C 0.949219 10.75 1.222656 9.839844 1.589844 8.960938 C 1.953125 8.082031 2.402344 7.242188 2.929688 6.453125 C 3.460938 5.660156 4.0625 4.925781 4.734375 4.25 C 5.410156 3.578125 6.144531 2.976562 6.933594 2.445312 C 7.726562 1.917969 8.5625 1.46875 9.445312 1.105469 C 10.324219 0.738281 11.234375 0.464844 12.167969 0.277344 C 13.101562 0.09375 14.046875 0 15 0 C 15.953125 0 16.898438 0.09375 17.832031 0.277344 C 18.765625 0.464844 19.675781 0.738281 20.554688 1.105469 C 21.433594 1.46875 22.273438 1.917969 23.0625 2.445312 C 23.855469 2.976562 24.589844 3.578125 25.261719 4.25 C 25.9375 4.925781 26.539062 5.660156 27.070312 6.453125 C 27.597656 7.242188 28.046875 8.082031 28.410156 8.960938 C 28.773438 9.839844 29.050781 10.75 29.234375 11.683594 C 29.421875 12.617188 29.515625 13.5625 29.515625 14.515625 Z M 29.515625 14.515625 " fill-opacity="1" fill-rule="nonzero"/></g><path fill="#ffffff" d="M 15.234375 4.335938 C 15.160156 4.335938 15.085938 4.332031 15.011719 4.332031 C 14.855469 4.332031 14.703125 4.335938 14.550781 4.347656 C 10.316406 4.617188 7.671875 8.75 9.324219 12.378906 L 14.933594 24.699219 L 20.652344 12.425781 C 22.382812 8.714844 19.59375 4.472656 15.234375 4.335938 Z M 15 13.902344 C 14.550781 13.902344 14.121094 13.816406 13.707031 13.644531 C 13.292969 13.472656 12.925781 13.226562 12.609375 12.910156 C 12.292969 12.59375 12.046875 12.230469 11.875 11.816406 C 11.703125 11.398438 11.617188 10.96875 11.617188 10.519531 C 11.617188 10.074219 11.703125 9.640625 11.875 9.226562 C 12.046875 8.8125 12.292969 8.449219 12.609375 8.128906 C 12.925781 7.8125 13.292969 7.570312 13.707031 7.398438 C 14.121094 7.226562 14.550781 7.140625 15 7.140625 C 15.449219 7.140625 15.878906 7.226562 16.292969 7.398438 C 16.707031 7.570312 17.074219 7.8125 17.390625 8.128906 C 17.707031 8.449219 17.953125 8.8125 18.121094 9.226562 C 18.292969 9.640625 18.378906 10.074219 18.378906 10.519531 C 18.378906 10.96875 18.292969 11.398438 18.121094 11.816406 C 17.953125 12.230469 17.707031 12.59375 17.390625 12.910156 C 17.074219 13.226562 16.707031 13.472656 16.292969 13.644531 C 15.878906 13.816406 15.449219 13.902344 15 13.902344 Z M 15 13.902344 " fill-opacity="1" fill-rule="nonzero"/></svg>