<svg xmlns="http://www.w3.org/2000/svg" xmlns:xlink="http://www.w3.org/1999/xlink" width="15" zoomAndPan="magnify" viewBox="0 0 30 30.000001" height="auto" preserveAspectRatio="xMidYMid meet" version="1.0"><defs><clipPath id="00a9b5838d"><path d="M 0.484375 0 L 29.515625 0 L 29.515625 29.03125 L 0.484375 29.03125 Z M 0.484375 0 " clip-rule="nonzero"/></clipPath></defs><g clip-path="url(#00a9b5838d)"><path fill="#000000" d="M 14.996094 -0.00390625 C 7.003906 -0.00390625 0.480469 6.519531 0.480469 14.511719 C 0.480469 22.507812 7.003906 29.027344 14.996094 29.027344 C 22.992188 29.027344 29.511719 22.507812 29.511719 14.511719 C 29.511719 6.519531 22.992188 -0.00390625 14.996094 -0.00390625 Z M 7.582031 8.855469 L 22.410156 8.855469 C 22.53125 8.855469 22.648438 8.871094 22.757812 8.898438 L 15.246094 15.132812 C 15.175781 15.191406 15.085938 15.222656 14.996094 15.222656 C 14.90625 15.222656 14.820312 15.191406 14.746094 15.132812 L 7.238281 8.898438 C 7.347656 8.871094 7.464844 8.855469 7.582031 8.855469 Z M 6.21875 18.808594 L 6.21875 10.21875 C 6.21875 10.023438 6.261719 9.835938 6.335938 9.664062 L 12.0625 14.417969 L 6.316406 19.320312 C 6.253906 19.160156 6.21875 18.988281 6.21875 18.808594 Z M 22.410156 20.171875 L 7.582031 20.171875 C 7.445312 20.171875 7.3125 20.152344 7.1875 20.113281 L 12.972656 15.175781 L 14 16.027344 C 14.292969 16.273438 14.644531 16.394531 14.996094 16.394531 C 15.347656 16.394531 15.699219 16.273438 15.992188 16.027344 L 17.019531 15.175781 L 22.808594 20.113281 C 22.679688 20.152344 22.546875 20.171875 22.410156 20.171875 Z M 23.777344 18.808594 C 23.777344 18.988281 23.742188 19.160156 23.675781 19.320312 L 17.933594 14.417969 L 23.660156 9.664062 C 23.734375 9.835938 23.777344 10.023438 23.777344 10.21875 Z M 23.777344 18.808594 " fill-opacity="1" fill-rule="evenodd"/></g></svg>