<svg xmlns="http://www.w3.org/2000/svg" xmlns:xlink="http://www.w3.org/1999/xlink" width="15" zoomAndPan="magnify" viewBox="0 0 30 30.000001" height="auto" preserveAspectRatio="xMidYMid meet" version="1.0"><defs><clipPath id="35414646c7"><path d="M 0.484375 0 L 29.515625 0 L 29.515625 29.03125 L 0.484375 29.03125 Z M 0.484375 0 " clip-rule="nonzero"/></clipPath></defs><g clip-path="url(#35414646c7)"><path fill="#010101" d="M 29.511719 14.511719 C 29.511719 15.464844 29.417969 16.410156 29.234375 17.34375 C 29.046875 18.277344 28.773438 19.1875 28.40625 20.066406 C 28.042969 20.949219 27.59375 21.785156 27.066406 22.578125 C 26.535156 23.371094 25.933594 24.101562 25.261719 24.777344 C 24.585938 25.449219 23.851562 26.050781 23.0625 26.582031 C 22.269531 27.109375 21.429688 27.558594 20.550781 27.921875 C 19.671875 28.289062 18.761719 28.5625 17.828125 28.75 C 16.894531 28.933594 15.949219 29.027344 14.996094 29.027344 C 14.042969 29.027344 13.097656 28.933594 12.164062 28.75 C 11.230469 28.5625 10.320312 28.289062 9.441406 27.921875 C 8.558594 27.558594 7.722656 27.109375 6.929688 26.582031 C 6.140625 26.050781 5.40625 25.449219 4.730469 24.777344 C 4.058594 24.101562 3.457031 23.371094 2.925781 22.578125 C 2.398438 21.785156 1.949219 20.949219 1.585938 20.066406 C 1.21875 19.1875 0.945312 18.277344 0.757812 17.34375 C 0.574219 16.410156 0.480469 15.464844 0.480469 14.511719 C 0.480469 13.558594 0.574219 12.613281 0.757812 11.679688 C 0.945312 10.746094 1.21875 9.835938 1.585938 8.957031 C 1.949219 8.078125 2.398438 7.238281 2.925781 6.449219 C 3.457031 5.65625 4.058594 4.921875 4.730469 4.246094 C 5.40625 3.574219 6.140625 2.972656 6.929688 2.441406 C 7.722656 1.914062 8.558594 1.464844 9.441406 1.101562 C 10.320312 0.738281 11.230469 0.460938 12.164062 0.273438 C 13.097656 0.0898438 14.042969 -0.00390625 14.996094 -0.00390625 C 15.949219 -0.00390625 16.894531 0.0898438 17.828125 0.273438 C 18.761719 0.460938 19.671875 0.738281 20.550781 1.101562 C 21.429688 1.464844 22.269531 1.914062 23.0625 2.441406 C 23.851562 2.972656 24.585938 3.574219 25.261719 4.246094 C 25.933594 4.921875 26.535156 5.65625 27.066406 6.449219 C 27.59375 7.238281 28.042969 8.078125 28.40625 8.957031 C 28.773438 9.835938 29.046875 10.746094 29.234375 11.679688 C 29.417969 12.613281 29.511719 13.558594 29.511719 14.511719 Z M 29.511719 14.511719 " fill-opacity="1" fill-rule="nonzero"/></g><path fill="#ffffff" d="M 17.960938 16.523438 L 17.617188 16.871094 C 17.03125 17.46875 16.070312 17.476562 15.476562 16.886719 L 12.597656 14.058594 C 12.003906 13.472656 11.996094 12.511719 12.582031 11.917969 L 12.925781 11.566406 C 13.316406 11.171875 13.308594 10.535156 12.914062 10.144531 L 10.519531 7.789062 C 10.199219 7.472656 9.683594 7.476562 9.367188 7.800781 C 7.601562 9.59375 7.5 12.441406 9.136719 14.355469 L 10.253906 15.660156 C 11.367188 16.960938 12.589844 18.167969 13.910156 19.257812 L 15.234375 20.355469 C 17.171875 21.960938 20.019531 21.816406 21.785156 20.019531 C 22.101562 19.699219 22.097656 19.183594 21.773438 18.867188 L 19.382812 16.511719 C 18.984375 16.121094 18.347656 16.125 17.960938 16.523438 Z M 17.960938 16.523438 " fill-opacity="1" fill-rule="nonzero"/></svg>