<svg xmlns="http://www.w3.org/2000/svg" xmlns:xlink="http://www.w3.org/1999/xlink" width="34" zoomAndPan="magnify" viewBox="0 0 30 30.000001" height="34" preserveAspectRatio="xMidYMid meet" version="1.0"><defs><clipPath id="f1e28291c0"><path d="M 0.484375 0 L 29.515625 0 L 29.515625 29.03125 L 0.484375 29.03125 Z M 0.484375 0 " clip-rule="nonzero"/></clipPath></defs><g clip-path="url(#f1e28291c0)"><path fill="#000000" d="M 29.519531 14.519531 C 29.519531 15.472656 29.429688 16.417969 29.242188 17.351562 C 29.054688 18.285156 28.78125 19.195312 28.417969 20.074219 C 28.050781 20.957031 27.605469 21.792969 27.074219 22.585938 C 26.542969 23.378906 25.941406 24.109375 25.269531 24.785156 C 24.59375 25.460938 23.863281 26.0625 23.070312 26.589844 C 22.277344 27.121094 21.4375 27.566406 20.558594 27.933594 C 19.679688 28.296875 18.769531 28.574219 17.835938 28.757812 C 16.898438 28.945312 15.957031 29.039062 15.003906 29.039062 C 14.050781 29.039062 13.105469 28.945312 12.171875 28.757812 C 11.234375 28.574219 10.328125 28.296875 9.445312 27.933594 C 8.566406 27.566406 7.730469 27.121094 6.9375 26.589844 C 6.144531 26.0625 5.410156 25.460938 4.734375 24.785156 C 4.0625 24.109375 3.460938 23.378906 2.929688 22.585938 C 2.402344 21.792969 1.953125 20.957031 1.589844 20.074219 C 1.222656 19.195312 0.949219 18.285156 0.761719 17.351562 C 0.578125 16.417969 0.484375 15.472656 0.484375 14.519531 C 0.484375 13.566406 0.578125 12.621094 0.761719 11.6875 C 0.949219 10.75 1.222656 9.84375 1.589844 8.960938 C 1.953125 8.082031 2.402344 7.246094 2.929688 6.453125 C 3.460938 5.660156 4.0625 4.925781 4.734375 4.253906 C 5.410156 3.578125 6.144531 2.976562 6.9375 2.445312 C 7.730469 1.917969 8.566406 1.46875 9.445312 1.105469 C 10.328125 0.742188 11.234375 0.464844 12.171875 0.277344 C 13.105469 0.09375 14.050781 0 15.003906 0 C 15.957031 0 16.898438 0.09375 17.835938 0.277344 C 18.769531 0.464844 19.679688 0.742188 20.558594 1.105469 C 21.4375 1.46875 22.277344 1.917969 23.070312 2.445312 C 23.863281 2.976562 24.59375 3.578125 25.269531 4.253906 C 25.941406 4.925781 26.542969 5.660156 27.074219 6.453125 C 27.605469 7.246094 28.050781 8.082031 28.417969 8.960938 C 28.78125 9.84375 29.054688 10.75 29.242188 11.6875 C 29.429688 12.621094 29.519531 13.566406 29.519531 14.519531 Z M 29.519531 14.519531 " fill-opacity="1" fill-rule="nonzero"/></g><path fill="#25f4ee" d="M 13.074219 12.441406 L 13.074219 11.65625 C 12.8125 11.621094 12.542969 11.597656 12.269531 11.597656 C 8.972656 11.597656 6.292969 14.277344 6.292969 17.574219 C 6.292969 19.597656 7.300781 21.386719 8.84375 22.46875 C 7.847656 21.402344 7.257812 19.96875 7.257812 18.398438 C 7.257812 15.152344 9.84375 12.519531 13.074219 12.441406 Z M 13.074219 12.441406 " fill-opacity="1" fill-rule="nonzero"/><path fill="#25f4ee" d="M 13.214844 21.144531 C 14.6875 21.144531 15.902344 19.960938 15.957031 18.503906 L 15.972656 5.503906 L 18.328125 5.503906 C 18.328125 5.503906 18.324219 5.484375 18.324219 5.484375 C 18.273438 5.21875 18.246094 4.941406 18.246094 4.660156 L 15 4.660156 L 14.996094 17.679688 C 14.941406 19.136719 13.742188 20.304688 12.269531 20.304688 C 11.8125 20.304688 11.382812 20.191406 11.003906 19.992188 C 11.5 20.679688 12.304688 21.148438 13.21875 21.148438 Z M 13.214844 21.144531 " fill-opacity="1" fill-rule="nonzero"/><path fill="#25f4ee" d="M 22.765625 9.941406 L 22.765625 9.175781 C 21.859375 9.175781 21.015625 8.910156 20.304688 8.445312 C 20.9375 9.167969 21.792969 9.730469 22.765625 9.941406 Z M 22.765625 9.941406 " fill-opacity="1" fill-rule="nonzero"/><path fill="#fe2c55" d="M 20.304688 8.445312 C 19.617188 7.652344 19.195312 6.617188 19.195312 5.484375 L 18.3125 5.484375 C 18.539062 6.722656 19.289062 7.785156 20.304688 8.445312 Z M 20.304688 8.445312 " fill-opacity="1" fill-rule="nonzero"/><path fill="#fe2c55" d="M 12.269531 14.820312 C 10.765625 14.820312 9.519531 16.066406 9.519531 17.574219 C 9.519531 18.621094 10.132812 19.535156 11.003906 19.992188 C 10.679688 19.542969 10.484375 18.992188 10.484375 18.398438 C 10.484375 16.894531 11.710938 15.667969 13.214844 15.667969 C 13.496094 15.667969 13.765625 15.714844 14.023438 15.796875 L 14.023438 12.480469 C 13.757812 12.441406 13.488281 12.421875 13.214844 12.421875 C 13.167969 12.421875 13.121094 12.421875 13.074219 12.425781 L 13.0625 12.425781 C 13.0625 12.425781 13.054688 14.933594 13.054688 14.933594 C 12.796875 14.855469 12.550781 14.820312 12.269531 14.820312 Z M 12.269531 14.820312 " fill-opacity="1" fill-rule="nonzero"/><path fill="#fe2c55" d="M 22.765625 9.902344 L 22.75 9.898438 L 22.75 12.40625 C 21.066406 12.40625 19.5 11.851562 18.226562 10.9375 L 18.226562 17.574219 C 18.226562 20.871094 15.566406 23.535156 12.269531 23.535156 C 10.996094 23.535156 9.816406 23.148438 8.84375 22.46875 C 9.933594 23.640625 11.492188 24.375 13.214844 24.375 C 16.511719 24.375 19.195312 21.695312 19.195312 18.398438 L 19.195312 11.796875 C 20.46875 12.710938 22.027344 13.25 23.710938 13.25 L 23.710938 10.003906 C 23.386719 10.003906 23.070312 9.96875 22.765625 9.902344 Z M 22.765625 9.902344 " fill-opacity="1" fill-rule="nonzero"/><path fill="#ffffff" d="M 18.246094 17.574219 L 18.246094 10.972656 C 19.519531 11.886719 21.082031 12.425781 22.765625 12.425781 L 22.765625 9.902344 C 21.792969 9.691406 20.9375 9.171875 20.304688 8.445312 C 19.289062 7.78125 18.554688 6.722656 18.324219 5.484375 L 15.945312 5.484375 L 15.941406 18.5 C 15.886719 19.960938 14.683594 21.128906 13.214844 21.128906 C 12.304688 21.128906 11.496094 20.679688 11 19.988281 C 10.132812 19.53125 9.539062 18.621094 9.539062 17.574219 C 9.539062 16.066406 10.761719 14.84375 12.269531 14.84375 C 12.550781 14.84375 12.820312 14.890625 13.074219 14.96875 L 13.074219 12.421875 C 9.84375 12.5 7.238281 15.148438 7.238281 18.398438 C 7.238281 19.96875 7.847656 21.398438 8.839844 22.46875 C 9.8125 23.152344 10.992188 23.550781 12.269531 23.550781 C 15.566406 23.550781 18.246094 20.871094 18.246094 17.574219 Z M 18.246094 17.574219 " fill-opacity="1" fill-rule="nonzero"/></svg>