<svg xmlns="http://www.w3.org/2000/svg" xmlns:xlink="http://www.w3.org/1999/xlink" width="15" zoomAndPan="magnify" viewBox="0 0 30 30.000001" height="auto" preserveAspectRatio="xMidYMid meet" version="1.0"><defs><clipPath id="dbc0007ffe"><path d="M 0.484375 0 L 29.515625 0 L 29.515625 29.03125 L 0.484375 29.03125 Z M 0.484375 0 " clip-rule="nonzero"/></clipPath></defs><g clip-path="url(#dbc0007ffe)"><path fill="#000000" d="M 15 0 C 14.046875 0 13.101562 0.09375 12.167969 0.277344 C 11.234375 0.464844 10.324219 0.738281 9.445312 1.105469 C 8.5625 1.46875 7.726562 1.917969 6.933594 2.445312 C 6.144531 2.976562 5.410156 3.578125 4.734375 4.25 C 4.0625 4.925781 3.460938 5.660156 2.929688 6.453125 C 2.402344 7.242188 1.953125 8.082031 1.589844 8.960938 C 1.222656 9.839844 0.949219 10.75 0.761719 11.683594 C 0.578125 12.617188 0.484375 13.5625 0.484375 14.515625 C 0.484375 15.46875 0.578125 16.414062 0.761719 17.347656 C 0.949219 18.28125 1.222656 19.191406 1.589844 20.070312 C 1.953125 20.953125 2.402344 21.789062 2.929688 22.582031 C 3.460938 23.375 4.0625 24.105469 4.734375 24.78125 C 5.410156 25.453125 6.144531 26.054688 6.933594 26.585938 C 7.726562 27.117188 8.5625 27.5625 9.445312 27.925781 C 10.324219 28.292969 11.234375 28.566406 12.167969 28.753906 C 13.101562 28.9375 14.046875 29.03125 15 29.03125 C 15.953125 29.03125 16.898438 28.9375 17.832031 28.753906 C 18.765625 28.566406 19.675781 28.292969 20.554688 27.925781 C 21.4375 27.5625 22.273438 27.117188 23.066406 26.585938 C 23.855469 26.054688 24.589844 25.453125 25.265625 24.78125 C 25.9375 24.105469 26.539062 23.375 27.070312 22.582031 C 27.597656 21.789062 28.046875 20.953125 28.410156 20.070312 C 28.777344 19.191406 29.050781 18.28125 29.238281 17.347656 C 29.421875 16.414062 29.515625 15.46875 29.515625 14.515625 C 29.515625 13.5625 29.421875 12.621094 29.234375 11.683594 C 29.046875 10.75 28.773438 9.84375 28.40625 8.964844 C 28.042969 8.082031 27.59375 7.246094 27.066406 6.457031 C 26.535156 5.664062 25.933594 4.929688 25.257812 4.257812 C 24.585938 3.582031 23.851562 2.980469 23.0625 2.453125 C 22.269531 1.921875 21.433594 1.476562 20.550781 1.109375 C 19.671875 0.746094 18.765625 0.46875 17.832031 0.28125 C 16.894531 0.09375 15.953125 0 15 0 Z M 19.890625 19.40625 C 19.769531 19.53125 19.625 19.628906 19.464844 19.695312 C 19.300781 19.761719 19.132812 19.792969 18.957031 19.792969 C 18.785156 19.792969 18.617188 19.761719 18.453125 19.695312 C 18.292969 19.628906 18.148438 19.53125 18.027344 19.40625 L 14.066406 15.449219 C 13.808594 15.191406 13.679688 14.878906 13.679688 14.515625 L 13.679688 6.597656 C 13.679688 6.421875 13.714844 6.253906 13.78125 6.09375 C 13.847656 5.929688 13.941406 5.789062 14.066406 5.664062 C 14.191406 5.542969 14.332031 5.445312 14.496094 5.378906 C 14.65625 5.3125 14.824219 5.277344 15 5.277344 C 15.175781 5.277344 15.34375 5.3125 15.503906 5.378906 C 15.667969 5.445312 15.808594 5.542969 15.933594 5.664062 C 16.058594 5.789062 16.152344 5.929688 16.21875 6.09375 C 16.285156 6.253906 16.320312 6.421875 16.320312 6.597656 L 16.320312 13.96875 L 19.890625 17.542969 C 20.015625 17.664062 20.109375 17.808594 20.179688 17.96875 C 20.246094 18.132812 20.277344 18.300781 20.277344 18.476562 C 20.277344 18.648438 20.246094 18.816406 20.179688 18.980469 C 20.109375 19.140625 20.015625 19.285156 19.890625 19.40625 Z M 19.890625 19.40625 " fill-opacity="1" fill-rule="nonzero"/></g></svg>