<svg xmlns="http://www.w3.org/2000/svg" xmlns:xlink="http://www.w3.org/1999/xlink" width="34" zoomAndPan="magnify" viewBox="0 0 30 30.000001" height="34" preserveAspectRatio="xMidYMid meet" version="1.0"><defs><clipPath id="62e8807e16"><path d="M 0.484375 0 L 29.515625 0 L 29.515625 29.03125 L 0.484375 29.03125 Z M 0.484375 0 " clip-rule="nonzero"/></clipPath></defs><g clip-path="url(#62e8807e16)"><path fill="#1d9bf0" d="M 29.515625 14.515625 C 29.515625 12.414062 28.285156 10.597656 26.507812 9.75 C 27.167969 7.894531 26.753906 5.738281 25.265625 4.253906 C 23.777344 2.765625 21.625 2.351562 19.765625 3.011719 C 18.917969 1.230469 17.105469 0 15 0 C 12.898438 0 11.082031 1.230469 10.234375 3.011719 C 8.375 2.351562 6.222656 2.765625 4.734375 4.253906 C 3.25 5.738281 2.835938 7.890625 3.496094 9.75 C 1.714844 10.597656 0.484375 12.414062 0.484375 14.515625 C 0.484375 16.621094 1.714844 18.433594 3.496094 19.28125 C 2.835938 21.140625 3.25 23.292969 4.734375 24.78125 C 6.222656 26.269531 8.375 26.683594 10.234375 26.023438 C 11.082031 27.804688 12.898438 29.035156 15 29.035156 C 17.105469 29.035156 18.917969 27.804688 19.765625 26.023438 C 21.625 26.683594 23.777344 26.269531 25.265625 24.78125 C 26.753906 23.292969 27.167969 21.140625 26.507812 19.28125 C 28.285156 18.433594 29.515625 16.621094 29.515625 14.515625 Z M 29.515625 14.515625 " fill-opacity="1" fill-rule="nonzero"/></g><path fill="#ffffff" d="M 12.957031 20.09375 L 8.125 14.945312 L 10.085938 13.105469 L 13.015625 16.226562 L 20.304688 8.941406 L 22.207031 10.84375 Z M 12.957031 20.09375 " fill-opacity="1" fill-rule="nonzero"/></svg>