<svg xmlns="http://www.w3.org/2000/svg" xmlns:xlink="http://www.w3.org/1999/xlink" width="34" zoomAndPan="magnify" viewBox="0 0 30 30.000001" height="34" preserveAspectRatio="xMidYMid meet" version="1.0"><defs><clipPath id="7255edc55a"><path d="M 0.484375 0 L 29.515625 0 L 29.515625 29.03125 L 0.484375 29.03125 Z M 0.484375 0 " clip-rule="nonzero"/></clipPath></defs><g clip-path="url(#7255edc55a)"><path fill="#ff0000" d="M 29.558594 14.527344 C 29.558594 15.484375 29.46875 16.429688 29.28125 17.367188 C 29.09375 18.304688 28.820312 19.214844 28.453125 20.09375 C 28.085938 20.976562 27.640625 21.816406 27.109375 22.609375 C 26.578125 23.40625 25.976562 24.140625 25.300781 24.816406 C 24.625 25.488281 23.890625 26.09375 23.097656 26.625 C 22.300781 27.152344 21.464844 27.601562 20.582031 27.96875 C 19.699219 28.332031 18.789062 28.609375 17.851562 28.796875 C 16.914062 28.980469 15.96875 29.074219 15.015625 29.074219 C 14.058594 29.074219 13.113281 28.980469 12.175781 28.796875 C 11.242188 28.609375 10.332031 28.332031 9.449219 27.96875 C 8.566406 27.601562 7.726562 27.152344 6.933594 26.625 C 6.140625 26.09375 5.40625 25.488281 4.730469 24.816406 C 4.054688 24.140625 3.449219 23.40625 2.921875 22.609375 C 2.390625 21.816406 1.941406 20.976562 1.578125 20.09375 C 1.210938 19.214844 0.933594 18.304688 0.75 17.367188 C 0.5625 16.429688 0.46875 15.484375 0.46875 14.527344 C 0.46875 13.574219 0.5625 12.628906 0.75 11.691406 C 0.933594 10.753906 1.210938 9.84375 1.578125 8.960938 C 1.941406 8.082031 2.390625 7.242188 2.921875 6.449219 C 3.449219 5.652344 4.054688 4.917969 4.730469 4.242188 C 5.40625 3.570312 6.140625 2.964844 6.933594 2.433594 C 7.726562 1.90625 8.566406 1.457031 9.449219 1.089844 C 10.332031 0.726562 11.242188 0.449219 12.175781 0.261719 C 13.113281 0.078125 14.058594 -0.015625 15.015625 -0.015625 C 15.96875 -0.015625 16.914062 0.078125 17.851562 0.261719 C 18.789062 0.449219 19.699219 0.726562 20.582031 1.089844 C 21.464844 1.457031 22.300781 1.90625 23.097656 2.433594 C 23.890625 2.964844 24.625 3.570312 25.300781 4.242188 C 25.976562 4.917969 26.578125 5.652344 27.109375 6.449219 C 27.640625 7.242188 28.085938 8.082031 28.453125 8.960938 C 28.820312 9.84375 29.09375 10.753906 29.28125 11.691406 C 29.46875 12.628906 29.558594 13.574219 29.558594 14.527344 Z M 29.558594 14.527344 " fill-opacity="1" fill-rule="nonzero"/></g><path fill="#ffffff" d="M 10.390625 22.296875 L 23.945312 14.53125 L 10.390625 6.761719 Z M 10.390625 22.296875 " fill-opacity="1" fill-rule="nonzero"/></svg>