<svg xmlns="http://www.w3.org/2000/svg" xmlns:xlink="http://www.w3.org/1999/xlink" width="40" zoomAndPan="magnify" viewBox="0 0 30 30.750001" height="41" preserveAspectRatio="xMidYMid meet" version="1.0"><defs><clipPath id="445d096a8e"><path d="M 0.121094 1 L 29.878906 1 L 29.878906 30.503906 L 0.121094 30.503906 Z M 0.121094 1 " clip-rule="nonzero"/></clipPath><clipPath id="b864d35ddd"><path d="M 0.597656 0.667969 L 29.402344 0.667969 L 29.402344 14 L 0.597656 14 Z M 0.597656 0.667969 " clip-rule="nonzero"/></clipPath><clipPath id="7d85aec295"><path d="M 0.597656 0.667969 L 29.402344 0.667969 L 29.402344 29.503906 L 0.597656 29.503906 Z M 0.597656 0.667969 " clip-rule="nonzero"/></clipPath><clipPath id="956bfc7d47"><path d="M 4.539062 13.21875 L 25.492188 13.21875 L 25.492188 29.503906 L 4.539062 29.503906 Z M 4.539062 13.21875 " clip-rule="nonzero"/></clipPath><clipPath id="78e43dc165"><path d="M 15 13.21875 L 25.460938 18.117188 L 25.460938 25.34375 L 15 30.246094 L 4.539062 25.34375 L 4.539062 18.117188 Z M 15 13.21875 " clip-rule="nonzero"/></clipPath><clipPath id="6ec8dd69a8"><path d="M 0.539062 0.21875 L 21.492188 0.21875 L 21.492188 16.503906 L 0.539062 16.503906 Z M 0.539062 0.21875 " clip-rule="nonzero"/></clipPath><clipPath id="9d99fced04"><path d="M 11 0.21875 L 21.460938 5.117188 L 21.460938 12.34375 L 11 17.246094 L 0.539062 12.34375 L 0.539062 5.117188 Z M 11 0.21875 " clip-rule="nonzero"/></clipPath><clipPath id="f9978d081b"><rect x="0" width="22" y="0" height="17"/></clipPath><clipPath id="f39a694d73"><path d="M 7 14.621094 L 24.714844 14.621094 L 24.714844 27.902344 L 7 27.902344 Z M 7 14.621094 " clip-rule="nonzero"/></clipPath><clipPath id="951e7799bd"><rect x="0" width="30" y="0" height="30"/></clipPath></defs><g clip-path="url(#445d096a8e)"><g transform="matrix(1, 0, 0, 1, 0.000000000000000111, 1)"><g clip-path="url(#951e7799bd)"><g clip-path="url(#b864d35ddd)"><path fill="#a6a6a6" d="M 28.75 0.875 L 1.25 0.875 C 0.90625 0.875 0.625 1.15625 0.625 1.5 L 0.625 12.75 C 0.625 13.09375 0.90625 13.375 1.25 13.375 L 28.75 13.375 C 29.09375 13.375 29.375 13.09375 29.375 12.75 L 29.375 1.5 C 29.375 1.15625 29.09375 0.875 28.75 0.875 Z M 5.625 8.375 C 4.9375 8.375 4.375 7.8125 4.375 7.125 C 4.375 6.433594 4.9375 5.875 5.625 5.875 C 6.316406 5.875 6.875 6.433594 6.875 7.125 C 6.875 7.8125 6.316406 8.375 5.625 8.375 Z M 11.875 8.375 C 11.183594 8.375 10.625 7.8125 10.625 7.125 C 10.625 6.433594 11.183594 5.875 11.875 5.875 C 12.566406 5.875 13.125 6.433594 13.125 7.125 C 13.125 7.8125 12.566406 8.375 11.875 8.375 Z M 18.125 8.375 C 17.433594 8.375 16.875 7.8125 16.875 7.125 C 16.875 6.433594 17.433594 5.875 18.125 5.875 C 18.816406 5.875 19.375 6.433594 19.375 7.125 C 19.375 7.8125 18.816406 8.375 18.125 8.375 Z M 24.375 8.375 C 23.683594 8.375 23.125 7.8125 23.125 7.125 C 23.125 6.433594 23.683594 5.875 24.375 5.875 C 25.0625 5.875 25.625 6.433594 25.625 7.125 C 25.625 7.8125 25.0625 8.375 24.375 8.375 Z M 24.375 8.375 " fill-opacity="1" fill-rule="nonzero"/></g><g clip-path="url(#7d85aec295)"><path stroke-linecap="butt" transform="matrix(0.624919, 0, 0, 0.624919, -0.622984, -0.999998)" fill="none" stroke-linejoin="miter" d="M 34.001165 36.998524 C 34.001165 41.99917 30.000649 45.999686 25.000003 45.999686 C 19.999357 45.999686 15.998841 41.99917 15.998841 36.998524 C 15.998841 31.997878 19.999357 27.997362 25.000003 27.997362 C 28.500455 27.997362 31.500842 29.99762 33.001036 32.897995 " stroke="#000000" stroke-width="2" stroke-opacity="1" stroke-miterlimit="10"/></g><path stroke-linecap="round" transform="matrix(0.624919, 0, 0, 0.624919, -0.622984, -0.999998)" fill="none" stroke-linejoin="miter" d="M 33.001036 27.997362 L 33.001036 32.998007 L 28.00039 32.998007 " stroke="#000000" stroke-width="2" stroke-opacity="1" stroke-miterlimit="10"/><g clip-path="url(#956bfc7d47)"><g clip-path="url(#78e43dc165)"><g transform="matrix(1, 0, 0, 1, 4, 13)"><g clip-path="url(#f9978d081b)"><g clip-path="url(#6ec8dd69a8)"><g clip-path="url(#9d99fced04)"><path fill="#ffffff" d="M 0.539062 0.21875 L 21.492188 0.21875 L 21.492188 17.246094 L 0.539062 17.246094 Z M 0.539062 0.21875 " fill-opacity="1" fill-rule="nonzero"/></g></g></g></g></g></g><g clip-path="url(#f39a694d73)"><path fill="#a6a6a6" d="M 17.398438 14.621094 L 17.398438 18.609375 L 11.894531 18.609375 C 6.898438 18.609375 5.1875 25.3125 9.554688 27.78125 C 7.339844 26.074219 8.480469 22.46875 11.324219 22.46875 C 13.347656 22.46875 15.375 22.46875 17.398438 22.46875 L 17.398438 26.453125 L 24.800781 20.570312 Z M 17.398438 14.621094 " fill-opacity="1" fill-rule="evenodd"/></g></g></g></g></svg>