<svg xmlns="http://www.w3.org/2000/svg" xmlns:xlink="http://www.w3.org/1999/xlink" width="62" zoomAndPan="magnify" viewBox="0 0 46.5 30.000001" height="40" preserveAspectRatio="xMidYMid meet" version="1.0"><defs><clipPath id="d0603b8a08"><path d="M 0.507812 1 L 16 1 L 16 27 L 0.507812 27 Z M 0.507812 1 " clip-rule="nonzero"/></clipPath><clipPath id="88b57f1f56"><path d="M 30 1 L 45.507812 1 L 45.507812 27 L 30 27 Z M 30 1 " clip-rule="nonzero"/></clipPath></defs><path fill="#a6a6a6" d="M 43.023438 28.328125 L 28.902344 16.601562 C 28.488281 16.261719 27.890625 16.261719 27.476562 16.601562 L 23.671875 19.761719 C 23.289062 20.078125 22.734375 20.078125 22.351562 19.761719 L 18.546875 16.601562 C 18.136719 16.261719 17.535156 16.261719 17.125 16.601562 L 3 28.328125 C 2.808594 28.492188 2.921875 28.804688 3.171875 28.804688 L 42.851562 28.804688 C 43.105469 28.804688 43.21875 28.492188 43.023438 28.328125 " fill-opacity="1" fill-rule="nonzero"/><g clip-path="url(#d0603b8a08)"><path fill="#a6a6a6" d="M 15.359375 13.957031 L 0.957031 1.996094 C 0.78125 1.851562 0.515625 1.976562 0.515625 2.203125 L 0.515625 26.644531 C 0.515625 26.871094 0.78125 26.996094 0.957031 26.851562 L 15.359375 14.894531 C 15.652344 14.648438 15.652344 14.199219 15.359375 13.957031 " fill-opacity="1" fill-rule="nonzero"/></g><path fill="#a6a6a6" d="M 3 0.519531 L 22.472656 16.6875 C 22.785156 16.945312 23.238281 16.945312 23.554688 16.6875 L 43.023438 0.519531 C 43.21875 0.359375 43.105469 0.0429688 42.851562 0.0429688 L 3.171875 0.0429688 C 2.921875 0.0429688 2.808594 0.359375 3 0.519531 " fill-opacity="1" fill-rule="nonzero"/><g clip-path="url(#88b57f1f56)"><path fill="#a6a6a6" d="M 45.070312 1.996094 L 30.667969 13.957031 C 30.371094 14.199219 30.371094 14.648438 30.667969 14.894531 L 45.070312 26.851562 C 45.246094 26.996094 45.511719 26.875 45.511719 26.644531 L 45.511719 2.203125 C 45.511719 1.976562 45.246094 1.851562 45.070312 1.996094 " fill-opacity="1" fill-rule="nonzero"/></g></svg>