<svg xmlns="http://www.w3.org/2000/svg" xmlns:xlink="http://www.w3.org/1999/xlink" width="40" zoomAndPan="magnify" viewBox="0 0 30 32.249999" height="43" preserveAspectRatio="xMidYMid meet" version="1.0"><defs><clipPath id="0a296aa92b"><path d="M 0.339844 15 L 29.65625 15 L 29.65625 29 L 0.339844 29 Z M 0.339844 15 " clip-rule="nonzero"/></clipPath></defs><g clip-path="url(#0a296aa92b)"><path fill="#a6a6a6" d="M 20.179688 15.011719 C 18.640625 16.226562 16.695312 16.953125 14.585938 16.953125 C 12.53125 16.953125 10.628906 16.261719 9.105469 15.101562 C 4.136719 15.90625 0.339844 20.214844 0.339844 25.414062 C 0.339844 31.183594 5.015625 27.429688 10.785156 27.429688 L 19.214844 27.429688 C 24.980469 27.429688 29.660156 31.183594 29.660156 25.414062 C 29.660156 19.96875 25.496094 15.5 20.179688 15.011719 Z M 20.179688 15.011719 " fill-opacity="1" fill-rule="nonzero"/></g><path fill="#a6a6a6" d="M 14.585938 15.738281 C 18.914062 15.738281 22.433594 12.214844 22.433594 7.886719 C 22.433594 3.5625 18.914062 0.0390625 14.585938 0.0390625 C 10.257812 0.0390625 6.738281 3.5625 6.738281 7.886719 C 6.738281 12.214844 10.257812 15.738281 14.585938 15.738281 Z M 14.585938 15.738281 " fill-opacity="1" fill-rule="nonzero"/></svg>