<svg xmlns="http://www.w3.org/2000/svg" xmlns:xlink="http://www.w3.org/1999/xlink" width="66" zoomAndPan="magnify" viewBox="0 0 49.5 30.000001" height="40" preserveAspectRatio="xMidYMid meet" version="1.0"><defs><clipPath id="439cf3e15e"><path d="M 0.554688 0 L 47.734375 0 L 47.734375 29.03125 L 0.554688 29.03125 Z M 0.554688 0 " clip-rule="nonzero"/></clipPath></defs><g clip-path="url(#439cf3e15e)"><path fill="#a6a6a6" d="M 47.457031 13.382812 C 42.695312 5.140625 33.832031 0.0195312 24.324219 0.0195312 C 14.8125 0.0195312 5.949219 5.140625 1.191406 13.382812 C 0.785156 14.082031 0.785156 14.949219 1.191406 15.648438 C 5.949219 23.890625 14.8125 29.011719 24.324219 29.011719 C 33.832031 29.011719 42.695312 23.890625 47.457031 15.648438 C 47.863281 14.949219 47.863281 14.082031 47.457031 13.382812 Z M 24.324219 24.476562 C 16.875 24.476562 9.902344 20.691406 5.820312 14.515625 C 9.902344 8.339844 16.875 4.558594 24.324219 4.558594 C 31.773438 4.558594 38.742188 8.339844 42.828125 14.515625 C 38.742188 20.691406 31.773438 24.476562 24.324219 24.476562 Z M 24.324219 24.476562 " fill-opacity="1" fill-rule="nonzero"/></g><path fill="#a6a6a6" d="M 24.324219 5.523438 C 19.367188 5.523438 15.332031 9.558594 15.332031 14.515625 C 15.332031 19.472656 19.367188 23.507812 24.324219 23.507812 C 29.28125 23.507812 33.3125 19.472656 33.3125 14.515625 C 33.3125 9.558594 29.28125 5.523438 24.324219 5.523438 Z M 24.324219 18.972656 C 21.867188 18.972656 19.867188 16.972656 19.867188 14.515625 C 19.867188 12.058594 21.867188 10.0625 24.324219 10.0625 C 26.78125 10.0625 28.777344 12.058594 28.777344 14.515625 C 28.777344 16.972656 26.78125 18.972656 24.324219 18.972656 Z M 24.324219 18.972656 " fill-opacity="1" fill-rule="nonzero"/></svg>