<svg xmlns="http://www.w3.org/2000/svg" xmlns:xlink="http://www.w3.org/1999/xlink" width="10" zoomAndPan="magnify" viewBox="0 0 292.5 177.749994" height="auto" preserveAspectRatio="xMidYMid meet" version="1.0"><defs><g/><clipPath id="7b941b4a49"><path d="M 0 0.0273438 L 292 0.0273438 L 292 177.472656 L 0 177.472656 Z M 0 0.0273438 " clip-rule="nonzero"/></clipPath><clipPath id="0bc90d73d1"><path d="M 112 108 L 291.632812 108 L 291.632812 148 L 112 148 Z M 112 108 " clip-rule="nonzero"/></clipPath><clipPath id="ed26f8d0d2"><path d="M 132 77.246094 L 180 77.246094 L 180 177.472656 L 132 177.472656 Z M 132 77.246094 " clip-rule="nonzero"/></clipPath><clipPath id="f7b2f25656"><rect x="0" width="292" y="0" height="178"/></clipPath></defs><g clip-path="url(#7b941b4a49)"><path fill="#ffffff" d="M 0 0.0273438 L 292 0.0273438 L 292 177.472656 L 0 177.472656 Z M 0 0.0273438 " fill-opacity="1" fill-rule="nonzero"/><path fill="#ffffff" d="M 0 0.0273438 L 292 0.0273438 L 292 177.472656 L 0 177.472656 Z M 0 0.0273438 " fill-opacity="1" fill-rule="nonzero"/><g transform="matrix(1, 0, 0, 1, 0, -0.00000000000000416)"><g clip-path="url(#f7b2f25656)"><g clip-path="url(#0bc90d73d1)"><path fill="#e01315" d="M 291.445312 108.464844 L 112.761719 108.949219 L 122.371094 147.878906 L 286.539062 147.730469 L 287.761719 137.945312 L 262.074219 137.945312 L 262.074219 135.460938 L 288.070312 135.460938 L 288.488281 132.144531 L 256.421875 132.144531 L 256.421875 129.660156 L 288.796875 129.660156 L 289.210938 126.335938 L 267.855469 126.335938 L 267.855469 123.855469 L 289.523438 123.855469 Z M 291.445312 108.464844 " fill-opacity="1" fill-rule="evenodd"/></g><path fill="#fbca03" d="M 188.53125 142.820312 C 184.652344 142.871094 180.769531 142.917969 176.890625 142.964844 C 177.101562 141.160156 177.3125 139.355469 177.523438 137.550781 C 180.367188 137.527344 183.207031 137.503906 186.050781 137.484375 C 186.882812 135.320312 187.714844 133.164062 188.546875 131 C 186.210938 130.980469 183.871094 130.957031 181.535156 130.933594 C 180.410156 130.453125 180.089844 129.355469 180.589844 127.625 C 182.027344 123.980469 183.464844 120.335938 184.90625 116.691406 C 185.867188 115.269531 187.1875 114.457031 188.882812 114.261719 C 192.863281 114.28125 196.839844 114.304688 200.820312 114.328125 C 200.664062 116.105469 200.503906 117.882812 200.347656 119.660156 C 197.222656 119.59375 194.097656 119.527344 190.972656 119.457031 C 190.210938 121.597656 189.445312 123.734375 188.679688 125.871094 C 190.863281 125.917969 193.042969 125.960938 195.222656 126.007812 C 196.691406 126.121094 197.246094 126.929688 196.707031 128.570312 C 195.378906 132.195312 194.054688 135.816406 192.726562 139.441406 C 192.074219 141.25 190.671875 142.375 188.53125 142.820312 Z M 188.53125 142.820312 " fill-opacity="1" fill-rule="evenodd"/><path fill="#fcfef8" d="M 188.980469 115.910156 C 187.863281 116.0625 187.023438 116.570312 186.367188 117.476562 C 184.960938 121.035156 183.558594 124.597656 182.152344 128.15625 C 182.066406 128.472656 181.953125 128.996094 182.035156 129.289062 C 184.210938 129.308594 186.386719 129.332031 188.5625 129.351562 L 190.941406 129.375 L 190.085938 131.597656 C 189.253906 133.753906 188.421875 135.917969 187.589844 138.074219 L 187.1875 139.125 L 186.066406 139.132812 C 183.707031 139.152344 181.347656 139.171875 178.992188 139.191406 C 178.910156 139.890625 178.828125 140.589844 178.746094 141.289062 C 181.945312 141.25 185.144531 141.210938 188.34375 141.175781 C 189.683594 140.863281 190.691406 140.214844 191.179688 138.875 C 192.496094 135.257812 193.824219 131.648438 195.148438 128.03125 C 195.175781 127.945312 195.21875 127.800781 195.242188 127.667969 C 195.203125 127.664062 195.167969 127.660156 195.136719 127.65625 C 192.972656 127.609375 190.808594 127.566406 188.648438 127.519531 L 186.359375 127.472656 L 187.128906 125.316406 C 187.894531 123.179688 188.65625 121.039062 189.421875 118.902344 L 189.820312 117.78125 L 191.011719 117.808594 C 193.621094 117.863281 196.230469 117.921875 198.84375 117.976562 C 198.902344 117.308594 198.960938 116.636719 199.019531 115.96875 C 195.671875 115.949219 192.328125 115.929688 188.980469 115.910156 Z M 188.980469 115.910156 " fill-opacity="1" fill-rule="evenodd"/><path fill="#fbca03" d="M 200.359375 142.816406 L 193.003906 142.664062 L 210.390625 113.917969 L 218.304688 113.671875 L 213.730469 142.890625 L 206.472656 142.886719 L 207.078125 139.023438 L 202.253906 139.058594 Z M 208.429688 134.5 L 210.21875 124.785156 L 204.925781 134.382812 Z M 208.429688 134.5 " fill-opacity="1" fill-rule="evenodd"/><path fill="#fcfef8" d="M 199.546875 141.464844 L 201.429688 137.726562 L 208.644531 137.675781 L 208.035156 141.550781 L 212.585938 141.554688 L 216.738281 115.058594 L 211.15625 115.230469 L 195.34375 141.375 Z M 209.53125 135.875 L 202.707031 135.644531 L 213.023438 116.929688 Z M 209.53125 135.875 " fill-opacity="1" fill-rule="evenodd"/><path fill="#fbca03" d="M 234.023438 114.195312 L 226.246094 114.265625 L 215.304688 142.855469 L 228.722656 143.128906 L 232.097656 137.414062 L 224.871094 137.34375 Z M 234.023438 114.195312 " fill-opacity="1" fill-rule="evenodd"/><path fill="#fcfef8" d="M 231.472656 115.949219 L 227.4375 115.984375 L 217.796875 141.175781 L 227.75 141.378906 L 229.085938 139.113281 L 222.335938 139.050781 Z M 231.472656 115.949219 " fill-opacity="1" fill-rule="evenodd"/><path fill="#fbca03" d="M 245.894531 143.183594 L 231.84375 143.109375 L 243.039062 114.121094 L 257.089844 113.957031 L 256.453125 119.945312 L 248.304688 119.628906 L 246.140625 126.253906 L 251.871094 126.253906 L 250.070312 131.378906 L 244.050781 131.121094 L 241.660156 137.738281 L 248.929688 137.691406 Z M 245.894531 143.183594 " fill-opacity="1" fill-rule="evenodd"/><path fill="#fcfef8" d="M 244.882812 141.453125 L 246 139.433594 L 239.203125 139.480469 L 242.859375 129.34375 L 248.871094 129.601562 L 249.4375 127.980469 L 243.765625 127.980469 L 247.074219 117.855469 L 254.910156 118.160156 L 255.171875 115.703125 L 244.226562 115.832031 L 234.351562 141.398438 Z M 244.882812 141.453125 " fill-opacity="1" fill-rule="evenodd"/><path fill="#0e293c" d="M 0.171875 108.464844 L 161.90625 108.816406 L 153.339844 147.851562 L 4.570312 147.730469 L 3.472656 137.945312 L 26.496094 137.945312 L 26.496094 135.460938 L 3.195312 135.460938 L 2.824219 132.144531 L 31.566406 132.144531 L 31.566406 129.660156 L 2.546875 129.660156 L 2.171875 126.335938 L 21.316406 126.335938 L 21.316406 123.855469 L 1.894531 123.855469 Z M 0.171875 108.464844 " fill-opacity="1" fill-rule="evenodd"/><path fill="#fbca03" d="M 38.472656 142.164062 L 31.207031 142.132812 L 41.980469 114.5625 L 55.402344 114.277344 L 54.449219 119.902344 L 46.644531 119.613281 L 44.359375 125.617188 L 50.167969 126 L 48.261719 130.859375 L 42.359375 130.957031 Z M 38.472656 142.164062 " fill-opacity="1" fill-rule="evenodd"/><path fill="#fcfef8" d="M 37.105469 140.230469 L 40.980469 129.050781 L 46.941406 128.953125 L 47.410156 127.75 L 41.632812 127.371094 L 45.335938 117.636719 L 52.832031 117.914062 L 53.113281 116.253906 L 43.304688 116.464844 L 34.023438 140.21875 Z M 37.105469 140.230469 " fill-opacity="1" fill-rule="evenodd"/><path fill="#fbca03" d="M 65.796875 114.445312 L 58.320312 114.511719 L 47.804688 141.996094 L 60.703125 142.257812 L 63.945312 136.761719 L 57 136.695312 Z M 65.796875 114.445312 " fill-opacity="1" fill-rule="evenodd"/><path fill="#fcfef8" d="M 62.691406 116.578125 L 59.773438 116.605469 L 50.839844 139.949219 L 59.515625 140.128906 L 60.28125 138.835938 L 53.914062 138.773438 Z M 62.691406 116.578125 " fill-opacity="1" fill-rule="evenodd"/><path fill="#fbca03" d="M 70.277344 142.171875 L 63.210938 142.023438 L 79.921875 114.390625 L 87.53125 114.152344 L 83.132812 142.242188 L 76.15625 142.238281 L 76.738281 138.523438 L 72.101562 138.558594 Z M 78.035156 134.175781 L 79.757812 124.835938 L 74.671875 134.0625 Z M 78.035156 134.175781 " fill-opacity="1" fill-rule="evenodd"/><path fill="#fcfef8" d="M 69.457031 140.804688 L 71.265625 137.214844 L 78.320312 137.164062 L 77.734375 140.890625 L 81.980469 140.890625 L 85.949219 115.554688 L 80.699219 115.71875 L 65.574219 140.722656 Z M 79.152344 135.566406 L 72.429688 135.335938 L 82.589844 116.902344 Z M 79.152344 135.566406 " fill-opacity="1" fill-rule="evenodd"/><path fill="#fbca03" d="M 96.871094 141.796875 C 93.140625 141.84375 89.410156 141.886719 85.679688 141.933594 C 85.882812 140.199219 86.085938 138.464844 86.289062 136.730469 C 89.019531 136.710938 91.753906 136.6875 94.484375 136.664062 C 95.285156 134.589844 96.085938 132.511719 96.882812 130.433594 C 94.636719 130.414062 92.390625 130.390625 90.140625 130.371094 C 89.0625 129.90625 88.753906 128.851562 89.234375 127.191406 C 90.617188 123.6875 92 120.183594 93.382812 116.679688 C 94.308594 115.3125 95.578125 114.527344 97.207031 114.339844 C 101.035156 114.363281 104.859375 114.386719 108.683594 114.40625 C 108.53125 116.117188 108.378906 117.824219 108.230469 119.535156 C 105.226562 119.46875 102.222656 119.402344 99.21875 119.339844 C 98.484375 121.394531 97.75 123.449219 97.015625 125.503906 C 99.109375 125.546875 101.207031 125.589844 103.300781 125.632812 C 104.714844 125.742188 105.25 126.519531 104.726562 128.097656 C 103.453125 131.582031 102.179688 135.0625 100.902344 138.546875 C 100.273438 140.289062 98.929688 141.367188 96.871094 141.796875 Z M 96.871094 141.796875 " fill-opacity="1" fill-rule="evenodd"/><path fill="#fcfef8" d="M 97.296875 115.835938 C 96.1875 115.984375 95.355469 116.492188 94.707031 117.390625 C 93.355469 120.816406 92.003906 124.242188 90.652344 127.667969 C 90.5625 127.992188 90.453125 128.511719 90.539062 128.816406 C 90.546875 128.839844 90.554688 128.859375 90.566406 128.878906 C 92.675781 128.898438 94.789062 128.917969 96.898438 128.941406 L 99.050781 128.960938 L 98.277344 130.972656 C 97.476562 133.050781 96.679688 135.125 95.878906 137.203125 L 95.515625 138.152344 L 94.496094 138.160156 C 92.203125 138.179688 89.910156 138.195312 87.617188 138.214844 C 87.53125 138.949219 87.445312 139.683594 87.359375 140.417969 C 90.472656 140.378906 93.585938 140.34375 96.703125 140.304688 C 98.023438 140 99.019531 139.355469 99.5 138.035156 C 100.765625 134.558594 102.042969 131.085938 103.316406 127.609375 C 103.351562 127.503906 103.40625 127.308594 103.425781 127.15625 C 103.355469 127.140625 103.277344 127.132812 103.222656 127.128906 C 101.144531 127.085938 99.0625 127.042969 96.984375 127 L 94.910156 126.957031 L 95.609375 125 C 96.34375 122.945312 97.078125 120.890625 97.8125 118.835938 L 98.175781 117.820312 L 99.25 117.84375 C 101.789062 117.898438 104.324219 117.953125 106.863281 118.007812 C 106.925781 117.304688 106.988281 116.597656 107.050781 115.894531 C 103.800781 115.875 100.546875 115.855469 97.296875 115.835938 Z M 97.296875 115.835938 " fill-opacity="1" fill-rule="evenodd"/><path fill="#fbca03" d="M 109.222656 142.097656 L 101.972656 141.863281 L 113.042969 114.082031 L 120.136719 114.238281 L 115.382812 126.101562 L 119.359375 125.945312 L 123.722656 114.082031 L 130.738281 114.394531 L 119.902344 142.253906 L 112.652344 142.253906 L 117.097656 130.863281 L 113.121094 130.863281 Z M 109.222656 142.097656 " fill-opacity="1" fill-rule="evenodd"/><path fill="#fcfef8" d="M 108.046875 140.386719 L 111.933594 129.1875 L 119.542969 129.1875 L 115.101562 140.582031 L 118.761719 140.582031 L 128.335938 115.964844 L 124.871094 115.808594 L 120.539062 127.574219 L 112.871094 127.875 L 117.6875 115.859375 L 114.164062 115.78125 L 104.410156 140.269531 Z M 108.046875 140.386719 " fill-opacity="1" fill-rule="evenodd"/><g clip-path="url(#ed26f8d0d2)"><path fill="#fbca03" d="M 153.453125 77.730469 C 170.800781 78.566406 179.472656 78.984375 179.472656 78.984375 C 167.253906 96.453125 161.726562 104.355469 161.726562 104.355469 L 173.636719 102.050781 L 157.867188 129.242188 C 169.1875 127.242188 177.527344 126.0625 177.527344 126.0625 C 151.179688 160.394531 138.007812 177.5625 138.007812 177.5625 C 148.996094 151.707031 154.488281 138.777344 154.488281 138.777344 C 140.0625 140.984375 132.847656 142.089844 132.847656 142.089844 C 145.792969 123.398438 152.261719 114.050781 152.261719 114.050781 C 139.558594 114.777344 133.207031 115.140625 133.207031 115.140625 C 146.027344 89.703125 152.777344 77.230469 153.453125 77.730469 Z M 153.453125 77.730469 " fill-opacity="1" fill-rule="evenodd"/></g><path fill="#fcfef8" d="M 168.222656 82.769531 L 145.808594 109.050781 L 164.574219 107.648438 L 146.835938 133.910156 L 167.835938 131.046875 L 147.148438 161.972656 L 160.753906 135.007812 L 141.847656 136.878906 L 159.675781 110.492188 L 139.917969 111.964844 L 157.300781 82.667969 Z M 168.222656 82.769531 " fill-opacity="1" fill-rule="nonzero"/><g fill="#f10505" fill-opacity="1"><g transform="translate(39.964504, 100.604497)"><g><path d="M 27.28125 1.390625 C 26.21875 1.390625 24.972656 1.191406 23.546875 0.796875 C 22.117188 0.410156 20.707031 -0.316406 19.3125 -1.390625 C 17.925781 -2.460938 16.765625 -4.03125 15.828125 -6.09375 C 14.898438 -8.164062 14.4375 -10.878906 14.4375 -14.234375 C 14.4375 -17.367188 14.507812 -22.09375 14.65625 -28.40625 C 14.800781 -34.71875 15.335938 -42.40625 16.265625 -51.46875 C 15.191406 -50.75 14.117188 -50.15625 13.046875 -49.6875 C 11.984375 -49.226562 10.988281 -49 10.0625 -49 C 7.988281 -49 6.113281 -49.601562 4.4375 -50.8125 C 2.757812 -52.03125 1.921875 -53.75 1.921875 -55.96875 C 1.921875 -56.820312 2.242188 -57.460938 2.890625 -57.890625 C 7.523438 -60.671875 11.375 -63.769531 14.4375 -67.1875 C 17.507812 -70.613281 20.046875 -73.863281 22.046875 -76.9375 C 23.253906 -76.9375 24.625 -76.628906 26.15625 -76.015625 C 27.695312 -75.410156 29 -74.179688 30.0625 -72.328125 C 31.28125 -71.898438 32.101562 -71.203125 32.53125 -70.234375 C 32.957031 -69.273438 33.171875 -68.15625 33.171875 -66.875 C 33.171875 -65.019531 33.0625 -62.238281 32.84375 -58.53125 C 32.632812 -54.820312 32.347656 -50.539062 31.984375 -45.6875 C 31.628906 -40.832031 31.289062 -35.75 30.96875 -30.4375 C 30.65625 -25.125 30.375 -19.863281 30.125 -14.65625 C 29.875 -9.445312 29.710938 -4.632812 29.640625 -0.21875 C 29.640625 0.425781 29.40625 0.851562 28.9375 1.0625 C 28.476562 1.28125 27.925781 1.390625 27.28125 1.390625 Z M 27.28125 1.390625 "/></g></g></g><g fill="#f10505" fill-opacity="1"><g transform="translate(80.945579, 100.604497)"><g><path d="M 17.765625 1.8125 C 15.691406 1.8125 13.796875 1.363281 12.078125 0.46875 C 10.367188 -0.414062 9.015625 -1.550781 8.015625 -2.9375 C 7.023438 -4.332031 6.53125 -5.742188 6.53125 -7.171875 C 6.53125 -7.671875 6.671875 -8.171875 6.953125 -8.671875 C 7.242188 -9.171875 7.566406 -9.597656 7.921875 -9.953125 C 13.128906 -15.296875 17.460938 -20.609375 20.921875 -25.890625 C 24.378906 -31.171875 27.265625 -36.820312 29.578125 -42.84375 C 31.898438 -48.875 33.988281 -55.671875 35.84375 -63.234375 C 29.707031 -61.234375 24.144531 -60.234375 19.15625 -60.234375 C 14.019531 -60.234375 9.8125 -61.335938 6.53125 -63.546875 C 3.25 -65.765625 1.609375 -69.265625 1.609375 -74.046875 C 1.609375 -74.679688 1.859375 -75.125 2.359375 -75.375 C 2.859375 -75.625 3.359375 -75.75 3.859375 -75.75 C 4.847656 -75.75 6.644531 -75.820312 9.25 -75.96875 C 11.851562 -76.113281 14.707031 -76.253906 17.8125 -76.390625 C 20.914062 -76.535156 23.875 -76.679688 26.6875 -76.828125 C 29.507812 -76.972656 31.632812 -77.046875 33.0625 -77.046875 C 35.769531 -77.046875 38.210938 -76.828125 40.390625 -76.390625 C 42.566406 -75.960938 44.007812 -74.929688 44.71875 -73.296875 C 46.507812 -72.296875 47.671875 -71.1875 48.203125 -69.96875 C 48.734375 -68.757812 49 -67.226562 49 -65.375 C 49 -63.875 48.75 -61.554688 48.25 -58.421875 C 47.757812 -55.285156 47.03125 -51.644531 46.0625 -47.5 C 45.101562 -43.363281 43.941406 -39.046875 42.578125 -34.546875 C 41.222656 -30.054688 39.65625 -25.65625 37.875 -21.34375 C 36.09375 -17.03125 34.164062 -13.125 32.09375 -9.625 C 30.03125 -6.132812 27.785156 -3.351562 25.359375 -1.28125 C 22.929688 0.78125 20.398438 1.8125 17.765625 1.8125 Z M 17.765625 1.8125 "/></g></g></g><g fill="#f10505" fill-opacity="1"><g transform="translate(133.268675, 100.604497)"><g><path d="M 11.984375 -31.671875 C 10.835938 -31.671875 9.550781 -31.988281 8.125 -32.625 C 6.695312 -33.269531 5.34375 -34.070312 4.0625 -35.03125 C 2.78125 -36 1.710938 -36.945312 0.859375 -37.875 C 0.00390625 -38.800781 -0.421875 -39.515625 -0.421875 -40.015625 C -0.421875 -41.234375 0.0195312 -42.019531 0.90625 -42.375 C 1.800781 -42.726562 2.851562 -42.90625 4.0625 -42.90625 C 7.34375 -42.90625 10.445312 -42.941406 13.375 -43.015625 C 16.300781 -43.085938 18.726562 -43.140625 20.65625 -43.171875 C 22.582031 -43.210938 23.6875 -43.234375 23.96875 -43.234375 C 26.175781 -43.234375 28.28125 -42.75 30.28125 -41.78125 C 32.28125 -40.820312 33.921875 -39.71875 35.203125 -38.46875 C 36.484375 -37.21875 37.125 -36.128906 37.125 -35.203125 C 37.125 -34.421875 36.75 -33.707031 36 -33.0625 C 35.25 -32.414062 34.054688 -32.0625 32.421875 -32 C 28.992188 -31.851562 26.082031 -31.757812 23.6875 -31.71875 C 21.300781 -31.6875 19.179688 -31.671875 17.328125 -31.671875 Z M 11.984375 -31.671875 "/></g></g></g><g fill="#f10505" fill-opacity="1"><g transform="translate(171.788741, 100.604497)"><g><path d="M 27.28125 1.390625 C 26.21875 1.390625 24.972656 1.191406 23.546875 0.796875 C 22.117188 0.410156 20.707031 -0.316406 19.3125 -1.390625 C 17.925781 -2.460938 16.765625 -4.03125 15.828125 -6.09375 C 14.898438 -8.164062 14.4375 -10.878906 14.4375 -14.234375 C 14.4375 -17.367188 14.507812 -22.09375 14.65625 -28.40625 C 14.800781 -34.71875 15.335938 -42.40625 16.265625 -51.46875 C 15.191406 -50.75 14.117188 -50.15625 13.046875 -49.6875 C 11.984375 -49.226562 10.988281 -49 10.0625 -49 C 7.988281 -49 6.113281 -49.601562 4.4375 -50.8125 C 2.757812 -52.03125 1.921875 -53.75 1.921875 -55.96875 C 1.921875 -56.820312 2.242188 -57.460938 2.890625 -57.890625 C 7.523438 -60.671875 11.375 -63.769531 14.4375 -67.1875 C 17.507812 -70.613281 20.046875 -73.863281 22.046875 -76.9375 C 23.253906 -76.9375 24.625 -76.628906 26.15625 -76.015625 C 27.695312 -75.410156 29 -74.179688 30.0625 -72.328125 C 31.28125 -71.898438 32.101562 -71.203125 32.53125 -70.234375 C 32.957031 -69.273438 33.171875 -68.15625 33.171875 -66.875 C 33.171875 -65.019531 33.0625 -62.238281 32.84375 -58.53125 C 32.632812 -54.820312 32.347656 -50.539062 31.984375 -45.6875 C 31.628906 -40.832031 31.289062 -35.75 30.96875 -30.4375 C 30.65625 -25.125 30.375 -19.863281 30.125 -14.65625 C 29.875 -9.445312 29.710938 -4.632812 29.640625 -0.21875 C 29.640625 0.425781 29.40625 0.851562 28.9375 1.0625 C 28.476562 1.28125 27.925781 1.390625 27.28125 1.390625 Z M 27.28125 1.390625 "/></g></g></g><g fill="#f10505" fill-opacity="1"><g transform="translate(212.769817, 100.604497)"><g><path d="M 34.5625 1.609375 C 30.851562 1.609375 27.535156 1.125 24.609375 0.15625 C 21.679688 -0.800781 19.289062 -2.382812 17.4375 -4.59375 C 13.519531 -6.738281 10.507812 -9.878906 8.40625 -14.015625 C 6.300781 -18.148438 5.25 -22.570312 5.25 -27.28125 C 5.25 -30.914062 5.550781 -34.960938 6.15625 -39.421875 C 6.757812 -43.878906 7.71875 -48.351562 9.03125 -52.84375 C 10.351562 -57.34375 12.082031 -61.484375 14.21875 -65.265625 C 16.363281 -69.046875 19.023438 -72.078125 22.203125 -74.359375 C 25.378906 -76.648438 29.109375 -77.796875 33.390625 -77.796875 C 36.304688 -77.796875 38.976562 -77.398438 41.40625 -76.609375 C 43.832031 -75.828125 45.9375 -74.296875 47.71875 -72.015625 C 51.425781 -71.015625 54.367188 -69.28125 56.546875 -66.8125 C 58.722656 -64.351562 60.289062 -61.535156 61.25 -58.359375 C 62.21875 -55.191406 62.703125 -52.039062 62.703125 -48.90625 C 62.703125 -45.257812 62.398438 -41.207031 61.796875 -36.75 C 61.191406 -32.289062 60.242188 -27.8125 58.953125 -23.3125 C 57.671875 -18.820312 55.941406 -14.6875 53.765625 -10.90625 C 51.585938 -7.132812 48.910156 -4.101562 45.734375 -1.8125 C 42.566406 0.46875 38.84375 1.609375 34.5625 1.609375 Z M 29.109375 -9.84375 C 31.390625 -9.84375 33.492188 -10.71875 35.421875 -12.46875 C 37.347656 -14.21875 39.054688 -16.550781 40.546875 -19.46875 C 42.046875 -22.394531 43.3125 -25.640625 44.34375 -29.203125 C 45.382812 -32.773438 46.171875 -36.429688 46.703125 -40.171875 C 47.242188 -43.921875 47.515625 -47.4375 47.515625 -50.71875 C 47.515625 -56.425781 46.867188 -60.457031 45.578125 -62.8125 C 44.296875 -65.164062 42.050781 -66.34375 38.84375 -66.34375 C 36.34375 -66.34375 34.09375 -65.46875 32.09375 -63.71875 C 30.101562 -61.96875 28.375 -59.628906 26.90625 -56.703125 C 25.445312 -53.785156 24.234375 -50.539062 23.265625 -46.96875 C 22.304688 -43.40625 21.59375 -39.769531 21.125 -36.0625 C 20.664062 -32.351562 20.4375 -28.820312 20.4375 -25.46875 C 20.4375 -19.832031 21.078125 -15.816406 22.359375 -13.421875 C 23.640625 -11.035156 25.890625 -9.84375 29.109375 -9.84375 Z M 29.109375 -9.84375 "/></g></g></g></g></g></g></svg>