<svg xmlns="http://www.w3.org/2000/svg" xmlns:xlink="http://www.w3.org/1999/xlink" width="74" zoomAndPan="magnify" viewBox="0 0 55.5 30.75" height="41" preserveAspectRatio="xMidYMid meet" version="1.0"><defs><clipPath id="0a080d49e1"><path d="M 1 0.0117188 L 55 0.0117188 L 55 27 L 1 27 Z M 1 0.0117188 " clip-rule="nonzero"/></clipPath></defs><path fill="#000000" d="M 7.703125 22.996094 C 7.484375 22.972656 7.148438 22.78125 6.910156 22.585938 C 4.636719 20.378906 7.554688 17.84375 10.933594 16.375 L 10.933594 12.179688 C 11.726562 12.679688 12.15625 12.703125 12.179688 12.773438 L 14.769531 10.238281 L 13.902344 8.058594 C 21.476562 5.472656 24.515625 4.476562 30.671875 3.457031 L 29.570312 2.4375 L 31.367188 1.417969 C 35.515625 2.773438 39.414062 3.125 38.742188 6.5625 C 38.914062 4.238281 35.988281 3.335938 31.535156 2.105469 L 30.671875 2.625 L 32.332031 3.976562 C 24.957031 5.234375 20.425781 6.65625 15.039062 8.496094 L 15.777344 10.386719 L 13.074219 13.015625 C 13.527344 13.132812 18.246094 14.699219 23.15625 11.308594 C 23.15625 11.308594 23.253906 11.238281 23.253906 11.214844 C 23.109375 10.976562 22.773438 10.714844 22.367188 10.359375 C 23.804688 10.457031 24.738281 11.710938 24.570312 13.015625 L 23.898438 13.015625 C 23.941406 12.605469 23.875 12.210938 23.707031 11.832031 C 19.898438 14.582031 15.492188 14.984375 11.730469 13.679688 L 11.730469 16.925781 C 9.910156 17.566406 6.652344 19.554688 6.664062 21.476562 C 6.785156 22.398438 7.265625 22.730469 7.695312 22.96875 " fill-opacity="1" fill-rule="nonzero"/><g clip-path="url(#0a080d49e1)"><path fill="#ff6600" d="M 23.109375 22.164062 C 19.035156 24.203125 15.140625 25.839844 9.121094 26.074219 C 1.285156 25.910156 0.0664062 20.765625 3.777344 15.386719 C 7.273438 9.957031 12.832031 5.050781 21.671875 1.992188 C 24.234375 1.09375 28 0.0742188 31.636719 0.0273438 C 36.867188 -0.0234375 41.929688 1.589844 41.601562 6.542969 C 41.410156 10.335938 35.878906 15.695312 32.953125 19.535156 C 31.707031 21.214844 31.492188 22.304688 33.625 22.210938 C 41.363281 21.714844 48.378906 19.058594 54.898438 16.308594 C 50.488281 19.273438 27.707031 30.433594 27.613281 22.828125 C 27.636719 21.855469 28.089844 20.835938 28.832031 19.746094 C 29.554688 18.65625 30.558594 17.515625 31.589844 16.355469 C 33.144531 14.601562 37 10.40625 38.296875 7.894531 C 40.476562 3.128906 35.589844 2.882812 31.371094 1.421875 L 29.574219 2.441406 L 30.679688 3.460938 C 24.523438 4.480469 21.480469 5.476562 13.910156 8.0625 L 14.773438 10.242188 L 12.1875 12.777344 C 12.113281 12.707031 11.730469 12.683594 10.941406 12.183594 L 10.941406 16.378906 C 7.5625 17.859375 4.632812 20.386719 6.917969 22.589844 C 7.15625 22.78125 7.492188 22.96875 7.707031 23 C 11.859375 25.324219 23.132812 22.179688 23.113281 22.179688 " fill-opacity="1" fill-rule="nonzero"/></g></svg>