<svg xmlns="http://www.w3.org/2000/svg" xmlns:xlink="http://www.w3.org/1999/xlink" width="40" zoomAndPan="magnify" viewBox="0 0 30 30.750001" height="41" preserveAspectRatio="xMidYMid meet" version="1.0"><defs><clipPath id="8dac466097"><path d="M 0.121094 22 L 29.878906 22 L 29.878906 30.503906 L 0.121094 30.503906 Z M 0.121094 22 " clip-rule="nonzero"/></clipPath><clipPath id="98c7ec0f09"><path d="M 5 0.371094 L 26 0.371094 L 26 23 L 5 23 Z M 5 0.371094 " clip-rule="nonzero"/></clipPath><clipPath id="b4ac919dac"><path d="M 0.121094 22 L 29.878906 22 L 29.878906 30.503906 L 0.121094 30.503906 Z M 0.121094 22 " clip-rule="nonzero"/></clipPath><clipPath id="93d5b4ad58"><path d="M 5 0.371094 L 26 0.371094 L 26 23 L 5 23 Z M 5 0.371094 " clip-rule="nonzero"/></clipPath></defs><g clip-path="url(#8dac466097)"><path fill="#ff9900" d="M 26.078125 24.996094 C 13.652344 30.871094 5.941406 25.957031 1.003906 22.972656 C 0.699219 22.78125 0.179688 23.015625 0.628906 23.527344 C 2.273438 25.507812 7.664062 30.285156 14.699219 30.285156 C 21.734375 30.285156 25.925781 26.46875 26.453125 25.800781 C 26.972656 25.140625 26.605469 24.777344 26.078125 24.996094 Z M 29.570312 23.082031 C 29.234375 22.652344 27.539062 22.570312 26.472656 22.699219 C 25.40625 22.828125 23.800781 23.476562 23.9375 23.867188 C 24.011719 24.011719 24.15625 23.945312 24.890625 23.882812 C 25.628906 23.808594 27.6875 23.550781 28.117188 24.109375 C 28.550781 24.671875 27.460938 27.347656 27.261719 27.78125 C 27.070312 28.210938 27.335938 28.324219 27.695312 28.035156 C 28.054688 27.746094 28.695312 27.003906 29.128906 25.949219 C 29.558594 24.890625 29.820312 23.414062 29.566406 23.082031 Z M 29.570312 23.082031 " fill-opacity="1" fill-rule="nonzero"/></g><g clip-path="url(#98c7ec0f09)"><path fill="#000000" d="M 17.722656 13.007812 C 17.722656 14.550781 17.761719 15.835938 16.976562 17.203125 C 16.34375 18.316406 15.339844 19 14.222656 19 C 12.691406 19 11.800781 17.84375 11.800781 16.132812 C 11.800781 12.761719 14.84375 12.148438 17.722656 12.148438 Z M 21.738281 22.652344 C 21.476562 22.886719 21.09375 22.902344 20.796875 22.75 C 19.476562 21.65625 19.242188 21.152344 18.511719 20.109375 C 16.328125 22.324219 14.78125 22.988281 11.945312 22.988281 C 8.597656 22.988281 5.988281 20.933594 5.988281 16.820312 C 5.988281 13.609375 7.738281 11.421875 10.234375 10.351562 C 12.394531 9.40625 15.414062 9.238281 17.722656 8.976562 L 17.722656 8.464844 C 17.722656 7.523438 17.796875 6.410156 17.242188 5.597656 C 16.753906 4.871094 15.824219 4.570312 15.003906 4.570312 C 13.488281 4.570312 12.132812 5.34375 11.800781 6.945312 C 11.734375 7.300781 11.46875 7.652344 11.113281 7.667969 L 7.246094 7.257812 C 6.921875 7.1875 6.5625 6.925781 6.652344 6.429688 C 7.542969 1.773438 11.773438 0.371094 15.558594 0.371094 C 17.5 0.371094 20.03125 0.882812 21.558594 2.34375 C 23.5 4.140625 23.3125 6.539062 23.3125 9.148438 L 23.3125 15.316406 C 23.3125 17.171875 24.085938 17.984375 24.8125 18.984375 C 25.070312 19.34375 25.128906 19.769531 24.804688 20.039062 C 23.992188 20.710938 22.546875 21.964844 21.75 22.664062 L 21.738281 22.65625 Z M 21.738281 22.652344 " fill-opacity="1" fill-rule="evenodd"/></g><g clip-path="url(#b4ac919dac)"><path fill="#ff9900" d="M 26.078125 24.996094 C 13.652344 30.871094 5.941406 25.957031 1.003906 22.972656 C 0.699219 22.78125 0.179688 23.015625 0.628906 23.527344 C 2.273438 25.507812 7.664062 30.285156 14.699219 30.285156 C 21.734375 30.285156 25.925781 26.46875 26.453125 25.800781 C 26.972656 25.140625 26.605469 24.777344 26.078125 24.996094 Z M 29.570312 23.082031 C 29.234375 22.652344 27.539062 22.570312 26.472656 22.699219 C 25.40625 22.828125 23.800781 23.476562 23.9375 23.867188 C 24.011719 24.011719 24.15625 23.945312 24.890625 23.882812 C 25.628906 23.808594 27.6875 23.550781 28.117188 24.109375 C 28.550781 24.671875 27.460938 27.347656 27.261719 27.78125 C 27.070312 28.210938 27.335938 28.324219 27.695312 28.035156 C 28.054688 27.746094 28.695312 27.003906 29.128906 25.949219 C 29.558594 24.890625 29.820312 23.414062 29.566406 23.082031 Z M 29.570312 23.082031 " fill-opacity="1" fill-rule="nonzero"/></g><g clip-path="url(#93d5b4ad58)"><path fill="#000000" d="M 17.722656 13.007812 C 17.722656 14.550781 17.761719 15.835938 16.976562 17.203125 C 16.34375 18.316406 15.339844 19 14.222656 19 C 12.691406 19 11.800781 17.84375 11.800781 16.132812 C 11.800781 12.761719 14.84375 12.148438 17.722656 12.148438 Z M 21.738281 22.652344 C 21.476562 22.886719 21.09375 22.902344 20.796875 22.75 C 19.476562 21.65625 19.242188 21.152344 18.511719 20.109375 C 16.328125 22.324219 14.78125 22.988281 11.945312 22.988281 C 8.597656 22.988281 5.988281 20.933594 5.988281 16.820312 C 5.988281 13.609375 7.738281 11.421875 10.234375 10.351562 C 12.394531 9.40625 15.414062 9.238281 17.722656 8.976562 L 17.722656 8.464844 C 17.722656 7.523438 17.796875 6.410156 17.242188 5.597656 C 16.753906 4.871094 15.824219 4.570312 15.003906 4.570312 C 13.488281 4.570312 12.132812 5.34375 11.800781 6.945312 C 11.734375 7.300781 11.46875 7.652344 11.113281 7.667969 L 7.246094 7.257812 C 6.921875 7.1875 6.5625 6.925781 6.652344 6.429688 C 7.542969 1.773438 11.773438 0.371094 15.558594 0.371094 C 17.5 0.371094 20.03125 0.882812 21.558594 2.34375 C 23.5 4.140625 23.3125 6.539062 23.3125 9.148438 L 23.3125 15.316406 C 23.3125 17.171875 24.085938 17.984375 24.8125 18.984375 C 25.070312 19.34375 25.128906 19.769531 24.804688 20.039062 C 23.992188 20.710938 22.546875 21.964844 21.75 22.664062 L 21.738281 22.65625 Z M 21.738281 22.652344 " fill-opacity="1" fill-rule="evenodd"/></g></svg>