<svg xmlns="http://www.w3.org/2000/svg" xmlns:xlink="http://www.w3.org/1999/xlink" width="50" zoomAndPan="magnify" viewBox="0 0 37.5 33.749999" height="45" preserveAspectRatio="xMidYMid meet" version="1.0"><defs><clipPath id="18e2162bde"><path d="M 0 0.0976562 L 37.007812 0.0976562 L 37.007812 33.40625 L 0 33.40625 Z M 0 0.0976562 " clip-rule="nonzero"/></clipPath></defs><path fill="#ff6084" d="M 11.402344 21.144531 C 11.550781 20.5625 11.382812 19.890625 11.015625 19.617188 C 10.695312 19.378906 10.117188 19.28125 9.347656 19.339844 C 9.050781 19.363281 8.746094 19.40625 8.421875 19.449219 C 8.445312 19.515625 8.460938 19.582031 8.476562 19.652344 C 8.585938 20.210938 8.417969 20.785156 8.023438 21.195312 L 7.339844 21.902344 C 7.097656 22.148438 7.035156 22.492188 7.167969 22.8125 C 7.300781 23.132812 7.585938 23.328125 7.933594 23.332031 L 8.917969 23.351562 C 9.066406 23.355469 9.210938 23.375 9.351562 23.414062 C 9.539062 23.308594 9.714844 23.195312 9.886719 23.074219 C 10.6875 22.511719 11.226562 21.828125 11.402344 21.144531 Z M 11.402344 21.144531 " fill-opacity="1" fill-rule="nonzero"/><path fill="#ff6084" d="M 17.234375 20.519531 C 17.238281 20.519531 17.238281 20.519531 17.238281 20.519531 C 17.355469 20.519531 17.632812 20.390625 17.925781 20.089844 C 17.96875 20.042969 18.015625 19.992188 18.058594 19.941406 C 17.875 19.816406 17.605469 19.761719 17.414062 19.832031 C 17.21875 19.90625 17.058594 20.148438 17.066406 20.292969 C 17.070312 20.371094 17.171875 20.496094 17.234375 20.519531 Z M 17.234375 20.519531 " fill-opacity="1" fill-rule="nonzero"/><path fill="#ff6084" d="M 22.503906 24.878906 C 22.578125 24.4375 22.839844 24.042969 23.214844 23.796875 L 24.496094 22.957031 C 24.410156 22.382812 24.414062 21.808594 24.5 21.242188 C 24.515625 21.125 24.539062 21.011719 24.5625 20.894531 C 24.261719 20.699219 23.984375 20.472656 23.730469 20.214844 C 22.992188 19.464844 22.527344 18.574219 22.210938 17.746094 C 22.269531 18.28125 22.25 18.835938 22.144531 19.382812 C 22.761719 19.421875 23.34375 19.777344 23.636719 20.371094 C 24.070312 21.25 23.707031 22.3125 22.824219 22.746094 C 22.457031 22.925781 22.058594 23.019531 21.652344 23.019531 C 21.261719 23.019531 20.859375 22.933594 20.46875 22.761719 C 20.425781 22.742188 20.382812 22.71875 20.339844 22.699219 C 19.933594 23.089844 19.492188 23.402344 19.023438 23.632812 C 18.441406 23.921875 17.84375 24.066406 17.242188 24.066406 C 17.144531 24.066406 17.042969 24.0625 16.945312 24.054688 C 16.050781 23.984375 15.199219 23.566406 14.554688 22.878906 C 14.339844 23.386719 14.050781 23.871094 13.6875 24.332031 C 13.210938 24.941406 12.621094 25.496094 11.933594 25.976562 C 11.339844 26.394531 10.710938 26.734375 10.085938 27.027344 C 10.105469 27.214844 10.1875 27.394531 10.332031 27.539062 C 10.578125 27.78125 10.917969 27.851562 11.242188 27.726562 L 12.160156 27.367188 C 12.6875 27.160156 13.285156 27.222656 13.757812 27.539062 C 14.234375 27.855469 14.519531 28.382812 14.53125 28.949219 L 14.550781 29.929688 C 14.554688 30.277344 14.75 30.5625 15.074219 30.695312 C 15.394531 30.828125 15.734375 30.761719 15.984375 30.523438 L 16.695312 29.84375 C 17.019531 29.527344 17.453125 29.355469 17.902344 29.355469 C 18.011719 29.355469 18.125 29.367188 18.238281 29.390625 C 18.796875 29.5 19.265625 29.878906 19.492188 30.398438 L 19.886719 31.296875 C 20.011719 31.585938 20.261719 31.765625 20.566406 31.800781 C 20.570312 31.800781 20.574219 31.800781 20.578125 31.800781 C 20.808594 31.824219 21.109375 31.75 21.316406 31.503906 C 21.316406 31.5 21.320312 31.496094 21.324219 31.492188 C 21.328125 31.488281 21.332031 31.484375 21.335938 31.480469 C 21.339844 31.472656 21.34375 31.46875 21.34375 31.464844 C 21.347656 31.460938 21.351562 31.457031 21.351562 31.453125 C 21.363281 31.4375 21.371094 31.425781 21.378906 31.410156 C 21.382812 31.410156 21.382812 31.410156 21.382812 31.410156 C 21.386719 31.402344 21.386719 31.398438 21.390625 31.394531 C 21.394531 31.386719 21.398438 31.382812 21.402344 31.378906 C 21.402344 31.371094 21.40625 31.367188 21.410156 31.363281 C 21.410156 31.359375 21.414062 31.351562 21.414062 31.347656 Z M 22.503906 24.878906 " fill-opacity="1" fill-rule="nonzero"/><path fill="#ff6084" d="M 32.851562 19.652344 C 32.863281 19.589844 32.878906 19.53125 32.898438 19.46875 C 32.609375 19.519531 32.316406 19.546875 32.023438 19.546875 C 31.773438 19.546875 31.523438 19.527344 31.273438 19.488281 C 30.488281 19.371094 29.753906 19.066406 29.113281 18.625 C 29.257812 18.792969 29.375 18.988281 29.449219 19.210938 C 29.769531 20.136719 29.273438 21.144531 28.34375 21.460938 C 28.234375 21.5 28.128906 21.53125 28.019531 21.558594 C 27.949219 22.277344 27.730469 22.976562 27.378906 23.605469 L 28.171875 24.628906 C 28.445312 24.980469 28.558594 25.4375 28.484375 25.882812 L 28.25 27.269531 C 28.554688 27.222656 28.871094 27.253906 29.167969 27.367188 L 30.082031 27.726562 C 30.164062 27.757812 30.242188 27.777344 30.320312 27.785156 C 30.328125 27.785156 30.332031 27.785156 30.335938 27.785156 C 30.339844 27.785156 30.34375 27.785156 30.347656 27.785156 C 30.355469 27.785156 30.363281 27.789062 30.367188 27.789062 C 30.371094 27.789062 30.371094 27.789062 30.371094 27.789062 C 30.53125 27.792969 30.691406 27.75 30.824219 27.667969 C 30.832031 27.667969 30.835938 27.664062 30.839844 27.660156 C 30.84375 27.660156 30.84375 27.65625 30.847656 27.65625 C 30.898438 27.621094 30.949219 27.582031 30.992188 27.539062 C 31.007812 27.523438 31.019531 27.511719 31.03125 27.5 C 31.042969 27.480469 31.058594 27.464844 31.074219 27.445312 C 31.226562 27.246094 31.277344 27.003906 31.222656 26.761719 C 31.222656 26.753906 31.21875 26.746094 31.21875 26.738281 C 31.21875 26.738281 31.21875 26.734375 31.214844 26.730469 C 31.214844 26.726562 31.214844 26.71875 31.210938 26.714844 C 31.210938 26.710938 31.210938 26.707031 31.207031 26.703125 C 31.207031 26.695312 31.203125 26.691406 31.203125 26.6875 C 31.203125 26.679688 31.199219 26.675781 31.199219 26.667969 C 31.195312 26.667969 31.195312 26.664062 31.195312 26.660156 C 31.191406 26.648438 31.1875 26.640625 31.183594 26.628906 L 30.824219 25.71875 C 30.808594 25.675781 30.792969 25.636719 30.78125 25.59375 C 30.625 25.097656 30.703125 24.554688 30.996094 24.121094 C 31.015625 24.089844 31.035156 24.0625 31.058594 24.035156 C 31.378906 23.613281 31.875 23.359375 32.410156 23.351562 L 33.390625 23.332031 C 33.738281 23.328125 34.027344 23.132812 34.160156 22.8125 C 34.261719 22.570312 34.25 22.320312 34.136719 22.101562 C 34.097656 22.03125 34.046875 21.964844 33.988281 21.902344 L 33.304688 21.195312 C 32.984375 20.863281 32.8125 20.421875 32.816406 19.96875 C 32.820312 19.863281 32.832031 19.757812 32.851562 19.652344 Z M 32.851562 19.652344 " fill-opacity="1" fill-rule="nonzero"/><path fill="#ff6084" d="M 29.167969 7.105469 C 28.753906 7.265625 28.300781 7.261719 27.894531 7.105469 C 27.9375 8.183594 27.851562 9.273438 27.644531 10.34375 C 27.257812 12.328125 26.453125 14.214844 25.308594 15.816406 C 25.503906 16.457031 25.789062 17.246094 26.265625 17.726562 C 26.296875 17.757812 26.332031 17.789062 26.363281 17.816406 C 26.542969 17.707031 26.777344 17.734375 26.925781 17.894531 C 26.988281 17.960938 27.023438 18.039062 27.039062 18.121094 C 27.097656 18.125 27.148438 18.121094 27.191406 18.105469 C 27.667969 17.941406 28.167969 17.996094 28.585938 18.207031 C 27.65625 17.382812 27.011719 16.246094 26.84375 14.996094 C 26.539062 12.734375 27.839844 10.417969 29.929688 9.496094 C 30.1875 9.382812 30.449219 9.292969 30.710938 9.230469 C 30.726562 9.066406 30.761719 8.910156 30.824219 8.753906 L 31.183594 7.84375 C 31.1875 7.832031 31.191406 7.824219 31.195312 7.8125 C 31.195312 7.8125 31.195312 7.808594 31.195312 7.804688 C 31.199219 7.796875 31.203125 7.792969 31.203125 7.785156 C 31.203125 7.78125 31.207031 7.777344 31.207031 7.773438 C 31.210938 7.765625 31.210938 7.761719 31.210938 7.757812 C 31.214844 7.753906 31.214844 7.746094 31.214844 7.742188 C 31.21875 7.738281 31.21875 7.734375 31.21875 7.734375 C 31.21875 7.726562 31.222656 7.71875 31.222656 7.710938 C 31.277344 7.46875 31.226562 7.226562 31.074219 7.027344 C 31.058594 7.007812 31.042969 6.988281 31.027344 6.972656 C 31.019531 6.960938 31.007812 6.949219 30.992188 6.933594 C 30.949219 6.890625 30.898438 6.851562 30.847656 6.816406 C 30.84375 6.816406 30.84375 6.8125 30.839844 6.8125 C 30.835938 6.808594 30.832031 6.804688 30.824219 6.804688 C 30.820312 6.800781 30.8125 6.796875 30.804688 6.792969 C 30.675781 6.71875 30.523438 6.679688 30.371094 6.683594 C 30.371094 6.683594 30.371094 6.683594 30.367188 6.683594 C 30.363281 6.683594 30.355469 6.6875 30.347656 6.6875 C 30.34375 6.6875 30.339844 6.6875 30.335938 6.6875 C 30.332031 6.6875 30.328125 6.6875 30.320312 6.6875 C 30.242188 6.695312 30.164062 6.714844 30.082031 6.746094 Z M 29.167969 7.105469 " fill-opacity="1" fill-rule="nonzero"/><path fill="#ff6084" d="M 31.652344 12.769531 C 31.660156 12.738281 31.660156 12.695312 31.65625 12.65625 C 31.585938 12.664062 31.488281 12.6875 31.371094 12.738281 C 31.042969 12.886719 30.761719 13.164062 30.582031 13.496094 C 30.691406 13.46875 30.800781 13.4375 30.902344 13.398438 C 31.273438 13.257812 31.574219 13.003906 31.652344 12.769531 Z M 31.652344 12.769531 " fill-opacity="1" fill-rule="nonzero"/><path fill="#ff6084" d="M 19.886719 3.175781 L 19.492188 4.074219 C 19.265625 4.59375 18.796875 4.972656 18.238281 5.082031 C 17.679688 5.195312 17.105469 5.023438 16.695312 4.628906 L 16.050781 4.011719 L 15.203125 5.667969 L 18.734375 7.820312 C 18.867188 7.902344 18.949219 8.050781 18.949219 8.207031 C 18.945312 8.363281 18.859375 8.507812 18.726562 8.585938 L 10.695312 13.203125 C 10.628906 13.246094 10.550781 13.265625 10.472656 13.265625 C 10.367188 13.265625 10.261719 13.226562 10.179688 13.152344 C 10.035156 13.027344 9.988281 12.820312 10.066406 12.644531 L 11.414062 9.5 C 11.140625 9.554688 10.863281 9.625 10.59375 9.703125 C 10.550781 9.933594 10.464844 10.152344 10.332031 10.351562 C 10.015625 10.824219 9.488281 11.113281 8.917969 11.121094 L 7.933594 11.140625 C 7.804688 11.140625 7.6875 11.167969 7.578125 11.21875 C 7.484375 11.292969 7.390625 11.367188 7.296875 11.441406 C 7.246094 11.503906 7.199219 11.578125 7.167969 11.660156 C 7.035156 11.980469 7.097656 12.324219 7.339844 12.570312 L 8.023438 13.277344 C 8.417969 13.6875 8.585938 14.261719 8.476562 14.820312 C 8.378906 15.304688 8.078125 15.722656 7.65625 15.972656 C 7.707031 15.964844 7.761719 15.957031 7.816406 15.949219 C 8.21875 15.894531 8.636719 15.835938 9.074219 15.804688 C 10.742188 15.675781 12.113281 16.003906 13.152344 16.777344 C 13.160156 16.785156 13.171875 16.792969 13.183594 16.800781 C 13.273438 16.253906 13.484375 15.734375 13.804688 15.257812 C 14.109375 14.8125 14.496094 14.421875 14.957031 14.105469 C 15.402344 13.796875 15.894531 13.574219 16.417969 13.441406 C 16.972656 13.300781 17.535156 13.269531 18.085938 13.347656 C 18.613281 13.421875 19.125 13.59375 19.601562 13.851562 C 20.046875 14.09375 20.453125 14.40625 20.8125 14.777344 C 21.140625 15.125 21.425781 15.515625 21.648438 15.9375 C 21.179688 14.097656 20.96875 12.195312 21.023438 10.265625 C 21.082031 8.265625 21.425781 6.304688 22.042969 4.429688 C 21.960938 4.324219 21.890625 4.203125 21.832031 4.074219 L 21.460938 3.222656 L 21.441406 3.175781 C 21.4375 3.164062 21.429688 3.152344 21.425781 3.140625 C 21.421875 3.136719 21.421875 3.132812 21.417969 3.128906 C 21.414062 3.125 21.414062 3.117188 21.410156 3.109375 C 21.40625 3.105469 21.402344 3.101562 21.402344 3.09375 C 21.398438 3.089844 21.394531 3.085938 21.390625 3.078125 C 21.386719 3.074219 21.386719 3.070312 21.382812 3.0625 C 21.378906 3.0625 21.378906 3.058594 21.378906 3.054688 C 21.371094 3.042969 21.363281 3.03125 21.355469 3.019531 C 21.351562 3.015625 21.347656 3.011719 21.34375 3.007812 C 21.34375 3.003906 21.339844 3 21.335938 2.996094 C 21.332031 2.988281 21.328125 2.984375 21.324219 2.980469 C 21.320312 2.976562 21.316406 2.972656 21.316406 2.96875 C 21.109375 2.722656 20.808594 2.652344 20.578125 2.671875 C 20.574219 2.671875 20.570312 2.671875 20.566406 2.671875 C 20.261719 2.707031 20.011719 2.886719 19.886719 3.175781 Z M 19.886719 3.175781 " fill-opacity="1" fill-rule="nonzero"/><path fill="#ff6084" d="M 25.332031 22.414062 C 25.539062 22.292969 25.78125 22.246094 26.015625 22.285156 C 26.269531 22.328125 26.492188 22.460938 26.648438 22.664062 L 26.777344 22.828125 C 26.941406 22.460938 27.054688 22.070312 27.109375 21.671875 C 27.097656 21.671875 27.085938 21.671875 27.070312 21.671875 C 26.632812 21.671875 26.1875 21.601562 25.746094 21.460938 C 25.625 21.421875 25.503906 21.378906 25.386719 21.328125 C 25.382812 21.34375 25.382812 21.359375 25.378906 21.375 C 25.324219 21.71875 25.3125 22.066406 25.332031 22.414062 Z M 25.332031 22.414062 " fill-opacity="1" fill-rule="nonzero"/><path fill="#ff6084" d="M 21.324219 2.980469 C 21.328125 2.984375 21.332031 2.988281 21.335938 2.996094 C 21.332031 2.988281 21.328125 2.984375 21.324219 2.980469 Z M 21.324219 2.980469 " fill-opacity="1" fill-rule="nonzero"/><path fill="#ff6084" d="M 30.78125 25.59375 C 30.625 25.097656 30.703125 24.554688 30.996094 24.121094 C 30.703125 24.554688 30.625 25.097656 30.78125 25.59375 Z M 30.78125 25.59375 " fill-opacity="1" fill-rule="nonzero"/><path fill="#ff6084" d="M 31.222656 7.710938 C 31.222656 7.71875 31.21875 7.726562 31.21875 7.734375 C 31.21875 7.726562 31.222656 7.71875 31.222656 7.710938 Z M 31.222656 7.710938 " fill-opacity="1" fill-rule="nonzero"/><path fill="#ff6084" d="M 30.371094 27.789062 C 30.363281 27.789062 30.355469 27.785156 30.347656 27.785156 C 30.355469 27.785156 30.363281 27.789062 30.371094 27.789062 Z M 30.371094 27.789062 " fill-opacity="1" fill-rule="nonzero"/><path fill="#ff6084" d="M 31.214844 7.742188 C 31.214844 7.746094 31.214844 7.753906 31.210938 7.757812 C 31.214844 7.753906 31.214844 7.746094 31.214844 7.742188 Z M 31.214844 7.742188 " fill-opacity="1" fill-rule="nonzero"/><path fill="#ff6084" d="M 31.074219 27.445312 C 31.058594 27.464844 31.042969 27.480469 31.03125 27.5 C 31.214844 27.292969 31.285156 27.027344 31.222656 26.761719 C 31.277344 27.003906 31.226562 27.246094 31.074219 27.445312 Z M 31.074219 27.445312 " fill-opacity="1" fill-rule="nonzero"/><path fill="#ff6084" d="M 21.335938 31.480469 C 21.332031 31.484375 21.328125 31.488281 21.324219 31.492188 C 21.328125 31.488281 21.332031 31.484375 21.335938 31.480469 Z M 21.335938 31.480469 " fill-opacity="1" fill-rule="nonzero"/><path fill="#ff6084" d="M 30.847656 27.65625 C 30.84375 27.65625 30.84375 27.660156 30.839844 27.660156 C 30.84375 27.660156 30.84375 27.65625 30.847656 27.65625 Z M 30.847656 27.65625 " fill-opacity="1" fill-rule="nonzero"/><path fill="#ff6084" d="M 31.210938 26.714844 C 31.214844 26.71875 31.214844 26.726562 31.214844 26.734375 C 31.214844 26.726562 31.214844 26.71875 31.210938 26.714844 Z M 31.210938 26.714844 " fill-opacity="1" fill-rule="nonzero"/><path fill="#ff6084" d="M 21.34375 3.007812 C 21.347656 3.011719 21.351562 3.015625 21.355469 3.019531 C 21.351562 3.015625 21.347656 3.011719 21.34375 3.007812 Z M 21.34375 3.007812 " fill-opacity="1" fill-rule="nonzero"/><path fill="#ff6084" d="M 31.195312 26.660156 C 31.195312 26.664062 31.195312 26.667969 31.199219 26.671875 C 31.195312 26.667969 31.195312 26.664062 31.195312 26.660156 Z M 31.195312 26.660156 " fill-opacity="1" fill-rule="nonzero"/><path fill="#ff6084" d="M 31.203125 26.6875 C 31.203125 26.691406 31.207031 26.695312 31.207031 26.703125 C 31.207031 26.695312 31.203125 26.691406 31.203125 26.6875 Z M 31.203125 26.6875 " fill-opacity="1" fill-rule="nonzero"/><path fill="#ff6084" d="M 30.710938 9.230469 C 30.726562 9.066406 30.761719 8.910156 30.824219 8.753906 C 30.761719 8.910156 30.726562 9.066406 30.710938 9.230469 Z M 30.710938 9.230469 " fill-opacity="1" fill-rule="nonzero"/><path fill="#ff6084" d="M 32.851562 19.652344 C 32.832031 19.757812 32.820312 19.863281 32.816406 19.96875 C 32.820312 19.863281 32.832031 19.757812 32.851562 19.652344 C 32.863281 19.589844 32.878906 19.53125 32.898438 19.46875 C 32.878906 19.53125 32.863281 19.589844 32.851562 19.652344 Z M 32.851562 19.652344 " fill-opacity="1" fill-rule="nonzero"/><path fill="#ff6084" d="M 34.160156 22.8125 C 34.027344 23.132812 33.738281 23.328125 33.390625 23.332031 L 32.410156 23.351562 C 31.875 23.359375 31.378906 23.613281 31.058594 24.035156 C 31.378906 23.613281 31.875 23.359375 32.410156 23.351562 L 33.390625 23.332031 C 33.738281 23.328125 34.027344 23.132812 34.160156 22.8125 C 34.261719 22.570312 34.25 22.320312 34.136719 22.101562 C 34.25 22.320312 34.261719 22.570312 34.160156 22.8125 Z M 34.160156 22.8125 " fill-opacity="1" fill-rule="nonzero"/><path fill="#ff6084" d="M 31.207031 7.773438 C 31.207031 7.777344 31.203125 7.78125 31.203125 7.785156 C 31.203125 7.78125 31.207031 7.777344 31.207031 7.773438 Z M 31.207031 7.773438 " fill-opacity="1" fill-rule="nonzero"/><path fill="#ff6084" d="M 31.21875 26.738281 C 31.21875 26.746094 31.222656 26.753906 31.222656 26.761719 C 31.222656 26.753906 31.21875 26.746094 31.21875 26.738281 Z M 31.21875 26.738281 " fill-opacity="1" fill-rule="nonzero"/><path fill="#ff6084" d="M 30.371094 27.789062 C 30.53125 27.792969 30.6875 27.753906 30.828125 27.667969 C 30.691406 27.75 30.53125 27.792969 30.371094 27.789062 Z M 30.371094 27.789062 " fill-opacity="1" fill-rule="nonzero"/><path fill="#ff6084" d="M 30.347656 6.6875 C 30.355469 6.6875 30.363281 6.683594 30.367188 6.683594 C 30.363281 6.683594 30.355469 6.6875 30.347656 6.6875 Z M 30.347656 6.6875 " fill-opacity="1" fill-rule="nonzero"/><path fill="#ff6084" d="M 21.351562 31.453125 C 21.351562 31.457031 21.347656 31.460938 21.34375 31.464844 C 21.347656 31.460938 21.351562 31.457031 21.351562 31.453125 Z M 21.351562 31.453125 " fill-opacity="1" fill-rule="nonzero"/><path fill="#ff6084" d="M 21.460938 3.222656 L 21.441406 3.175781 C 21.4375 3.164062 21.429688 3.152344 21.425781 3.140625 C 21.429688 3.152344 21.4375 3.164062 21.441406 3.175781 Z M 21.460938 3.222656 " fill-opacity="1" fill-rule="nonzero"/><path fill="#ff6084" d="M 21.375 3.054688 C 21.378906 3.058594 21.378906 3.0625 21.382812 3.0625 C 21.378906 3.0625 21.378906 3.058594 21.375 3.054688 Z M 21.375 3.054688 " fill-opacity="1" fill-rule="nonzero"/><path fill="#ff6084" d="M 21.390625 3.078125 C 21.394531 3.085938 21.398438 3.089844 21.402344 3.09375 C 21.398438 3.089844 21.394531 3.085938 21.390625 3.078125 Z M 21.390625 3.078125 " fill-opacity="1" fill-rule="nonzero"/><path fill="#ff6084" d="M 21.316406 2.96875 C 21.15625 2.777344 20.925781 2.667969 20.664062 2.667969 C 20.628906 2.667969 20.597656 2.671875 20.566406 2.671875 C 20.570312 2.671875 20.574219 2.671875 20.578125 2.671875 C 20.808594 2.648438 21.109375 2.722656 21.316406 2.96875 Z M 21.316406 2.96875 " fill-opacity="1" fill-rule="nonzero"/><path fill="#ff6084" d="M 21.410156 3.109375 C 21.414062 3.117188 21.414062 3.125 21.417969 3.128906 C 21.414062 3.125 21.414062 3.117188 21.410156 3.109375 Z M 21.410156 3.109375 " fill-opacity="1" fill-rule="nonzero"/><path fill="#ff6084" d="M 30.804688 6.792969 C 30.671875 6.714844 30.523438 6.679688 30.371094 6.683594 C 30.523438 6.679688 30.675781 6.71875 30.804688 6.792969 Z M 30.804688 6.792969 " fill-opacity="1" fill-rule="nonzero"/><path fill="#ff6084" d="M 31.222656 7.710938 C 31.285156 7.445312 31.214844 7.179688 31.027344 6.972656 C 31.042969 6.988281 31.058594 7.007812 31.074219 7.027344 C 31.226562 7.226562 31.277344 7.46875 31.222656 7.710938 Z M 31.222656 7.710938 " fill-opacity="1" fill-rule="nonzero"/><path fill="#ff6084" d="M 21.410156 31.363281 C 21.410156 31.359375 21.414062 31.355469 21.414062 31.347656 C 21.414062 31.351562 21.410156 31.359375 21.410156 31.363281 Z M 21.410156 31.363281 " fill-opacity="1" fill-rule="nonzero"/><path fill="#ff6084" d="M 30.804688 6.792969 C 30.8125 6.796875 30.820312 6.800781 30.824219 6.804688 C 30.820312 6.800781 30.8125 6.796875 30.804688 6.792969 Z M 30.804688 6.792969 " fill-opacity="1" fill-rule="nonzero"/><path fill="#ff6084" d="M 30.839844 6.8125 C 30.84375 6.8125 30.84375 6.816406 30.847656 6.816406 C 30.84375 6.816406 30.84375 6.8125 30.839844 6.8125 Z M 30.839844 6.8125 " fill-opacity="1" fill-rule="nonzero"/><path fill="#ff6084" d="M 21.402344 31.378906 C 21.398438 31.382812 21.394531 31.386719 21.390625 31.394531 C 21.394531 31.386719 21.398438 31.382812 21.402344 31.378906 Z M 21.402344 31.378906 " fill-opacity="1" fill-rule="nonzero"/><path fill="#ff6084" d="M 20.578125 31.800781 C 20.574219 31.800781 20.570312 31.800781 20.566406 31.800781 C 20.597656 31.800781 20.628906 31.804688 20.664062 31.804688 C 20.925781 31.804688 21.15625 31.695312 21.316406 31.503906 C 21.109375 31.75 20.808594 31.824219 20.578125 31.800781 Z M 20.578125 31.800781 " fill-opacity="1" fill-rule="nonzero"/><path fill="#fff38e" d="M 12.960938 9.332031 C 12.789062 9.335938 12.617188 9.34375 12.445312 9.359375 L 11.410156 11.769531 L 17.632812 8.1875 L 14.386719 6.210938 C 14.382812 6.207031 14.378906 6.207031 14.378906 6.203125 C 14.1875 6.082031 14.117188 5.832031 14.222656 5.628906 L 14.539062 5.007812 L 15.191406 3.738281 L 15.433594 3.265625 L 15.652344 2.839844 L 15.734375 2.675781 L 15.964844 2.230469 L 16.191406 1.789062 L 16.210938 1.75 L 16.144531 1.789062 L 15.429688 2.226562 L 14.378906 2.871094 L 13.71875 3.273438 L 12.996094 3.71875 L 10.085938 5.496094 L 10.609375 5.828125 L 10.875 5.996094 C 11.082031 5.957031 11.289062 5.921875 11.496094 5.894531 C 11.957031 5.832031 12.421875 5.796875 12.890625 5.785156 C 13.117188 5.78125 13.339844 5.820312 13.542969 5.894531 C 13.683594 5.945312 13.816406 6.015625 13.9375 6.097656 C 14.0625 6.183594 14.175781 6.285156 14.273438 6.402344 C 14.535156 6.703125 14.695312 7.09375 14.703125 7.523438 C 14.726562 8.503906 13.945312 9.3125 12.960938 9.332031 Z M 12.960938 9.332031 " fill-opacity="1" fill-rule="nonzero"/><path fill="#ffffff" d="M 13.757812 18.933594 C 13.496094 18.347656 13.109375 17.855469 12.617188 17.488281 C 11.757812 16.847656 10.589844 16.578125 9.140625 16.6875 C 8.730469 16.71875 8.328125 16.777344 7.9375 16.828125 C 7.34375 16.910156 6.785156 16.988281 6.238281 16.980469 C 6.195312 16.980469 6.144531 16.976562 6.09375 16.972656 C 5.96875 16.96875 5.8125 16.953125 5.648438 16.925781 C 5.507812 16.902344 5.363281 16.867188 5.214844 16.820312 C 4.859375 16.710938 4.503906 16.519531 4.261719 16.199219 C 3.972656 15.824219 3.867188 15.246094 3.972656 14.660156 C 4.070312 14.117188 4.328125 13.550781 4.78125 12.878906 C 5.308594 12.101562 5.949219 11.40625 6.671875 10.808594 C 6.816406 10.6875 6.964844 10.574219 7.113281 10.460938 C 7.898438 9.882812 8.761719 9.414062 9.675781 9.078125 C 9.8125 9.023438 9.953125 8.976562 10.09375 8.929688 C 10.234375 8.886719 10.378906 8.84375 10.519531 8.804688 C 10.949219 8.683594 11.390625 8.59375 11.832031 8.535156 C 12 8.511719 12.167969 8.492188 12.339844 8.476562 C 12.503906 8.464844 12.667969 8.453125 12.835938 8.449219 C 12.871094 8.449219 12.90625 8.445312 12.945312 8.445312 C 13.433594 8.4375 13.824219 8.03125 13.816406 7.539062 C 13.8125 7.339844 13.742188 7.160156 13.625 7.011719 C 13.519531 6.875 13.371094 6.769531 13.203125 6.714844 C 13.109375 6.6875 13.011719 6.671875 12.90625 6.671875 C 12.71875 6.675781 12.527344 6.683594 12.339844 6.699219 C 12.238281 6.707031 12.136719 6.714844 12.035156 6.726562 C 11.820312 6.746094 11.609375 6.773438 11.394531 6.804688 C 11.378906 6.808594 11.359375 6.8125 11.34375 6.8125 C 11.128906 6.847656 10.914062 6.890625 10.703125 6.933594 C 10.546875 6.96875 10.394531 7.003906 10.238281 7.046875 C 10.050781 7.09375 9.863281 7.148438 9.679688 7.203125 C 9.519531 7.253906 9.359375 7.308594 9.199219 7.367188 C 8.613281 7.574219 8.035156 7.832031 7.480469 8.132812 C 6.757812 8.527344 6.078125 8.992188 5.453125 9.515625 C 5.222656 9.710938 5 9.910156 4.785156 10.121094 C 4.679688 10.226562 4.574219 10.332031 4.472656 10.4375 C 4.265625 10.65625 4.070312 10.882812 3.882812 11.113281 C 3.679688 11.363281 3.488281 11.621094 3.308594 11.886719 C 3.03125 12.292969 2.8125 12.675781 2.636719 13.050781 C 2.566406 13.203125 2.507812 13.351562 2.453125 13.5 C 2.390625 13.664062 2.339844 13.828125 2.296875 13.992188 C 2.265625 14.109375 2.242188 14.230469 2.21875 14.347656 C 2.171875 14.609375 2.152344 14.871094 2.152344 15.128906 C 2.152344 15.300781 2.164062 15.46875 2.1875 15.632812 C 2.207031 15.785156 2.238281 15.933594 2.273438 16.082031 C 2.386719 16.519531 2.578125 16.921875 2.839844 17.269531 C 3.222656 17.777344 3.753906 18.164062 4.414062 18.421875 C 4.90625 18.609375 5.46875 18.722656 6.054688 18.75 C 6.105469 18.75 6.15625 18.753906 6.207031 18.753906 C 6.503906 18.757812 6.792969 18.742188 7.078125 18.71875 C 7.339844 18.695312 7.59375 18.664062 7.847656 18.632812 C 7.960938 18.617188 8.070312 18.601562 8.179688 18.585938 C 8.5625 18.535156 8.921875 18.484375 9.28125 18.457031 C 10.28125 18.378906 11.046875 18.53125 11.550781 18.90625 C 12.203125 19.398438 12.503906 20.429688 12.265625 21.363281 C 12.035156 22.253906 11.375 23.117188 10.398438 23.800781 C 10.332031 23.847656 10.261719 23.894531 10.191406 23.941406 C 10.066406 24.023438 9.9375 24.101562 9.804688 24.175781 C 9.671875 24.253906 9.53125 24.332031 9.390625 24.402344 C 8.691406 24.765625 7.941406 25.0625 7.207031 25.351562 C 6.75 25.53125 6.527344 26.046875 6.710938 26.503906 C 6.847656 26.851562 7.183594 27.0625 7.535156 27.0625 C 7.644531 27.0625 7.757812 27.042969 7.863281 27 C 8.332031 26.816406 8.804688 26.628906 9.273438 26.421875 C 9.46875 26.339844 9.660156 26.25 9.851562 26.15625 C 10.054688 26.0625 10.253906 25.960938 10.449219 25.851562 C 10.78125 25.671875 11.105469 25.472656 11.421875 25.25 C 12.039062 24.820312 12.5625 24.328125 12.988281 23.785156 C 13.425781 23.226562 13.742188 22.625 13.933594 22 C 13.683594 21.527344 13.539062 21.007812 13.511719 20.476562 C 13.484375 19.957031 13.570312 19.429688 13.757812 18.933594 Z M 21.652344 20.355469 C 21.585938 20.359375 21.367188 20.257812 21.207031 20.039062 C 21.171875 19.984375 21.136719 19.929688 21.101562 19.875 C 21.355469 19.113281 21.417969 18.324219 21.289062 17.582031 C 21.144531 16.773438 20.75 15.996094 20.167969 15.390625 C 19.558594 14.757812 18.773438 14.34375 17.960938 14.226562 C 17.113281 14.105469 16.203125 14.328125 15.460938 14.835938 C 15.09375 15.089844 14.785156 15.398438 14.542969 15.753906 C 14.28125 16.140625 14.117188 16.566406 14.050781 17.011719 C 13.976562 17.496094 14.3125 17.945312 14.796875 18.019531 C 15.285156 18.089844 15.734375 17.757812 15.808594 17.273438 C 15.863281 16.902344 16.105469 16.546875 16.46875 16.296875 C 16.847656 16.039062 17.296875 15.921875 17.707031 15.980469 C 18.523438 16.097656 19.265625 16.820312 19.496094 17.703125 C 19.210938 17.515625 18.898438 17.371094 18.5625 17.277344 C 17.863281 17.074219 17.121094 17.101562 16.472656 17.34375 C 15.867188 17.574219 15.328125 18 14.949219 18.550781 C 14.863281 18.675781 14.785156 18.808594 14.71875 18.945312 C 14.484375 19.414062 14.375 19.929688 14.402344 20.433594 C 14.425781 20.941406 14.597656 21.4375 14.886719 21.871094 C 14.980469 22.011719 15.082031 22.144531 15.199219 22.269531 C 15.695312 22.796875 16.339844 23.117188 17.015625 23.171875 C 17.089844 23.175781 17.164062 23.179688 17.242188 23.179688 C 17.703125 23.179688 18.167969 23.066406 18.628906 22.839844 C 19.058594 22.625 19.46875 22.324219 19.839844 21.941406 C 19.964844 21.8125 20.082031 21.679688 20.191406 21.539062 C 20.800781 22.066406 21.652344 22.332031 22.433594 21.949219 C 22.875 21.734375 23.054688 21.203125 22.835938 20.761719 C 22.621094 20.324219 22.089844 20.144531 21.652344 20.355469 Z M 18.5625 20.707031 C 18.101562 21.183594 17.589844 21.4375 17.160156 21.402344 C 16.671875 21.363281 16.203125 20.855469 16.175781 20.339844 C 16.148438 19.796875 16.554688 19.210938 17.101562 19.003906 C 17.261719 18.945312 17.433594 18.914062 17.609375 18.914062 C 18.09375 18.914062 18.59375 19.136719 18.882812 19.515625 C 18.972656 19.636719 19.054688 19.78125 19.136719 19.9375 C 18.984375 20.214844 18.789062 20.472656 18.5625 20.707031 Z M 27.480469 18.945312 C 27.195312 19.042969 26.855469 19.023438 26.523438 18.910156 C 26.125 19.367188 25.816406 19.894531 25.613281 20.460938 C 25.746094 20.519531 25.878906 20.570312 26.015625 20.617188 C 26.371094 20.726562 26.722656 20.785156 27.070312 20.785156 C 27.410156 20.785156 27.742188 20.730469 28.054688 20.625 C 28.519531 20.464844 28.765625 19.960938 28.609375 19.496094 C 28.449219 19.035156 27.945312 18.785156 27.480469 18.945312 Z M 25.628906 18.347656 C 25.011719 17.722656 24.675781 16.789062 24.449219 16.046875 C 24.40625 15.910156 24.367188 15.769531 24.328125 15.632812 C 24.355469 15.601562 24.386719 15.570312 24.410156 15.535156 C 25.574219 13.988281 26.390625 12.136719 26.769531 10.175781 C 27.027344 8.851562 27.082031 7.492188 26.933594 6.175781 C 26.933594 6.175781 26.933594 6.171875 26.933594 6.171875 C 26.898438 5.847656 26.851562 5.527344 26.789062 5.210938 C 26.734375 4.914062 26.664062 4.617188 26.585938 4.328125 C 26.554688 4.199219 26.503906 4.042969 26.433594 3.878906 C 26.351562 3.679688 26.238281 3.46875 26.09375 3.277344 C 26.089844 3.273438 26.085938 3.273438 26.085938 3.269531 C 25.949219 3.09375 25.796875 2.953125 25.628906 2.847656 C 25.621094 2.839844 25.613281 2.835938 25.601562 2.832031 C 25.316406 2.652344 24.992188 2.578125 24.65625 2.613281 C 24.476562 2.628906 24.246094 2.6875 24.011719 2.832031 C 23.851562 2.929688 23.6875 3.070312 23.535156 3.265625 C 23.535156 3.269531 23.53125 3.269531 23.53125 3.273438 C 23.433594 3.402344 23.34375 3.550781 23.261719 3.71875 C 23.207031 3.828125 23.15625 3.949219 23.105469 4.082031 C 23.097656 4.105469 23.089844 4.128906 23.078125 4.15625 C 23.027344 4.292969 22.980469 4.433594 22.933594 4.574219 C 22.882812 4.714844 22.839844 4.855469 22.792969 4.996094 C 22.261719 6.699219 21.964844 8.476562 21.914062 10.292969 C 21.851562 12.4375 22.132812 14.546875 22.746094 16.5625 C 23.03125 17.5 23.472656 18.691406 24.363281 19.59375 C 24.511719 19.742188 24.667969 19.878906 24.835938 20.003906 C 24.917969 19.800781 25.007812 19.601562 25.113281 19.402344 C 25.292969 19.066406 25.503906 18.75 25.746094 18.457031 C 25.707031 18.421875 25.667969 18.386719 25.628906 18.347656 Z M 24.777344 4.691406 C 24.789062 4.660156 24.800781 4.632812 24.8125 4.605469 C 24.832031 4.65625 24.851562 4.714844 24.867188 4.785156 C 25.609375 7.550781 25.207031 10.640625 23.828125 13.164062 C 23.460938 10.320312 23.78125 7.394531 24.777344 4.691406 Z M 35.601562 14.957031 C 35.167969 14.753906 34.65625 14.933594 34.4375 15.351562 C 34.433594 15.363281 34.425781 15.375 34.421875 15.386719 C 34.363281 15.511719 34.292969 15.628906 34.214844 15.738281 C 34.128906 15.867188 34.027344 15.984375 33.914062 16.09375 C 33.332031 16.660156 32.46875 16.980469 31.675781 16.859375 C 31.195312 16.785156 30.742188 16.554688 30.375 16.230469 C 30.863281 16.175781 31.367188 16.070312 31.859375 15.882812 C 32.273438 15.722656 32.660156 15.507812 32.996094 15.242188 C 33.082031 15.175781 33.167969 15.101562 33.25 15.027344 C 33.28125 14.996094 33.3125 14.964844 33.34375 14.933594 C 33.480469 14.800781 33.601562 14.664062 33.707031 14.519531 C 33.902344 14.253906 34.054688 13.96875 34.164062 13.667969 C 34.171875 13.644531 34.179688 13.621094 34.1875 13.597656 C 34.265625 13.359375 34.3125 13.113281 34.324219 12.863281 C 34.339844 12.550781 34.308594 12.230469 34.226562 11.925781 C 34.210938 11.871094 34.195312 11.820312 34.175781 11.765625 C 34.148438 11.675781 34.113281 11.585938 34.074219 11.5 C 33.9375 11.195312 33.75 10.925781 33.523438 10.703125 C 33.359375 10.542969 33.175781 10.40625 32.976562 10.296875 C 32.9375 10.277344 32.902344 10.261719 32.867188 10.242188 C 32.554688 10.09375 32.210938 10.011719 31.847656 9.996094 C 31.671875 9.988281 31.492188 9.996094 31.3125 10.019531 C 31.160156 10.035156 31.011719 10.066406 30.859375 10.105469 C 30.667969 10.15625 30.480469 10.222656 30.289062 10.304688 C 29.453125 10.675781 28.734375 11.339844 28.265625 12.175781 C 27.796875 13.015625 27.605469 13.972656 27.726562 14.875 C 27.847656 15.78125 28.285156 16.65625 28.960938 17.339844 C 29.632812 18.023438 30.503906 18.476562 31.40625 18.613281 C 31.609375 18.644531 31.8125 18.65625 32.015625 18.65625 C 32.734375 18.65625 33.464844 18.472656 34.125 18.121094 C 34.554688 17.890625 34.945312 17.589844 35.273438 17.246094 C 35.40625 17.105469 35.53125 16.957031 35.644531 16.800781 C 35.746094 16.65625 35.839844 16.507812 35.921875 16.351562 C 35.960938 16.28125 36 16.207031 36.035156 16.132812 C 36.242188 15.6875 36.046875 15.160156 35.601562 14.957031 Z M 31.011719 11.929688 C 31.253906 11.820312 31.496094 11.765625 31.710938 11.765625 C 31.871094 11.765625 32.015625 11.796875 32.132812 11.859375 C 32.472656 12.042969 32.644531 12.597656 32.496094 13.046875 C 32.332031 13.542969 31.855469 13.984375 31.222656 14.226562 C 30.675781 14.4375 30.054688 14.496094 29.476562 14.507812 C 29.398438 13.464844 30.054688 12.351562 31.011719 11.929688 Z M 31.011719 11.929688 " fill-opacity="1" fill-rule="nonzero"/><path fill="#9cb6ff" d="M 27.464844 25.167969 L 25.945312 23.203125 C 25.921875 23.175781 25.886719 23.160156 25.847656 23.160156 C 25.828125 23.160156 25.804688 23.164062 25.785156 23.175781 L 25.488281 23.371094 C 25.597656 23.78125 25.757812 24.179688 25.972656 24.554688 C 26.097656 24.765625 26.023438 25.035156 25.808594 25.160156 C 25.738281 25.199219 25.664062 25.21875 25.589844 25.21875 C 25.433594 25.21875 25.285156 25.136719 25.203125 24.996094 C 25 24.640625 24.835938 24.269531 24.710938 23.878906 L 23.703125 24.539062 C 23.53125 24.648438 23.417969 24.828125 23.382812 25.027344 L 22.621094 29.554688 L 22.515625 30.171875 L 22.417969 30.753906 L 22.34375 31.199219 L 22.273438 31.613281 L 22.269531 31.640625 L 22.265625 31.65625 C 22.25 31.753906 22.316406 31.847656 22.414062 31.863281 L 26.285156 32.511719 C 26.382812 32.527344 26.476562 32.460938 26.492188 32.367188 L 26.636719 31.496094 L 26.734375 30.925781 L 27.253906 27.847656 L 27.261719 27.800781 L 27.609375 25.734375 C 27.640625 25.535156 27.589844 25.328125 27.464844 25.167969 Z M 27.464844 25.167969 " fill-opacity="1" fill-rule="nonzero"/><g clip-path="url(#18e2162bde)"><path fill="#231f20" d="M 17.101562 19.003906 C 16.554688 19.210938 16.148438 19.796875 16.175781 20.339844 C 16.203125 20.855469 16.671875 21.363281 17.160156 21.402344 C 17.589844 21.4375 18.101562 21.183594 18.5625 20.707031 C 18.789062 20.472656 18.984375 20.214844 19.136719 19.9375 C 19.054688 19.78125 18.972656 19.636719 18.882812 19.515625 C 18.59375 19.136719 18.09375 18.914062 17.609375 18.914062 C 17.433594 18.914062 17.261719 18.945312 17.101562 19.003906 Z M 18.058594 19.941406 C 18.015625 19.992188 17.96875 20.042969 17.925781 20.089844 C 17.632812 20.390625 17.355469 20.519531 17.238281 20.519531 C 17.238281 20.519531 17.238281 20.519531 17.234375 20.519531 C 17.171875 20.496094 17.070312 20.371094 17.066406 20.292969 C 17.058594 20.148438 17.21875 19.90625 17.414062 19.832031 C 17.605469 19.761719 17.875 19.816406 18.058594 19.941406 Z M 24.867188 4.785156 C 24.851562 4.714844 24.832031 4.65625 24.8125 4.605469 C 24.800781 4.632812 24.789062 4.660156 24.777344 4.691406 C 23.78125 7.394531 23.460938 10.320312 23.828125 13.164062 C 25.207031 10.640625 25.609375 7.550781 24.867188 4.785156 Z M 35.976562 14.152344 C 35.65625 14.003906 35.3125 13.957031 34.988281 14.003906 C 35.003906 13.960938 35.019531 13.917969 35.03125 13.871094 C 35.253906 13.199219 35.277344 12.460938 35.101562 11.765625 C 35.082031 11.617188 35.042969 11.46875 34.980469 11.320312 C 34.945312 11.234375 34.90625 11.152344 34.859375 11.078125 C 34.539062 10.402344 34.03125 9.855469 33.394531 9.515625 C 32.867188 9.230469 32.265625 9.09375 31.640625 9.105469 C 31.644531 9.097656 31.648438 9.089844 31.652344 9.078125 L 32.011719 8.167969 C 32.019531 8.148438 32.027344 8.128906 32.03125 8.109375 C 32.035156 8.101562 32.039062 8.09375 32.042969 8.085938 C 32.042969 8.074219 32.046875 8.0625 32.050781 8.054688 C 32.054688 8.042969 32.058594 8.03125 32.0625 8.019531 C 32.0625 8.011719 32.066406 8.007812 32.066406 8 C 32.070312 7.984375 32.074219 7.96875 32.078125 7.953125 C 32.078125 7.953125 32.082031 7.953125 32.082031 7.949219 C 32.214844 7.414062 32.089844 6.859375 31.734375 6.433594 C 31.734375 6.429688 31.730469 6.425781 31.730469 6.425781 C 31.714844 6.40625 31.699219 6.386719 31.679688 6.371094 C 31.679688 6.367188 31.675781 6.367188 31.675781 6.363281 C 31.667969 6.355469 31.660156 6.34375 31.648438 6.335938 C 31.644531 6.332031 31.636719 6.324219 31.632812 6.320312 C 31.628906 6.316406 31.625 6.3125 31.621094 6.308594 C 31.617188 6.304688 31.613281 6.300781 31.609375 6.292969 C 31.601562 6.289062 31.597656 6.285156 31.59375 6.277344 C 31.582031 6.269531 31.574219 6.261719 31.5625 6.25 C 31.558594 6.25 31.558594 6.246094 31.554688 6.246094 C 31.539062 6.230469 31.523438 6.214844 31.507812 6.203125 C 31.503906 6.203125 31.503906 6.203125 31.503906 6.203125 C 31.164062 5.914062 30.738281 5.777344 30.304688 5.800781 C 30.285156 5.800781 30.269531 5.800781 30.25 5.804688 L 27.785156 5.804688 C 27.753906 5.574219 27.71875 5.347656 27.675781 5.121094 C 27.675781 5.121094 27.675781 5.054688 27.675781 5.054688 L 27.667969 4.527344 C 27.667969 4.507812 27.664062 4.488281 27.664062 4.46875 C 27.664062 4.464844 27.664062 4.457031 27.664062 4.453125 C 27.664062 4.4375 27.660156 4.421875 27.660156 4.402344 C 27.660156 4.402344 27.660156 4.398438 27.660156 4.394531 C 27.65625 4.375 27.65625 4.355469 27.652344 4.335938 C 27.652344 4.332031 27.652344 4.328125 27.652344 4.328125 C 27.648438 4.308594 27.648438 4.292969 27.644531 4.277344 C 27.644531 4.273438 27.644531 4.269531 27.644531 4.265625 C 27.636719 4.226562 27.628906 4.1875 27.621094 4.148438 C 27.617188 4.148438 27.617188 4.144531 27.617188 4.140625 C 27.609375 4.101562 27.597656 4.066406 27.585938 4.027344 C 27.585938 4.023438 27.582031 4.019531 27.582031 4.015625 C 27.578125 4.003906 27.574219 3.988281 27.566406 3.972656 C 27.566406 3.96875 27.566406 3.964844 27.5625 3.960938 C 27.558594 3.945312 27.550781 3.929688 27.542969 3.910156 C 27.542969 3.90625 27.539062 3.898438 27.535156 3.890625 C 27.53125 3.882812 27.527344 3.875 27.523438 3.863281 C 27.519531 3.855469 27.515625 3.847656 27.511719 3.835938 C 27.511719 3.832031 27.507812 3.828125 27.507812 3.824219 C 27.421875 3.640625 27.304688 3.476562 27.164062 3.335938 C 27.066406 3.132812 26.941406 2.921875 26.785156 2.722656 C 26.222656 2.003906 25.414062 1.644531 24.566406 1.730469 C 23.890625 1.796875 23.273438 2.152344 22.832031 2.722656 C 22.804688 2.757812 22.777344 2.792969 22.753906 2.832031 L 22.261719 2.832031 L 22.257812 2.820312 C 22.246094 2.800781 22.238281 2.78125 22.226562 2.757812 C 22.222656 2.75 22.21875 2.742188 22.214844 2.734375 C 22.210938 2.722656 22.203125 2.710938 22.195312 2.699219 C 22.191406 2.6875 22.1875 2.679688 22.179688 2.671875 C 22.175781 2.660156 22.167969 2.648438 22.164062 2.640625 C 22.15625 2.628906 22.152344 2.621094 22.144531 2.609375 C 22.140625 2.601562 22.136719 2.59375 22.128906 2.582031 C 22.121094 2.574219 22.117188 2.5625 22.109375 2.550781 C 22.105469 2.542969 22.097656 2.535156 22.09375 2.527344 C 22.085938 2.515625 22.078125 2.507812 22.070312 2.496094 C 22.066406 2.488281 22.058594 2.480469 22.054688 2.472656 C 22.046875 2.464844 22.039062 2.453125 22.03125 2.441406 C 22.027344 2.433594 22.019531 2.429688 22.015625 2.421875 C 22.007812 2.410156 22 2.402344 21.988281 2.390625 C 21.980469 2.382812 21.972656 2.375 21.964844 2.363281 C 21.960938 2.355469 21.953125 2.351562 21.949219 2.34375 C 21.933594 2.324219 21.917969 2.308594 21.902344 2.292969 C 21.902344 2.292969 21.898438 2.292969 21.898438 2.292969 C 21.882812 2.277344 21.867188 2.261719 21.851562 2.246094 C 21.851562 2.246094 21.851562 2.242188 21.851562 2.242188 C 21.835938 2.230469 21.824219 2.21875 21.808594 2.207031 C 21.796875 2.199219 21.785156 2.1875 21.773438 2.179688 C 21.773438 2.175781 21.773438 2.175781 21.769531 2.171875 C 21.542969 1.984375 21.269531 1.859375 20.96875 1.808594 C 20.964844 1.808594 20.957031 1.804688 20.953125 1.804688 C 20.941406 1.804688 20.925781 1.800781 20.910156 1.796875 C 20.898438 1.796875 20.886719 1.796875 20.875 1.792969 C 20.867188 1.792969 20.859375 1.792969 20.851562 1.792969 C 20.835938 1.789062 20.820312 1.789062 20.804688 1.789062 C 20.800781 1.785156 20.792969 1.785156 20.789062 1.785156 C 20.773438 1.785156 20.753906 1.785156 20.738281 1.785156 C 20.734375 1.78125 20.730469 1.78125 20.726562 1.78125 C 20.710938 1.78125 20.691406 1.78125 20.675781 1.78125 C 20.671875 1.78125 20.667969 1.78125 20.664062 1.78125 C 20.660156 1.78125 20.660156 1.78125 20.65625 1.78125 C 20.644531 1.78125 20.632812 1.78125 20.621094 1.78125 C 20.609375 1.78125 20.597656 1.78125 20.585938 1.785156 C 20.578125 1.785156 20.574219 1.785156 20.570312 1.785156 C 20.550781 1.785156 20.53125 1.785156 20.515625 1.789062 L 17.1875 1.789062 L 17.722656 0.746094 C 17.8125 0.570312 17.773438 0.355469 17.628906 0.21875 C 17.480469 0.0859375 17.265625 0.0625 17.09375 0.167969 L 12.742188 2.832031 L 10.390625 2.832031 C 9.914062 2.789062 9.433594 2.945312 9.070312 3.265625 C 8.707031 3.589844 8.503906 4.035156 8.496094 4.527344 L 8.476562 5.507812 C 8.476562 5.609375 8.457031 5.707031 8.421875 5.800781 L 5.910156 5.804688 C 5.617188 5.777344 5.320312 5.828125 5.050781 5.953125 C 4.789062 6.074219 4.558594 6.257812 4.382812 6.488281 C 4.011719 6.972656 3.925781 7.597656 4.152344 8.167969 L 4.511719 9.078125 C 4.519531 9.101562 4.527344 9.121094 4.53125 9.140625 C 4.152344 9.484375 3.789062 9.851562 3.453125 10.238281 L 2.753906 10.253906 C 2.050781 10.265625 1.449219 10.675781 1.179688 11.320312 C 0.910156 11.96875 1.046875 12.683594 1.535156 13.1875 L 1.597656 13.253906 C 1.484375 13.570312 1.402344 13.878906 1.34375 14.191406 C 1.261719 14.648438 1.242188 15.101562 1.28125 15.542969 L 1.042969 15.648438 C 0.398438 15.925781 0 16.535156 0 17.238281 C 0 17.9375 0.398438 18.546875 1.042969 18.824219 L 1.945312 19.214844 C 2.203125 19.328125 2.382812 19.550781 2.4375 19.828125 C 2.492188 20.101562 2.414062 20.375 2.21875 20.578125 L 1.535156 21.285156 C 1.046875 21.789062 0.910156 22.503906 1.179688 23.152344 C 1.449219 23.796875 2.050781 24.207031 2.753906 24.21875 L 3.738281 24.238281 C 4.019531 24.242188 4.269531 24.378906 4.425781 24.613281 C 4.582031 24.847656 4.613281 25.132812 4.511719 25.394531 L 4.152344 26.304688 C 3.925781 26.875 4.011719 27.5 4.382812 27.984375 C 4.558594 28.214844 4.789062 28.398438 5.050781 28.519531 C 5.320312 28.644531 5.617188 28.695312 5.910156 28.667969 L 8.421875 28.671875 C 8.457031 28.765625 8.476562 28.863281 8.476562 28.964844 L 8.496094 29.945312 C 8.503906 30.4375 8.707031 30.882812 9.070312 31.207031 C 9.394531 31.492188 9.8125 31.648438 10.238281 31.648438 C 10.289062 31.648438 10.339844 31.648438 10.390625 31.640625 L 13.902344 31.640625 L 13.90625 31.652344 C 14.0625 32.007812 14.320312 32.292969 14.652344 32.476562 C 14.957031 32.640625 15.296875 32.714844 15.648438 32.683594 L 20.515625 32.683594 C 20.523438 32.6875 20.535156 32.6875 20.546875 32.6875 C 20.5625 32.6875 20.578125 32.6875 20.59375 32.691406 C 20.597656 32.691406 20.601562 32.691406 20.605469 32.691406 C 20.625 32.691406 20.644531 32.691406 20.664062 32.691406 C 20.707031 32.691406 20.75 32.691406 20.792969 32.6875 C 20.792969 32.6875 20.796875 32.6875 20.800781 32.6875 C 20.816406 32.683594 20.832031 32.683594 20.851562 32.679688 C 20.855469 32.679688 20.863281 32.679688 20.867188 32.679688 C 20.878906 32.679688 20.894531 32.675781 20.90625 32.675781 C 20.914062 32.671875 20.925781 32.671875 20.933594 32.671875 C 20.941406 32.667969 20.949219 32.667969 20.957031 32.667969 C 21.207031 32.625 21.441406 32.53125 21.644531 32.394531 C 21.800781 32.570312 22.015625 32.695312 22.265625 32.738281 L 26.136719 33.386719 C 26.199219 33.398438 26.257812 33.402344 26.316406 33.402344 C 26.828125 33.402344 27.28125 33.03125 27.367188 32.511719 L 28.015625 28.671875 L 30.25 28.667969 C 30.269531 28.671875 30.285156 28.671875 30.304688 28.671875 C 30.738281 28.695312 31.164062 28.558594 31.503906 28.269531 C 31.503906 28.269531 31.507812 28.269531 31.507812 28.269531 C 31.523438 28.257812 31.539062 28.242188 31.554688 28.226562 C 31.558594 28.226562 31.558594 28.222656 31.5625 28.222656 C 31.574219 28.210938 31.582031 28.203125 31.59375 28.195312 C 31.597656 28.1875 31.601562 28.183594 31.609375 28.179688 C 31.613281 28.175781 31.617188 28.167969 31.621094 28.164062 C 31.625 28.160156 31.628906 28.15625 31.632812 28.152344 C 31.636719 28.148438 31.644531 28.140625 31.648438 28.136719 C 31.660156 28.128906 31.667969 28.117188 31.675781 28.109375 C 31.675781 28.105469 31.679688 28.105469 31.679688 28.101562 C 31.699219 28.085938 31.714844 28.066406 31.730469 28.046875 C 31.730469 28.046875 31.734375 28.042969 31.738281 28.039062 C 32.089844 27.613281 32.214844 27.058594 32.082031 26.523438 C 32.082031 26.523438 32.078125 26.519531 32.078125 26.519531 C 32.074219 26.503906 32.070312 26.488281 32.066406 26.472656 C 32.066406 26.464844 32.0625 26.460938 32.0625 26.453125 C 32.058594 26.441406 32.054688 26.429688 32.050781 26.417969 C 32.046875 26.410156 32.042969 26.398438 32.039062 26.386719 C 32.039062 26.378906 32.035156 26.371094 32.03125 26.363281 C 32.027344 26.34375 32.019531 26.324219 32.011719 26.304688 L 31.652344 25.394531 C 31.585938 25.226562 31.574219 25.054688 31.613281 24.890625 C 31.617188 24.878906 31.621094 24.867188 31.621094 24.855469 C 31.648438 24.773438 31.683594 24.691406 31.734375 24.613281 C 31.796875 24.523438 31.871094 24.445312 31.960938 24.386719 C 32.09375 24.292969 32.253906 24.242188 32.425781 24.238281 L 33.410156 24.21875 C 33.472656 24.21875 33.539062 24.214844 33.601562 24.207031 C 33.621094 24.203125 33.640625 24.199219 33.660156 24.199219 C 34.253906 24.105469 34.746094 23.71875 34.980469 23.152344 C 35.199219 22.625 35.152344 22.054688 34.863281 21.589844 C 34.796875 21.480469 34.71875 21.378906 34.628906 21.285156 L 33.945312 20.578125 C 33.890625 20.523438 33.84375 20.460938 33.808594 20.394531 C 33.789062 20.359375 33.773438 20.328125 33.761719 20.292969 C 33.707031 20.148438 33.691406 19.988281 33.722656 19.828125 C 33.761719 19.640625 33.855469 19.480469 33.992188 19.359375 C 34.058594 19.300781 34.132812 19.253906 34.214844 19.214844 L 34.492188 19.097656 L 35.117188 18.824219 C 35.398438 18.703125 35.636719 18.515625 35.808594 18.289062 C 35.8125 18.285156 35.8125 18.285156 35.8125 18.285156 C 35.832031 18.261719 35.847656 18.238281 35.863281 18.214844 C 35.875 18.199219 35.886719 18.179688 35.898438 18.164062 C 35.902344 18.15625 35.90625 18.148438 35.910156 18.140625 C 35.925781 18.121094 35.9375 18.097656 35.949219 18.074219 C 36.023438 17.9375 36.082031 17.792969 36.117188 17.636719 C 36.40625 17.296875 36.648438 16.917969 36.839844 16.507812 C 37.253906 15.617188 36.867188 14.5625 35.976562 14.152344 Z M 27.644531 10.34375 C 27.851562 9.273438 27.9375 8.183594 27.894531 7.105469 C 28.300781 7.261719 28.753906 7.265625 29.167969 7.105469 L 30.082031 6.746094 C 30.164062 6.714844 30.242188 6.695312 30.320312 6.6875 C 30.328125 6.6875 30.332031 6.6875 30.335938 6.6875 C 30.339844 6.6875 30.34375 6.6875 30.347656 6.6875 C 30.355469 6.6875 30.363281 6.683594 30.367188 6.683594 C 30.371094 6.683594 30.371094 6.683594 30.371094 6.683594 C 30.523438 6.679688 30.671875 6.714844 30.804688 6.792969 C 30.8125 6.796875 30.820312 6.800781 30.824219 6.804688 C 30.832031 6.804688 30.835938 6.808594 30.839844 6.8125 C 30.84375 6.8125 30.84375 6.816406 30.847656 6.816406 C 30.898438 6.851562 30.949219 6.890625 30.992188 6.933594 C 31.007812 6.949219 31.019531 6.960938 31.027344 6.972656 C 31.214844 7.179688 31.285156 7.445312 31.222656 7.710938 C 31.222656 7.71875 31.21875 7.726562 31.21875 7.734375 C 31.21875 7.734375 31.21875 7.738281 31.214844 7.742188 C 31.214844 7.746094 31.214844 7.753906 31.210938 7.757812 C 31.210938 7.761719 31.210938 7.765625 31.207031 7.773438 C 31.207031 7.777344 31.203125 7.78125 31.203125 7.785156 C 31.203125 7.792969 31.199219 7.796875 31.195312 7.804688 C 31.195312 7.808594 31.195312 7.8125 31.195312 7.8125 C 31.191406 7.824219 31.1875 7.832031 31.183594 7.84375 L 30.824219 8.753906 C 30.761719 8.910156 30.726562 9.066406 30.710938 9.230469 C 30.449219 9.292969 30.1875 9.382812 29.929688 9.496094 C 27.839844 10.417969 26.539062 12.734375 26.84375 14.996094 C 27.011719 16.246094 27.65625 17.382812 28.585938 18.207031 C 28.167969 17.996094 27.667969 17.941406 27.191406 18.105469 C 27.148438 18.121094 27.097656 18.125 27.039062 18.121094 C 27.023438 18.039062 26.988281 17.960938 26.925781 17.894531 C 26.777344 17.734375 26.542969 17.707031 26.363281 17.816406 C 26.332031 17.789062 26.296875 17.757812 26.265625 17.726562 C 25.789062 17.246094 25.503906 16.457031 25.308594 15.816406 C 26.453125 14.214844 27.257812 12.328125 27.644531 10.34375 Z M 27.070312 20.785156 C 26.722656 20.785156 26.371094 20.726562 26.015625 20.617188 C 25.878906 20.570312 25.746094 20.519531 25.613281 20.460938 C 25.816406 19.894531 26.125 19.367188 26.523438 18.910156 C 26.855469 19.023438 27.195312 19.042969 27.480469 18.945312 C 27.945312 18.785156 28.449219 19.035156 28.609375 19.496094 C 28.765625 19.960938 28.519531 20.464844 28.054688 20.625 C 27.742188 20.730469 27.410156 20.785156 27.070312 20.785156 Z M 27.109375 21.671875 C 27.054688 22.070312 26.941406 22.460938 26.777344 22.828125 L 26.648438 22.664062 C 26.492188 22.460938 26.269531 22.328125 26.015625 22.285156 C 25.78125 22.246094 25.539062 22.292969 25.332031 22.414062 C 25.3125 22.066406 25.324219 21.71875 25.378906 21.375 C 25.382812 21.359375 25.382812 21.34375 25.386719 21.328125 C 25.503906 21.378906 25.625 21.421875 25.746094 21.460938 C 26.1875 21.601562 26.632812 21.671875 27.070312 21.671875 C 27.085938 21.671875 27.097656 21.671875 27.109375 21.671875 Z M 22.792969 4.996094 C 22.839844 4.855469 22.882812 4.714844 22.933594 4.574219 C 22.980469 4.433594 23.027344 4.292969 23.078125 4.15625 C 23.089844 4.128906 23.097656 4.105469 23.105469 4.082031 C 23.15625 3.949219 23.207031 3.828125 23.261719 3.71875 C 23.34375 3.550781 23.433594 3.402344 23.53125 3.273438 C 23.53125 3.269531 23.535156 3.269531 23.535156 3.265625 C 23.6875 3.070312 23.851562 2.929688 24.011719 2.832031 C 24.246094 2.6875 24.476562 2.628906 24.65625 2.613281 C 24.992188 2.578125 25.316406 2.652344 25.601562 2.832031 C 25.613281 2.835938 25.621094 2.839844 25.628906 2.847656 C 25.796875 2.953125 25.949219 3.09375 26.085938 3.269531 C 26.085938 3.273438 26.089844 3.273438 26.09375 3.277344 C 26.238281 3.46875 26.351562 3.679688 26.433594 3.878906 C 26.503906 4.042969 26.554688 4.199219 26.585938 4.328125 C 26.664062 4.617188 26.734375 4.914062 26.789062 5.210938 C 26.851562 5.527344 26.898438 5.847656 26.933594 6.171875 C 26.933594 6.171875 26.933594 6.175781 26.933594 6.175781 C 27.082031 7.492188 27.027344 8.851562 26.769531 10.175781 C 26.390625 12.136719 25.574219 13.988281 24.410156 15.535156 C 24.386719 15.570312 24.355469 15.601562 24.328125 15.632812 C 24.367188 15.769531 24.40625 15.910156 24.449219 16.046875 C 24.675781 16.789062 25.011719 17.722656 25.628906 18.347656 C 25.667969 18.386719 25.707031 18.421875 25.746094 18.457031 C 25.503906 18.75 25.292969 19.066406 25.113281 19.402344 C 25.007812 19.601562 24.917969 19.800781 24.835938 20.003906 C 24.667969 19.878906 24.511719 19.742188 24.363281 19.59375 C 23.472656 18.691406 23.03125 17.5 22.746094 16.5625 C 22.132812 14.546875 21.851562 12.4375 21.914062 10.292969 C 21.964844 8.476562 22.261719 6.699219 22.792969 4.996094 Z M 17.707031 15.980469 C 17.296875 15.921875 16.847656 16.039062 16.46875 16.296875 C 16.105469 16.546875 15.863281 16.902344 15.808594 17.273438 C 15.734375 17.757812 15.285156 18.089844 14.796875 18.019531 C 14.3125 17.945312 13.976562 17.496094 14.050781 17.011719 C 14.117188 16.566406 14.28125 16.140625 14.542969 15.753906 C 14.785156 15.398438 15.09375 15.089844 15.460938 14.835938 C 16.203125 14.328125 17.113281 14.105469 17.960938 14.226562 C 18.773438 14.34375 19.558594 14.757812 20.167969 15.390625 C 20.75 15.996094 21.144531 16.773438 21.289062 17.582031 C 21.417969 18.324219 21.355469 19.113281 21.101562 19.875 C 21.136719 19.929688 21.171875 19.984375 21.207031 20.039062 C 21.367188 20.257812 21.585938 20.359375 21.652344 20.355469 C 22.089844 20.144531 22.621094 20.324219 22.835938 20.761719 C 23.054688 21.203125 22.871094 21.734375 22.433594 21.949219 C 21.652344 22.332031 20.800781 22.066406 20.191406 21.539062 C 20.082031 21.679688 19.964844 21.8125 19.839844 21.941406 C 19.46875 22.324219 19.058594 22.625 18.628906 22.839844 C 18.167969 23.066406 17.703125 23.179688 17.242188 23.179688 C 17.164062 23.179688 17.089844 23.175781 17.015625 23.171875 C 16.339844 23.117188 15.695312 22.796875 15.199219 22.269531 C 15.082031 22.144531 14.980469 22.011719 14.886719 21.871094 C 14.597656 21.4375 14.425781 20.941406 14.402344 20.433594 C 14.375 19.929688 14.484375 19.414062 14.71875 18.945312 C 14.785156 18.808594 14.863281 18.675781 14.949219 18.550781 C 15.328125 18 15.867188 17.574219 16.472656 17.34375 C 17.121094 17.101562 17.863281 17.074219 18.5625 17.277344 C 18.898438 17.371094 19.210938 17.515625 19.496094 17.699219 C 19.265625 16.820312 18.523438 16.097656 17.707031 15.980469 Z M 18.238281 5.082031 C 18.796875 4.972656 19.265625 4.59375 19.492188 4.074219 L 19.886719 3.175781 C 20.011719 2.886719 20.261719 2.707031 20.566406 2.671875 C 20.597656 2.671875 20.628906 2.667969 20.664062 2.667969 C 20.925781 2.667969 21.15625 2.777344 21.316406 2.96875 C 21.316406 2.972656 21.320312 2.976562 21.324219 2.980469 C 21.328125 2.984375 21.332031 2.988281 21.335938 2.996094 C 21.339844 3 21.34375 3.003906 21.34375 3.007812 C 21.347656 3.011719 21.351562 3.015625 21.355469 3.019531 C 21.363281 3.03125 21.371094 3.042969 21.375 3.054688 C 21.378906 3.058594 21.378906 3.0625 21.382812 3.0625 C 21.386719 3.070312 21.386719 3.074219 21.390625 3.078125 C 21.394531 3.085938 21.398438 3.089844 21.402344 3.09375 C 21.402344 3.101562 21.40625 3.105469 21.410156 3.109375 C 21.414062 3.117188 21.414062 3.125 21.417969 3.128906 C 21.421875 3.132812 21.421875 3.136719 21.425781 3.140625 C 21.429688 3.152344 21.4375 3.164062 21.441406 3.175781 L 21.460938 3.222656 L 21.832031 4.074219 C 21.890625 4.203125 21.960938 4.320312 22.042969 4.429688 C 21.425781 6.304688 21.082031 8.265625 21.023438 10.265625 C 20.96875 12.195312 21.179688 14.097656 21.648438 15.9375 C 21.425781 15.515625 21.140625 15.125 20.8125 14.777344 C 20.453125 14.40625 20.046875 14.09375 19.601562 13.851562 C 19.125 13.59375 18.613281 13.421875 18.085938 13.347656 C 17.535156 13.269531 16.972656 13.300781 16.417969 13.441406 C 15.894531 13.574219 15.402344 13.796875 14.957031 14.105469 C 14.496094 14.421875 14.109375 14.8125 13.804688 15.257812 C 13.484375 15.734375 13.273438 16.253906 13.183594 16.800781 C 13.171875 16.792969 13.160156 16.785156 13.152344 16.777344 C 12.113281 16.003906 10.742188 15.675781 9.074219 15.804688 C 8.636719 15.835938 8.21875 15.894531 7.816406 15.949219 C 7.761719 15.957031 7.707031 15.964844 7.65625 15.972656 C 8.078125 15.722656 8.378906 15.304688 8.476562 14.820312 C 8.585938 14.261719 8.417969 13.6875 8.023438 13.277344 L 7.339844 12.570312 C 7.097656 12.324219 7.035156 11.980469 7.167969 11.660156 C 7.199219 11.578125 7.246094 11.503906 7.296875 11.441406 C 7.390625 11.367188 7.484375 11.292969 7.578125 11.21875 C 7.6875 11.167969 7.804688 11.140625 7.933594 11.140625 L 8.917969 11.121094 C 9.488281 11.109375 10.015625 10.824219 10.332031 10.351562 C 10.464844 10.152344 10.550781 9.933594 10.59375 9.703125 C 10.863281 9.625 11.140625 9.554688 11.414062 9.5 L 10.066406 12.644531 C 9.988281 12.820312 10.035156 13.027344 10.179688 13.152344 C 10.261719 13.226562 10.367188 13.265625 10.472656 13.265625 C 10.550781 13.265625 10.625 13.246094 10.695312 13.203125 L 18.726562 8.585938 C 18.859375 8.507812 18.945312 8.363281 18.949219 8.207031 C 18.949219 8.050781 18.867188 7.902344 18.734375 7.820312 L 15.203125 5.667969 L 16.050781 4.011719 L 16.695312 4.628906 C 17.101562 5.023438 17.679688 5.195312 18.238281 5.082031 Z M 12.996094 3.71875 L 13.71875 3.273438 L 14.378906 2.871094 L 15.429688 2.226562 L 16.144531 1.789062 L 16.210938 1.75 L 16.191406 1.789062 L 15.964844 2.230469 L 15.734375 2.675781 L 15.652344 2.839844 L 15.433594 3.265625 L 15.191406 3.738281 L 14.539062 5.007812 L 14.222656 5.628906 C 14.117188 5.832031 14.1875 6.082031 14.378906 6.203125 C 14.378906 6.207031 14.382812 6.207031 14.386719 6.210938 L 17.632812 8.1875 L 11.410156 11.769531 L 12.445312 9.359375 C 12.617188 9.34375 12.789062 9.335938 12.960938 9.332031 C 13.945312 9.3125 14.726562 8.5 14.703125 7.523438 C 14.695312 7.09375 14.535156 6.703125 14.273438 6.402344 C 14.175781 6.285156 14.0625 6.183594 13.9375 6.097656 C 13.816406 6.015625 13.683594 5.945312 13.542969 5.894531 C 13.339844 5.820312 13.117188 5.78125 12.890625 5.785156 C 12.421875 5.796875 11.957031 5.832031 11.496094 5.894531 C 11.289062 5.921875 11.082031 5.957031 10.875 5.996094 L 10.609375 5.828125 L 10.085938 5.496094 Z M 9.273438 26.421875 C 8.804688 26.628906 8.332031 26.816406 7.863281 27 C 7.757812 27.042969 7.644531 27.0625 7.535156 27.0625 C 7.183594 27.0625 6.847656 26.851562 6.710938 26.503906 C 6.527344 26.046875 6.75 25.53125 7.207031 25.351562 C 7.941406 25.0625 8.691406 24.765625 9.390625 24.402344 C 9.53125 24.332031 9.671875 24.253906 9.804688 24.175781 C 9.9375 24.101562 10.066406 24.023438 10.191406 23.941406 C 10.261719 23.894531 10.332031 23.847656 10.398438 23.800781 C 11.375 23.117188 12.035156 22.253906 12.265625 21.363281 C 12.503906 20.429688 12.203125 19.398438 11.550781 18.90625 C 11.046875 18.53125 10.28125 18.378906 9.28125 18.457031 C 8.921875 18.484375 8.5625 18.535156 8.179688 18.585938 C 8.070312 18.601562 7.960938 18.617188 7.847656 18.632812 C 7.59375 18.664062 7.339844 18.695312 7.078125 18.71875 C 6.792969 18.742188 6.503906 18.757812 6.207031 18.753906 C 6.15625 18.753906 6.105469 18.75 6.054688 18.75 C 5.46875 18.722656 4.90625 18.609375 4.414062 18.421875 C 3.753906 18.164062 3.222656 17.777344 2.839844 17.269531 C 2.578125 16.921875 2.386719 16.519531 2.273438 16.082031 C 2.238281 15.933594 2.207031 15.785156 2.1875 15.632812 C 2.164062 15.46875 2.152344 15.300781 2.152344 15.128906 C 2.152344 14.871094 2.171875 14.609375 2.21875 14.347656 C 2.242188 14.230469 2.265625 14.109375 2.296875 13.992188 C 2.339844 13.828125 2.390625 13.664062 2.453125 13.5 C 2.507812 13.351562 2.566406 13.203125 2.636719 13.050781 C 2.8125 12.675781 3.03125 12.292969 3.308594 11.886719 C 3.488281 11.621094 3.679688 11.363281 3.882812 11.113281 C 4.070312 10.882812 4.265625 10.65625 4.472656 10.4375 C 4.574219 10.332031 4.679688 10.226562 4.785156 10.121094 C 5 9.910156 5.222656 9.710938 5.453125 9.515625 C 6.078125 8.992188 6.757812 8.527344 7.480469 8.132812 C 8.035156 7.832031 8.613281 7.574219 9.199219 7.367188 C 9.359375 7.308594 9.519531 7.253906 9.679688 7.203125 C 9.863281 7.148438 10.050781 7.09375 10.238281 7.046875 C 10.394531 7.003906 10.546875 6.96875 10.703125 6.933594 C 10.914062 6.890625 11.128906 6.847656 11.34375 6.8125 C 11.359375 6.8125 11.378906 6.808594 11.394531 6.804688 C 11.609375 6.773438 11.820312 6.746094 12.035156 6.726562 C 12.136719 6.714844 12.238281 6.707031 12.339844 6.699219 C 12.527344 6.683594 12.71875 6.675781 12.90625 6.671875 C 13.011719 6.671875 13.109375 6.6875 13.203125 6.714844 C 13.371094 6.769531 13.519531 6.875 13.625 7.011719 C 13.742188 7.160156 13.8125 7.339844 13.816406 7.539062 C 13.824219 8.03125 13.433594 8.4375 12.945312 8.445312 C 12.90625 8.445312 12.871094 8.449219 12.835938 8.449219 C 12.667969 8.453125 12.503906 8.464844 12.339844 8.476562 C 12.167969 8.492188 12 8.511719 11.832031 8.535156 C 11.390625 8.59375 10.949219 8.683594 10.519531 8.804688 C 10.378906 8.84375 10.234375 8.886719 10.09375 8.929688 C 9.953125 8.976562 9.8125 9.023438 9.675781 9.078125 C 8.761719 9.414062 7.898438 9.882812 7.113281 10.460938 C 6.964844 10.574219 6.816406 10.6875 6.671875 10.808594 C 5.949219 11.40625 5.308594 12.101562 4.78125 12.878906 C 4.328125 13.550781 4.070312 14.117188 3.972656 14.660156 C 3.867188 15.246094 3.972656 15.824219 4.261719 16.199219 C 4.503906 16.519531 4.859375 16.710938 5.214844 16.820312 C 5.363281 16.867188 5.507812 16.902344 5.648438 16.925781 C 5.8125 16.953125 5.96875 16.96875 6.09375 16.972656 C 6.144531 16.976562 6.195312 16.980469 6.238281 16.980469 C 6.785156 16.988281 7.34375 16.910156 7.9375 16.828125 C 8.328125 16.777344 8.730469 16.71875 9.144531 16.6875 C 10.589844 16.578125 11.757812 16.847656 12.617188 17.488281 C 13.109375 17.855469 13.496094 18.347656 13.757812 18.933594 C 13.570312 19.429688 13.484375 19.957031 13.511719 20.476562 C 13.539062 21.007812 13.683594 21.527344 13.933594 22 C 13.742188 22.625 13.425781 23.226562 12.988281 23.785156 C 12.5625 24.328125 12.039062 24.820312 11.421875 25.25 C 11.105469 25.472656 10.78125 25.671875 10.449219 25.851562 C 10.253906 25.960938 10.054688 26.0625 9.851562 26.15625 C 9.660156 26.25 9.46875 26.339844 9.273438 26.421875 Z M 8.476562 19.652344 C 8.460938 19.582031 8.445312 19.515625 8.421875 19.449219 C 8.746094 19.40625 9.050781 19.363281 9.347656 19.339844 C 10.117188 19.28125 10.695312 19.378906 11.015625 19.617188 C 11.382812 19.890625 11.550781 20.5625 11.402344 21.144531 C 11.226562 21.828125 10.6875 22.511719 9.886719 23.074219 C 9.714844 23.195312 9.539062 23.308594 9.351562 23.414062 C 9.210938 23.375 9.066406 23.355469 8.917969 23.351562 L 7.933594 23.332031 C 7.585938 23.328125 7.300781 23.132812 7.167969 22.8125 C 7.035156 22.492188 7.097656 22.148438 7.339844 21.902344 L 8.023438 21.195312 C 8.417969 20.785156 8.585938 20.210938 8.476562 19.652344 Z M 21.414062 31.347656 C 21.414062 31.355469 21.410156 31.359375 21.410156 31.363281 C 21.40625 31.367188 21.402344 31.371094 21.402344 31.378906 C 21.398438 31.382812 21.394531 31.386719 21.390625 31.394531 C 21.386719 31.398438 21.386719 31.402344 21.382812 31.410156 C 21.382812 31.410156 21.382812 31.410156 21.378906 31.410156 C 21.371094 31.425781 21.363281 31.4375 21.351562 31.453125 C 21.351562 31.457031 21.347656 31.460938 21.34375 31.464844 C 21.34375 31.46875 21.339844 31.472656 21.335938 31.480469 C 21.332031 31.484375 21.328125 31.488281 21.324219 31.492188 C 21.320312 31.496094 21.316406 31.5 21.316406 31.503906 C 21.15625 31.695312 20.925781 31.804688 20.664062 31.804688 C 20.628906 31.804688 20.597656 31.800781 20.566406 31.800781 C 20.261719 31.765625 20.011719 31.585938 19.886719 31.296875 L 19.492188 30.398438 C 19.265625 29.878906 18.796875 29.5 18.238281 29.390625 C 18.125 29.367188 18.011719 29.355469 17.898438 29.355469 C 17.453125 29.355469 17.019531 29.527344 16.695312 29.84375 L 15.984375 30.523438 C 15.734375 30.761719 15.394531 30.828125 15.074219 30.695312 C 14.75 30.5625 14.554688 30.277344 14.550781 29.929688 L 14.53125 28.949219 C 14.519531 28.382812 14.234375 27.855469 13.757812 27.539062 C 13.285156 27.222656 12.6875 27.160156 12.160156 27.367188 L 11.242188 27.726562 C 10.917969 27.851562 10.578125 27.78125 10.332031 27.539062 C 10.1875 27.394531 10.105469 27.214844 10.085938 27.027344 C 10.710938 26.734375 11.339844 26.394531 11.933594 25.976562 C 12.621094 25.496094 13.210938 24.941406 13.6875 24.332031 C 14.050781 23.871094 14.339844 23.386719 14.554688 22.878906 C 15.199219 23.566406 16.050781 23.984375 16.945312 24.054688 C 17.042969 24.0625 17.144531 24.066406 17.242188 24.066406 C 17.84375 24.066406 18.441406 23.921875 19.023438 23.632812 C 19.492188 23.402344 19.933594 23.089844 20.339844 22.699219 C 20.382812 22.71875 20.425781 22.742188 20.46875 22.761719 C 20.859375 22.933594 21.261719 23.019531 21.652344 23.019531 C 22.058594 23.019531 22.457031 22.925781 22.824219 22.746094 C 23.707031 22.3125 24.070312 21.25 23.636719 20.371094 C 23.34375 19.777344 22.761719 19.421875 22.144531 19.382812 C 22.246094 18.835938 22.269531 18.28125 22.210938 17.746094 C 22.527344 18.574219 22.988281 19.464844 23.730469 20.214844 C 23.984375 20.472656 24.261719 20.699219 24.5625 20.894531 C 24.539062 21.011719 24.515625 21.125 24.5 21.242188 C 24.414062 21.808594 24.410156 22.382812 24.496094 22.957031 L 23.214844 23.796875 C 22.839844 24.042969 22.578125 24.4375 22.503906 24.878906 Z M 27.609375 25.734375 L 27.261719 27.800781 L 27.253906 27.847656 L 26.734375 30.925781 L 26.636719 31.496094 L 26.492188 32.367188 C 26.476562 32.460938 26.382812 32.527344 26.285156 32.511719 L 22.414062 31.863281 C 22.316406 31.847656 22.25 31.753906 22.265625 31.65625 L 22.269531 31.640625 L 22.273438 31.613281 L 22.34375 31.199219 L 22.417969 30.753906 L 22.515625 30.171875 L 22.621094 29.554688 L 23.382812 25.027344 C 23.417969 24.828125 23.53125 24.648438 23.703125 24.539062 L 24.710938 23.878906 C 24.835938 24.269531 25 24.640625 25.203125 24.996094 C 25.285156 25.136719 25.433594 25.21875 25.589844 25.21875 C 25.664062 25.21875 25.738281 25.199219 25.808594 25.160156 C 26.023438 25.035156 26.097656 24.765625 25.972656 24.554688 C 25.757812 24.179688 25.597656 23.78125 25.488281 23.371094 L 25.785156 23.175781 C 25.804688 23.164062 25.828125 23.160156 25.847656 23.160156 C 25.886719 23.160156 25.921875 23.175781 25.945312 23.203125 L 27.464844 25.167969 C 27.589844 25.328125 27.640625 25.535156 27.609375 25.734375 Z M 33.988281 21.902344 C 34.046875 21.964844 34.097656 22.03125 34.136719 22.101562 C 34.25 22.320312 34.261719 22.570312 34.160156 22.8125 C 34.027344 23.132812 33.738281 23.328125 33.390625 23.332031 L 32.410156 23.351562 C 31.875 23.359375 31.378906 23.613281 31.058594 24.035156 C 31.035156 24.0625 31.015625 24.089844 30.996094 24.121094 C 30.703125 24.554688 30.625 25.097656 30.78125 25.59375 C 30.792969 25.636719 30.808594 25.675781 30.824219 25.71875 L 31.183594 26.628906 C 31.1875 26.640625 31.191406 26.648438 31.195312 26.660156 C 31.195312 26.664062 31.195312 26.667969 31.199219 26.667969 C 31.199219 26.675781 31.203125 26.679688 31.203125 26.6875 C 31.203125 26.691406 31.207031 26.695312 31.207031 26.703125 C 31.210938 26.707031 31.210938 26.710938 31.210938 26.714844 C 31.214844 26.71875 31.214844 26.726562 31.214844 26.730469 C 31.21875 26.734375 31.21875 26.738281 31.21875 26.738281 C 31.21875 26.746094 31.222656 26.753906 31.222656 26.761719 C 31.285156 27.027344 31.214844 27.292969 31.03125 27.5 C 31.019531 27.511719 31.007812 27.523438 30.992188 27.539062 C 30.949219 27.582031 30.898438 27.621094 30.847656 27.65625 C 30.84375 27.65625 30.84375 27.660156 30.839844 27.660156 C 30.835938 27.664062 30.832031 27.667969 30.824219 27.667969 C 30.6875 27.753906 30.53125 27.792969 30.371094 27.789062 C 30.371094 27.789062 30.371094 27.789062 30.367188 27.789062 C 30.363281 27.789062 30.355469 27.785156 30.347656 27.785156 C 30.34375 27.785156 30.339844 27.785156 30.335938 27.785156 C 30.332031 27.785156 30.328125 27.785156 30.320312 27.785156 C 30.242188 27.777344 30.164062 27.757812 30.082031 27.726562 L 29.167969 27.367188 C 28.871094 27.253906 28.554688 27.222656 28.25 27.269531 L 28.484375 25.882812 C 28.558594 25.4375 28.445312 24.980469 28.171875 24.628906 L 27.378906 23.605469 C 27.730469 22.976562 27.949219 22.277344 28.019531 21.558594 C 28.128906 21.53125 28.234375 21.5 28.34375 21.460938 C 29.273438 21.144531 29.769531 20.136719 29.449219 19.210938 C 29.375 18.988281 29.257812 18.792969 29.113281 18.625 C 29.753906 19.066406 30.488281 19.371094 31.273438 19.488281 C 31.523438 19.527344 31.773438 19.546875 32.023438 19.546875 C 32.316406 19.546875 32.609375 19.519531 32.898438 19.46875 C 32.878906 19.53125 32.863281 19.589844 32.851562 19.652344 C 32.832031 19.757812 32.820312 19.863281 32.816406 19.96875 C 32.8125 20.421875 32.984375 20.863281 33.304688 21.195312 Z M 36.035156 16.132812 C 36 16.207031 35.960938 16.28125 35.921875 16.351562 C 35.839844 16.507812 35.746094 16.65625 35.644531 16.800781 C 35.53125 16.957031 35.40625 17.105469 35.273438 17.246094 C 34.945312 17.589844 34.554688 17.890625 34.125 18.121094 C 33.464844 18.472656 32.734375 18.65625 32.015625 18.65625 C 31.8125 18.65625 31.609375 18.644531 31.40625 18.613281 C 30.503906 18.476562 29.632812 18.023438 28.960938 17.339844 C 28.285156 16.65625 27.847656 15.78125 27.726562 14.875 C 27.605469 13.972656 27.796875 13.015625 28.265625 12.175781 C 28.734375 11.339844 29.453125 10.675781 30.289062 10.304688 C 30.480469 10.222656 30.667969 10.15625 30.859375 10.105469 C 31.011719 10.066406 31.160156 10.035156 31.3125 10.019531 C 31.492188 9.996094 31.671875 9.988281 31.847656 9.996094 C 32.210938 10.011719 32.554688 10.09375 32.867188 10.242188 C 32.902344 10.261719 32.9375 10.277344 32.972656 10.296875 C 33.175781 10.40625 33.359375 10.542969 33.523438 10.703125 C 33.75 10.925781 33.9375 11.195312 34.074219 11.5 C 34.113281 11.585938 34.148438 11.675781 34.175781 11.765625 C 34.195312 11.820312 34.210938 11.871094 34.226562 11.925781 C 34.308594 12.230469 34.339844 12.550781 34.324219 12.863281 C 34.3125 13.113281 34.265625 13.359375 34.1875 13.597656 C 34.179688 13.621094 34.171875 13.644531 34.164062 13.667969 C 34.054688 13.96875 33.902344 14.253906 33.707031 14.519531 C 33.601562 14.664062 33.480469 14.800781 33.34375 14.933594 C 33.3125 14.964844 33.28125 14.996094 33.25 15.027344 C 33.167969 15.101562 33.082031 15.175781 32.996094 15.242188 C 32.660156 15.507812 32.273438 15.722656 31.859375 15.882812 C 31.367188 16.070312 30.863281 16.175781 30.375 16.230469 C 30.742188 16.554688 31.195312 16.785156 31.671875 16.859375 C 32.46875 16.980469 33.332031 16.660156 33.914062 16.09375 C 34.027344 15.984375 34.125 15.867188 34.214844 15.738281 C 34.292969 15.628906 34.363281 15.511719 34.421875 15.386719 C 34.425781 15.375 34.433594 15.363281 34.4375 15.351562 C 34.65625 14.933594 35.167969 14.753906 35.601562 14.957031 C 36.046875 15.160156 36.242188 15.6875 36.035156 16.132812 Z M 32.496094 13.046875 C 32.644531 12.597656 32.472656 12.042969 32.132812 11.859375 C 32.015625 11.796875 31.871094 11.765625 31.710938 11.765625 C 31.496094 11.765625 31.253906 11.820312 31.011719 11.929688 C 30.054688 12.351562 29.398438 13.464844 29.476562 14.507812 C 30.054688 14.496094 30.675781 14.4375 31.222656 14.226562 C 31.855469 13.984375 32.332031 13.542969 32.496094 13.046875 Z M 30.582031 13.496094 C 30.761719 13.164062 31.042969 12.886719 31.371094 12.738281 C 31.488281 12.6875 31.585938 12.664062 31.65625 12.65625 C 31.660156 12.695312 31.660156 12.738281 31.652344 12.769531 C 31.574219 13.003906 31.273438 13.257812 30.902344 13.398438 C 30.800781 13.4375 30.691406 13.46875 30.582031 13.496094 Z M 30.582031 13.496094 " fill-opacity="1" fill-rule="nonzero"/></g></svg>