<svg xmlns="http://www.w3.org/2000/svg" xmlns:xlink="http://www.w3.org/1999/xlink" width="10" zoomAndPan="magnify" viewBox="0 0 292.5 168.75" height="auto" preserveAspectRatio="xMidYMid meet" version="1.0"><defs><clipPath id="219e6213b6"><path d="M 0 0.0195312 L 292 0.0195312 L 292 168.480469 L 0 168.480469 Z M 0 0.0195312 " clip-rule="nonzero"/></clipPath><clipPath id="1ed0034566"><path d="M 0 0.0195312 L 291 0.0195312 L 291 168.480469 L 0 168.480469 Z M 0 0.0195312 " clip-rule="nonzero"/></clipPath></defs><g clip-path="url(#219e6213b6)"><path fill="#ffffff" d="M 0 0.0195312 L 292 0.0195312 L 292 168.480469 L 0 168.480469 Z M 0 0.0195312 " fill-opacity="1" fill-rule="nonzero"/><path fill="#ffffff" d="M 0 0.0195312 L 292 0.0195312 L 292 168.480469 L 0 168.480469 Z M 0 0.0195312 " fill-opacity="1" fill-rule="nonzero"/></g><path fill="#000000" d="M 42.511719 19.816406 L 58.472656 19.816406 L 60.710938 42.132812 C 61.285156 48.847656 61.144531 61.640625 61.144531 61.640625 L 61.367188 61.640625 C 61.367188 61.640625 65.265625 49.363281 68.4375 42.789062 L 79.5625 19.816406 L 96.171875 19.816406 L 85.699219 73.566406 L 74.726562 73.566406 L 79.273438 50.089844 C 80.5 43.375 83.816406 29 83.816406 29 L 83.675781 29 C 83.675781 29 79.050781 41.570312 76.097656 48.003906 L 63.753906 73.578125 L 53.859375 73.578125 L 51.257812 48.003906 C 50.683594 41.640625 50.683594 29 50.683594 29 L 50.542969 29 C 50.542969 29 48.671875 43.375 47.371094 50.089844 L 42.828125 73.566406 L 32.066406 73.566406 L 42.535156 19.816406 Z M 42.511719 19.816406 " fill-opacity="1" fill-rule="nonzero"/><path fill="#000000" d="M 105.117188 19.816406 L 144.6875 19.816406 L 142.746094 29.785156 L 115.234375 29.785156 L 113.070312 40.832031 L 136.902344 40.832031 L 135.027344 50.371094 L 111.195312 50.371094 L 108.738281 63.234375 L 136.679688 63.234375 L 134.652344 73.566406 L 94.648438 73.566406 Z M 105.117188 19.816406 " fill-opacity="1" fill-rule="nonzero"/><path fill="#000000" d="M 148.15625 66.769531 C 145.261719 62.871094 143.894531 57.457031 143.894531 51.894531 C 143.894531 40.046875 149.09375 29.574219 157.535156 23.71875 C 162.230469 20.390625 167.714844 18.878906 173.929688 18.878906 C 186.636719 18.878906 193.640625 25.886719 194.800781 36.359375 L 182.667969 36.359375 C 182.09375 32.023438 179.203125 28.777344 173.066406 28.777344 C 161.730469 28.777344 156.234375 40.984375 156.234375 51.320312 C 156.234375 59.988281 160.066406 65.039062 167.503906 65.039062 C 174.9375 65.039062 180.5 59.976562 181.507812 54.058594 L 181.578125 53.765625 L 170.746094 53.765625 L 172.550781 44.804688 L 194.578125 44.804688 L 188.945312 73.554688 L 180.640625 73.554688 L 181.003906 66.40625 L 180.78125 66.40625 C 177.457031 71.609375 171.613281 74.714844 165.113281 74.714844 C 157.101562 74.714844 151.679688 71.820312 148.144531 66.769531 Z M 148.15625 66.769531 " fill-opacity="1" fill-rule="nonzero"/><path fill="#000000" d="M 222.53125 19.816406 L 235.097656 19.816406 L 243.695312 73.566406 L 231.199219 73.566406 L 229.898438 63.234375 L 210.832031 63.234375 L 205.5625 73.566406 L 193.136719 73.566406 Z M 215.316406 54.632812 L 228.890625 54.632812 L 227.660156 44.734375 C 226.933594 39.394531 227.015625 29.492188 227.015625 29.492188 L 226.875 29.492188 C 226.875 29.492188 223.339844 38.960938 220.601562 44.371094 L 215.328125 54.632812 Z M 215.316406 54.632812 " fill-opacity="1" fill-rule="nonzero"/><path fill="#000000" d="M 29.910156 82.855469 L 49.773438 82.855469 C 63.777344 82.855469 71.367188 92.179688 71.367188 104.527344 C 71.367188 123.8125 60.828125 136.605469 42.195312 136.605469 L 19.453125 136.605469 L 29.921875 82.855469 Z M 42.40625 126.566406 C 53.238281 126.566406 59.082031 118.1875 59.082031 105.113281 C 59.082031 97.746094 55.757812 92.835938 47.886719 92.835938 L 40.085938 92.835938 L 33.445312 126.566406 Z M 42.40625 126.566406 " fill-opacity="1" fill-rule="nonzero"/><path fill="#000000" d="M 82.773438 82.855469 L 122.34375 82.855469 L 120.402344 92.824219 L 92.890625 92.824219 L 90.726562 103.875 L 114.558594 103.875 L 112.683594 113.410156 L 88.851562 113.410156 L 86.390625 126.273438 L 114.335938 126.273438 L 112.308594 136.605469 L 72.304688 136.605469 Z M 82.773438 82.855469 " fill-opacity="1" fill-rule="nonzero"/><path fill="#000000" d="M 146.175781 82.855469 L 158.742188 82.855469 L 167.339844 136.605469 L 154.84375 136.605469 L 153.542969 126.273438 L 134.476562 126.273438 L 129.207031 136.605469 L 116.78125 136.605469 Z M 138.949219 117.671875 L 152.523438 117.671875 L 151.292969 107.773438 C 150.566406 102.433594 150.648438 92.53125 150.648438 92.53125 L 150.507812 92.53125 C 150.507812 92.53125 146.972656 102 144.234375 107.410156 L 138.960938 117.671875 Z M 138.949219 117.671875 " fill-opacity="1" fill-rule="nonzero"/><path fill="#000000" d="M 183.148438 82.855469 L 195.210938 82.855469 L 186.765625 126.273438 L 210.960938 126.273438 L 208.9375 136.605469 L 172.691406 136.605469 L 183.160156 82.855469 Z M 183.148438 82.855469 " fill-opacity="1" fill-rule="nonzero"/><path fill="#000000" d="M 213.257812 119.628906 L 225.53125 119.628906 C 226.328125 125.265625 229.640625 128.300781 236.796875 128.300781 C 242.136719 128.300781 245.964844 125.839844 245.964844 121.65625 C 246.035156 117.824219 242.066406 116.386719 235.132812 113.996094 C 226.175781 110.960938 219.03125 107.785156 219.03125 98.53125 C 219.03125 88.703125 226.46875 81.917969 239.898438 81.917969 C 252.242188 81.917969 259.539062 87.847656 260.40625 97.957031 L 248.566406 97.957031 C 248.0625 93.84375 244.804688 91.023438 239.464844 91.023438 C 234.125 91.023438 231.164062 93.410156 231.164062 96.796875 C 231.09375 100.335938 234.992188 101.859375 242.792969 104.457031 C 251.09375 107.199219 258.460938 110.890625 258.460938 120.273438 C 258.460938 130.535156 250.160156 137.90625 236.726562 137.90625 C 221.851562 137.90625 213.550781 130.96875 213.257812 119.628906 Z M 213.257812 119.628906 " fill-opacity="1" fill-rule="nonzero"/><g clip-path="url(#1ed0034566)"><path fill="#ffdb01" d="M 290.796875 108.066406 C 289.964844 98.402344 285.992188 90.390625 279.660156 84.648438 C 278.921875 83.828125 278.136719 83.042969 277.316406 82.304688 C 276.578125 81.484375 275.792969 80.699219 274.972656 79.960938 C 274.421875 79.351562 273.847656 78.765625 273.265625 78.195312 L 265.324219 28.566406 C 264.585938 23.964844 262.207031 19.992188 258.859375 17.167969 C 258.144531 16.3125 257.359375 15.539062 256.515625 14.824219 C 255.804688 13.96875 255.019531 13.199219 254.175781 12.484375 C 253.460938 11.628906 252.675781 10.855469 251.832031 10.140625 C 251.117188 9.285156 250.332031 8.511719 249.492188 7.796875 C 246.023438 3.648438 240.835938 1.058594 235.109375 1.058594 L 222.542969 1.058594 C 215.691406 1.058594 209.390625 4.796875 206.101562 10.808594 L 204.8125 13.164062 C 204.53125 12.882812 204.238281 12.613281 203.945312 12.355469 C 196.898438 4.597656 186.449219 0.136719 173.941406 0.136719 C 166.976562 0.136719 160.535156 1.445312 154.691406 3.976562 C 151.726562 2.113281 148.273438 1.070312 144.699219 1.070312 L 105.128906 1.070312 C 103.582031 1.070312 102.085938 1.269531 100.644531 1.632812 C 99.191406 1.28125 97.703125 1.070312 96.183594 1.070312 L 79.574219 1.070312 C 75.734375 1.070312 72.082031 2.242188 69.035156 4.316406 C 66.027344 2.265625 62.382812 1.070312 58.496094 1.070312 L 42.535156 1.070312 C 33.5625 1.070312 25.859375 7.421875 24.148438 16.230469 L 13.679688 69.980469 C 13.410156 71.375 13.304688 72.792969 13.351562 74.1875 C 12.53125 75.757812 11.910156 77.46875 11.546875 79.28125 L 1.054688 133.019531 C -0.0117188 138.515625 1.429688 144.207031 4.988281 148.519531 C 5.691406 149.375 6.488281 150.148438 7.332031 150.851562 C 8.035156 151.707031 8.832031 152.480469 9.671875 153.183594 C 10.375 154.039062 11.171875 154.8125 12.015625 155.515625 C 12.71875 156.367188 13.515625 157.140625 14.359375 157.84375 C 15.058594 158.699219 15.855469 159.472656 16.699219 160.175781 C 20.261719 164.5 25.566406 167.007812 31.164062 167.007812 L 53.90625 167.007812 C 60.921875 167.007812 67.375 165.777344 73.125 163.480469 C 76.273438 165.742188 80.066406 167.007812 84.027344 167.007812 L 124.03125 167.007812 C 124.769531 167.007812 125.507812 166.949219 126.234375 166.867188 C 126.980469 166.960938 127.742188 167.007812 128.515625 167.007812 L 140.941406 167.007812 C 145.777344 167.007812 150.34375 165.144531 153.753906 161.933594 C 157.125 165.097656 161.648438 167.007812 166.566406 167.007812 L 179.0625 167.007812 C 179.960938 167.007812 180.851562 166.914062 181.730469 166.796875 C 182.609375 166.925781 183.5 167.007812 184.402344 167.007812 L 220.648438 167.007812 C 223.714844 167.007812 226.632812 166.246094 229.21875 164.910156 C 234.851562 167.171875 241.269531 168.308594 248.449219 168.308594 C 271.90625 168.308594 288.921875 153.007812 288.921875 131.929688 C 288.921875 127.9375 288.324219 124.234375 287.140625 120.835938 C 289.882812 117.171875 291.195312 112.613281 290.808594 108.007812 Z M 290.796875 108.066406 " fill-opacity="1" fill-rule="nonzero"/></g><path fill="#1c2842" d="M 281.367188 118.351562 C 283.148438 116.421875 284.027344 113.832031 283.804688 111.21875 C 283.171875 103.863281 280.148438 97.875 275.265625 93.632812 C 274.539062 92.800781 273.769531 92.015625 272.925781 91.292969 C 272.199219 90.460938 271.425781 89.675781 270.582031 88.949219 C 269.855469 88.117188 269.082031 87.332031 268.238281 86.605469 C 267.796875 86.089844 267.339844 85.597656 266.847656 85.128906 L 258.414062 32.398438 C 258.003906 29.808594 256.539062 27.605469 254.515625 26.191406 C 253.882812 25.277344 253.085938 24.480469 252.171875 23.847656 C 251.539062 22.933594 250.742188 22.136719 249.832031 21.503906 C 249.199219 20.589844 248.402344 19.792969 247.488281 19.160156 C 246.855469 18.246094 246.058594 17.449219 245.144531 16.816406 C 244.511719 15.902344 243.71875 15.105469 242.804688 14.472656 C 241.09375 12.015625 238.261719 10.445312 235.109375 10.445312 L 222.542969 10.445312 C 219.125 10.445312 215.960938 12.320312 214.324219 15.316406 L 206.992188 28.71875 C 206.839844 28.578125 206.6875 28.425781 206.535156 28.285156 C 205.796875 27.453125 205.023438 26.671875 204.191406 25.945312 C 203.453125 25.113281 202.683594 24.328125 201.851562 23.601562 C 201.113281 22.769531 200.339844 21.984375 199.507812 21.257812 C 198.769531 20.425781 197.996094 19.640625 197.167969 18.914062 C 191.824219 12.917969 183.804688 9.507812 173.941406 9.507812 C 166.144531 9.507812 159.210938 11.476562 153.367188 15.269531 C 153.050781 14.988281 152.722656 14.71875 152.382812 14.484375 C 152.242188 14.273438 152.089844 14.0625 151.925781 13.863281 C 150.148438 11.699219 147.488281 10.445312 144.6875 10.445312 L 105.117188 10.445312 C 103.5 10.445312 101.96875 10.867188 100.632812 11.59375 C 99.273438 10.855469 97.738281 10.445312 96.160156 10.445312 L 79.550781 10.445312 C 75.957031 10.445312 72.691406 12.496094 71.121094 15.726562 L 69.984375 18.082031 C 69.539062 17.601562 69.035156 17.179688 68.496094 16.804688 C 67.863281 15.890625 67.070312 15.09375 66.15625 14.460938 C 64.457031 12.015625 61.636719 10.433594 58.472656 10.433594 L 42.511719 10.433594 C 38.027344 10.433594 34.171875 13.609375 33.316406 18.011719 L 22.847656 71.761719 C 22.542969 73.320312 22.660156 74.914062 23.128906 76.402344 C 21.933594 77.65625 21.066406 79.257812 20.714844 81.0625 L 10.246094 134.8125 C 9.707031 137.566406 10.433594 140.402344 12.214844 142.570312 C 12.765625 143.234375 13.410156 143.808594 14.101562 144.289062 C 14.253906 144.5 14.394531 144.710938 14.558594 144.910156 C 15.105469 145.578125 15.75 146.152344 16.441406 146.632812 C 16.59375 146.84375 16.734375 147.054688 16.898438 147.253906 C 17.449219 147.921875 18.09375 148.496094 18.785156 148.976562 C 18.9375 149.1875 19.078125 149.398438 19.242188 149.597656 C 19.792969 150.265625 20.4375 150.839844 21.125 151.320312 C 21.277344 151.53125 21.417969 151.742188 21.582031 151.941406 C 22.132812 152.609375 22.777344 153.183594 23.46875 153.664062 C 23.621094 153.875 23.761719 154.085938 23.925781 154.285156 C 24.476562 154.953125 25.121094 155.527344 25.8125 156.007812 C 25.964844 156.214844 26.105469 156.425781 26.269531 156.625 C 28.046875 158.78125 30.695312 160.035156 33.492188 160.035156 L 56.234375 160.035156 C 64.246094 160.035156 71.285156 158.125 77.082031 154.613281 C 77.5625 155.140625 78.089844 155.597656 78.664062 155.996094 C 78.816406 156.203125 78.957031 156.414062 79.121094 156.613281 C 80.898438 158.769531 83.546875 160.023438 86.34375 160.023438 L 126.351562 160.023438 C 127.121094 160.023438 127.871094 159.917969 128.597656 159.742188 C 129.324219 159.917969 130.0625 160.023438 130.824219 160.023438 L 143.25 160.023438 C 146.773438 160.023438 149.996094 158.042969 151.585938 154.917969 L 154.246094 149.691406 L 154.726562 149.691406 C 155.253906 150.300781 155.851562 150.851562 156.503906 151.308594 C 157.136719 152.222656 157.933594 153.019531 158.847656 153.652344 C 159.480469 154.566406 160.277344 155.363281 161.191406 155.996094 C 162.886719 158.441406 165.722656 160.023438 168.871094 160.023438 L 181.367188 160.023438 C 182.28125 160.023438 183.183594 159.882812 184.039062 159.625 C 184.894531 159.882812 185.792969 160.023438 186.707031 160.023438 L 222.953125 160.023438 C 225.953125 160.023438 228.65625 158.605469 230.390625 156.34375 C 235.390625 159.414062 242.066406 161.324219 250.753906 161.324219 C 269.070312 161.324219 281.859375 150.21875 281.859375 134.320312 C 281.859375 128.628906 280.136719 124.222656 277.621094 120.8125 C 279.027344 120.308594 280.300781 119.464844 281.34375 118.339844 Z M 281.367188 118.351562 " fill-opacity="1" fill-rule="nonzero"/><path fill="#ffdb01" d="M 42.511719 19.816406 L 58.472656 19.816406 L 60.710938 42.132812 C 61.285156 48.847656 61.144531 61.640625 61.144531 61.640625 L 61.367188 61.640625 C 61.367188 61.640625 65.265625 49.363281 68.4375 42.789062 L 79.5625 19.816406 L 96.171875 19.816406 L 85.699219 73.566406 L 74.726562 73.566406 L 79.273438 50.089844 C 80.5 43.375 83.816406 29 83.816406 29 L 83.675781 29 C 83.675781 29 79.050781 41.570312 76.097656 48.003906 L 63.753906 73.578125 L 53.859375 73.578125 L 51.257812 48.003906 C 50.683594 41.640625 50.683594 29 50.683594 29 L 50.542969 29 C 50.542969 29 48.671875 43.375 47.371094 50.089844 L 42.828125 73.566406 L 32.066406 73.566406 L 42.535156 19.816406 Z M 42.511719 19.816406 " fill-opacity="1" fill-rule="nonzero"/><path fill="#ffdb01" d="M 105.117188 19.816406 L 144.6875 19.816406 L 142.746094 29.785156 L 115.234375 29.785156 L 113.070312 40.832031 L 136.902344 40.832031 L 135.027344 50.371094 L 111.195312 50.371094 L 108.738281 63.234375 L 136.679688 63.234375 L 134.652344 73.566406 L 94.648438 73.566406 Z M 105.117188 19.816406 " fill-opacity="1" fill-rule="nonzero"/><path fill="#ffdb01" d="M 148.15625 66.769531 C 145.261719 62.871094 143.894531 57.457031 143.894531 51.894531 C 143.894531 40.046875 149.09375 29.574219 157.535156 23.71875 C 162.230469 20.390625 167.714844 18.878906 173.929688 18.878906 C 186.636719 18.878906 193.640625 25.886719 194.800781 36.359375 L 182.667969 36.359375 C 182.09375 32.023438 179.203125 28.777344 173.066406 28.777344 C 161.730469 28.777344 156.234375 40.984375 156.234375 51.320312 C 156.234375 59.988281 160.066406 65.039062 167.503906 65.039062 C 174.9375 65.039062 180.5 59.976562 181.507812 54.058594 L 181.578125 53.765625 L 170.746094 53.765625 L 172.550781 44.804688 L 194.578125 44.804688 L 188.945312 73.554688 L 180.640625 73.554688 L 181.003906 66.40625 L 180.78125 66.40625 C 177.457031 71.609375 171.613281 74.714844 165.113281 74.714844 C 157.101562 74.714844 151.679688 71.820312 148.144531 66.769531 Z M 148.15625 66.769531 " fill-opacity="1" fill-rule="nonzero"/><path fill="#ffdb01" d="M 222.53125 19.816406 L 235.097656 19.816406 L 243.695312 73.566406 L 231.199219 73.566406 L 229.898438 63.234375 L 210.832031 63.234375 L 205.5625 73.566406 L 193.136719 73.566406 Z M 215.316406 54.632812 L 228.890625 54.632812 L 227.660156 44.734375 C 226.933594 39.394531 227.015625 29.492188 227.015625 29.492188 L 226.875 29.492188 C 226.875 29.492188 223.339844 38.960938 220.601562 44.371094 L 215.328125 54.632812 Z M 215.316406 54.632812 " fill-opacity="1" fill-rule="nonzero"/><path fill="#ff8e01" d="M 29.910156 82.855469 L 49.773438 82.855469 C 63.777344 82.855469 71.367188 92.179688 71.367188 104.527344 C 71.367188 123.8125 60.828125 136.605469 42.195312 136.605469 L 19.453125 136.605469 L 29.921875 82.855469 Z M 42.40625 126.566406 C 53.238281 126.566406 59.082031 118.1875 59.082031 105.113281 C 59.082031 97.746094 55.757812 92.835938 47.886719 92.835938 L 40.085938 92.835938 L 33.445312 126.566406 Z M 42.40625 126.566406 " fill-opacity="1" fill-rule="nonzero"/><path fill="#ff8e01" d="M 82.773438 82.855469 L 122.34375 82.855469 L 120.402344 92.824219 L 92.890625 92.824219 L 90.726562 103.875 L 114.558594 103.875 L 112.683594 113.410156 L 88.851562 113.410156 L 86.390625 126.273438 L 114.335938 126.273438 L 112.308594 136.605469 L 72.304688 136.605469 Z M 82.773438 82.855469 " fill-opacity="1" fill-rule="nonzero"/><path fill="#ff8e01" d="M 146.175781 82.855469 L 158.742188 82.855469 L 167.339844 136.605469 L 154.84375 136.605469 L 153.542969 126.273438 L 134.476562 126.273438 L 129.207031 136.605469 L 116.78125 136.605469 Z M 138.949219 117.671875 L 152.523438 117.671875 L 151.292969 107.773438 C 150.566406 102.433594 150.648438 92.53125 150.648438 92.53125 L 150.507812 92.53125 C 150.507812 92.53125 146.972656 102 144.234375 107.410156 L 138.960938 117.671875 Z M 138.949219 117.671875 " fill-opacity="1" fill-rule="nonzero"/><path fill="#ff8e01" d="M 183.148438 82.855469 L 195.210938 82.855469 L 186.765625 126.273438 L 210.960938 126.273438 L 208.9375 136.605469 L 172.691406 136.605469 L 183.160156 82.855469 Z M 183.148438 82.855469 " fill-opacity="1" fill-rule="nonzero"/><path fill="#ff8e01" d="M 213.257812 119.628906 L 225.53125 119.628906 C 226.328125 125.265625 229.640625 128.300781 236.796875 128.300781 C 242.136719 128.300781 245.964844 125.839844 245.964844 121.65625 C 246.035156 117.824219 242.066406 116.386719 235.132812 113.996094 C 226.175781 110.960938 219.03125 107.785156 219.03125 98.53125 C 219.03125 88.703125 226.46875 81.917969 239.898438 81.917969 C 252.242188 81.917969 259.539062 87.847656 260.40625 97.957031 L 248.566406 97.957031 C 248.0625 93.84375 244.804688 91.023438 239.464844 91.023438 C 234.125 91.023438 231.164062 93.410156 231.164062 96.796875 C 231.09375 100.335938 234.992188 101.859375 242.792969 104.457031 C 251.09375 107.199219 258.460938 110.890625 258.460938 120.273438 C 258.460938 130.535156 250.160156 137.90625 236.726562 137.90625 C 221.851562 137.90625 213.550781 130.96875 213.257812 119.628906 Z M 213.257812 119.628906 " fill-opacity="1" fill-rule="nonzero"/></svg>