<svg xmlns="http://www.w3.org/2000/svg" xmlns:xlink="http://www.w3.org/1999/xlink" width="40" zoomAndPan="magnify" viewBox="0 0 30 30.000001" height="40" preserveAspectRatio="xMidYMid meet" version="1.0"><defs><clipPath id="9b4285c92b"><path d="M 0.484375 0 L 29.515625 0 L 29.515625 29.03125 L 0.484375 29.03125 Z M 0.484375 0 " clip-rule="nonzero"/></clipPath></defs><g clip-path="url(#9b4285c92b)"><path fill="#f10505" d="M 19.628906 7.902344 L 13.5625 20.035156 C 13.226562 20.707031 12.539062 21.128906 11.789062 21.128906 L 10.371094 21.128906 L 16.4375 9 C 16.773438 8.328125 17.460938 7.902344 18.210938 7.902344 Z M 10.371094 14.515625 C 8.546875 14.515625 7.0625 13.03125 7.0625 11.207031 C 7.0625 9.386719 8.546875 7.902344 10.371094 7.902344 C 12.195312 7.902344 13.675781 9.386719 13.675781 11.207031 C 13.675781 13.03125 12.195312 14.515625 10.371094 14.515625 Z M 10.371094 9.886719 C 9.640625 9.886719 9.046875 10.480469 9.046875 11.207031 C 9.046875 11.9375 9.640625 12.53125 10.371094 12.53125 C 11.097656 12.53125 11.691406 11.9375 11.691406 11.207031 C 11.691406 10.480469 11.097656 9.886719 10.371094 9.886719 Z M 19.628906 21.460938 C 17.804688 21.460938 16.324219 19.976562 16.324219 18.152344 C 16.324219 16.332031 17.804688 14.847656 19.628906 14.847656 C 21.453125 14.847656 22.9375 16.332031 22.9375 18.152344 C 22.9375 19.976562 21.453125 21.460938 19.628906 21.460938 Z M 19.628906 16.832031 C 18.902344 16.832031 18.308594 17.425781 18.308594 18.152344 C 18.308594 18.882812 18.902344 19.476562 19.628906 19.476562 C 20.359375 19.476562 20.953125 18.882812 20.953125 18.152344 C 20.953125 17.425781 20.359375 16.832031 19.628906 16.832031 Z M 27.1875 17.78125 L 29.515625 14.515625 L 27.1875 11.25 L 27.570312 7.257812 L 23.921875 5.59375 L 22.257812 1.945312 L 18.265625 2.328125 L 15 0 L 11.734375 2.328125 L 7.742188 1.945312 L 6.078125 5.59375 L 2.425781 7.257812 L 2.8125 11.25 L 0.484375 14.515625 L 2.8125 17.78125 L 2.429688 21.773438 L 6.078125 23.4375 L 7.742188 27.089844 L 11.734375 26.703125 L 15 29.03125 L 18.265625 26.703125 L 22.257812 27.085938 L 23.921875 23.4375 L 27.574219 21.773438 Z M 27.1875 17.78125 " fill-opacity="1" fill-rule="nonzero"/></g></svg>